<svg width="344" height="344" viewBox="0 0 344 344" fill="none" xmlns="http://www.w3.org/2000/svg">
<g clip-path="url(#clip0_192_3396)">
<g filter="url(#filter0_d_192_3396)">
<path opacity="0.41" d="M135.106 265.641C132.308 265.63 129.506 265.517 126.702 265.288C95.9674 262.768 60.3627 248.092 45.0595 221.372C31.6807 198.012 26.4278 167.769 32.5194 141.717C38.2456 117.227 55.9987 97.3895 80.8582 89.8566C108.816 81.3853 139.715 91.6784 167.226 80.109C207.267 63.2702 257.593 76.6429 285.655 108.681C310.535 137.086 316.557 182.888 308.747 218.376C304.8 236.313 294.417 253.586 277.889 262.616C264.739 269.801 248.842 271.218 233.805 269.345C221.714 267.839 210.582 263.896 198.951 260.651C189.628 258.049 181.978 259.403 172.435 261.292C160.154 263.722 147.667 265.694 135.106 265.641Z" fill="#AFAFAF"/>
<path d="M141.966 248.503C139.702 248.494 137.435 248.403 135.166 248.217C110.296 246.179 81.4864 234.303 69.1038 212.682C58.2781 193.78 54.0269 169.308 58.9564 148.227C63.5901 128.41 77.9556 112.358 98.0713 106.263C120.694 99.4082 145.697 107.737 167.958 98.3755C200.358 84.7503 241.081 95.5712 263.789 121.495C283.921 144.48 288.794 181.542 282.474 210.258C279.28 224.771 270.878 238.749 257.504 246.056C246.862 251.87 234 253.016 221.832 251.501C212.047 250.282 203.04 247.092 193.628 244.465C186.084 242.36 179.894 243.456 172.172 244.984C162.236 246.95 152.131 248.545 141.966 248.503Z" stroke="white" stroke-width="1.9456" stroke-miterlimit="10" stroke-dasharray="3.85 3.85"/>
<path opacity="0.87" d="M287.251 344.354C293.935 344.354 299.354 343.942 299.354 343.434C299.354 342.926 293.935 342.514 287.251 342.514C280.566 342.514 275.147 342.926 275.147 343.434C275.147 343.942 280.566 344.354 287.251 344.354Z" fill="#515159"/>
<path d="M288.787 308.634C288.787 308.634 278.424 301.593 285.081 291.36C291.737 281.127 290.073 277.571 287.743 274.689C293.401 281.127 292.161 288.462 288.787 293.115C285.413 297.767 284.878 304.098 288.787 308.634Z" fill="#AFAFAF"/>
<path d="M297.242 317.369H277.26L279.21 342.666H295.291L297.242 317.369Z" fill="#FEFEFE"/>
<path d="M299.354 316.075H275.147V319.042H299.354V316.075Z" fill="#8B8B8C"/>
<path d="M294.601 313.407H279.901C278.442 313.407 277.26 314.59 277.26 316.049V316.076H297.243V316.049C297.242 314.59 296.059 313.407 294.601 313.407Z" fill="#5A5A63"/>
<path d="M296.131 331.781L296.603 325.653H277.898L278.371 331.781H296.131Z" fill="#EDB62B"/>
<path d="M297.242 316.075V316.048C297.242 314.589 296.059 313.406 294.6 313.406H287.32C288.779 313.406 289.962 314.589 289.962 316.048V316.075H292.074V319.042H289.833L288.012 342.666H295.291L297.113 319.042H299.354V316.075H297.242Z" fill="#AFAFAF"/>
<path d="M189.963 158.766C189.963 158.766 194.15 145.633 188.032 141.819C184.143 139.821 182.018 142.31 182.018 142.31C182.018 142.31 180.189 133.025 167.587 136.092C159.424 138.079 156.849 133.871 156.849 133.871C156.849 133.871 156.773 145.512 162.394 148.973C166.465 152.463 164.904 161.898 164.904 161.898L189.963 158.766Z" fill="#2F2F35"/>
<path opacity="0.87" d="M227.088 330.39C227.088 330.39 249.776 331.072 256.108 336.917C262.767 343.064 269.753 352.663 241.087 352.478C212.42 352.293 187.008 344.403 162.965 346.907C138.922 349.411 119.192 353.728 113.445 352.77C107.697 351.813 148.664 332.187 148.664 332.187L224.723 334.979L227.088 330.39Z" fill="#515159"/>
<path d="M205.867 279.357L177.266 276.484L148.664 279.357C148.664 279.357 146.965 292.872 141.442 300.081C177.266 312.947 177.266 312.947 177.266 312.947C177.266 312.947 177.266 312.947 213.089 300.081C207.566 292.872 205.867 279.357 205.867 279.357Z" fill="#A87D1D"/>
<path d="M176.136 312.541C177.264 312.946 177.266 312.947 177.266 312.947C177.266 312.947 177.267 312.946 178.394 312.542C184.985 297.379 183.408 280.367 183.017 277.062L177.266 276.484L169.905 277.224C169.758 280.857 169.513 297.475 176.136 312.541Z" fill="#A87D1D"/>
<path d="M148.502 280.46C148.503 280.461 178.598 293.734 207.663 287.965C206.358 283.247 205.868 279.357 205.868 279.357L177.266 276.484L154.291 278.792L148.502 280.46Z" fill="#895436"/>
<path d="M162.394 148.972C166.464 152.463 164.903 161.897 164.903 161.897L170.227 161.232C175.696 156.366 181.868 150.205 180.972 147.884C179.401 143.816 174.864 139.757 166.499 139.292C158.134 138.828 156.849 133.871 156.849 133.871C156.849 133.871 156.772 145.511 162.394 148.972Z" fill="#515159"/>
<path d="M176.227 181.929L152.582 190.549L148.664 279.358C148.664 279.358 157.023 283.276 177.266 283.276C177.266 190.97 177.266 183.308 177.266 183.308L176.227 181.929Z" fill="white"/>
<path d="M178.304 181.929L201.949 190.549L205.867 279.358C205.867 279.358 197.509 283.276 177.266 283.276C177.266 190.97 177.266 183.308 177.266 183.308L178.304 181.929Z" fill="white"/>
<path d="M152.582 190.549L152.473 190.588C145.566 193.055 140.047 198.363 137.313 205.169L111.932 266.6L133.515 269.171L151.786 224.393L152.582 190.549Z" fill="#FF7E6E"/>
<path d="M201.949 190.549L202.059 190.588C208.966 193.055 214.485 198.363 217.218 205.169L242.599 266.6L221.017 269.171L202.746 224.393L201.949 190.549Z" fill="#FF7E6E"/>
<path d="M227.074 229.022L217.218 205.168C214.485 198.363 208.966 193.055 202.059 190.587L201.949 190.548L202.746 224.392L207.922 237.077C214.832 231.29 221.764 229.411 227.074 229.022Z" fill="#E8E8E8"/>
<path d="M127.457 229.022L137.313 205.168C140.046 198.363 145.565 193.055 152.472 190.587L152.582 190.548L151.785 224.392L146.609 237.077C139.699 231.29 132.767 229.411 127.457 229.022Z" fill="#E8E8E8"/>
<path d="M203.494 225.562C203.494 225.562 202.854 224.665 201.95 222.984L202.747 224.392C202.747 224.392 193.751 274.324 169.702 283.077C172.014 283.201 174.527 283.275 177.266 283.275C197.509 283.275 205.868 279.357 205.868 279.357L203.494 225.562Z" fill="#D3D3D3"/>
<path opacity="0.52" d="M141.442 219.02C147.541 201.911 147.88 202.042 161.202 198.907C174.523 195.773 171.904 183.506 171.904 183.506L159.484 188.033L157.563 188.733L152.582 190.549L152.472 190.588C145.565 193.055 140.046 198.363 137.313 205.168L112.984 264.053C123.258 256.49 136.247 233.591 141.442 219.02Z" fill="#FFF6E7"/>
<path opacity="0.28" d="M213.089 219.02C206.99 201.911 206.651 202.042 193.329 198.907C180.008 195.773 182.627 183.506 182.627 183.506L195.047 188.033L196.968 188.733L201.948 190.549L202.058 190.588C208.965 193.055 214.484 198.363 217.218 205.168L241.547 264.053C231.273 256.49 218.284 233.591 213.089 219.02Z" fill="#4C2A29"/>
<path d="M177.33 192.885H177.202C173.707 192.885 170.873 190.052 170.873 186.556V171.446H183.658V186.556C183.658 190.052 180.825 192.885 177.33 192.885Z" fill="#FF7E6E"/>
<path d="M183.556 183.101C183.592 183.101 183.623 183.096 183.658 183.096V171.446H177.69L170.873 173.91C170.873 173.91 173.41 183.101 183.556 183.101Z" fill="#4C2A29"/>
<path d="M192.137 162.368C192.137 164.636 190.3 166.474 188.032 166.474C185.765 166.474 183.927 164.636 183.927 162.368C183.927 160.101 185.765 158.263 188.032 158.263C190.299 158.263 192.137 160.101 192.137 162.368Z" fill="#C64F4F"/>
<path d="M188.831 166.393C189.424 164.013 189.772 160.969 189.962 158.766C189.384 158.456 188.733 158.263 188.031 158.263C185.764 158.263 183.926 160.101 183.926 162.368C183.926 164.636 185.764 166.474 188.031 166.474C188.306 166.474 188.572 166.444 188.831 166.393Z" fill="#803D3D"/>
<path d="M162.394 162.368C162.394 164.636 164.232 166.474 166.499 166.474C168.767 166.474 170.604 164.636 170.604 162.368C170.604 160.101 168.767 158.263 166.499 158.263C164.232 158.263 162.394 160.101 162.394 162.368Z" fill="#C64F4F"/>
<path d="M165.7 166.393C165.107 164.013 164.759 160.969 164.569 158.766C165.147 158.456 165.798 158.263 166.5 158.263C168.767 158.263 170.605 160.101 170.605 162.368C170.605 164.636 168.767 166.474 166.5 166.474C166.226 166.474 165.959 166.444 165.7 166.393Z" fill="#803D3D"/>
<path d="M184.491 148.01H177.266H170.04L166.464 155.823L167.065 163.557C167.387 167.683 170.053 174.809 173.804 176.56C174.918 177.08 176.099 177.427 177.266 177.427C178.432 177.427 179.613 177.08 180.728 176.56C184.479 174.809 187.145 167.684 187.466 163.557L188.067 155.823L184.491 148.01Z" fill="#FF7E6E"/>
<path d="M180.972 157.819C180.972 157.819 183.396 158.498 186.139 157.819" stroke="#2F2F35" stroke-width="1.3362" stroke-miterlimit="10" stroke-linecap="round"/>
<path d="M180.189 153.375C180.189 153.375 183.73 152.786 185.859 154.013" stroke="#2F2F35" stroke-width="2.6723" stroke-miterlimit="10" stroke-linecap="round"/>
<path d="M173.559 157.819C173.559 157.819 171.135 158.498 168.391 157.819" stroke="#2F2F35" stroke-width="1.3362" stroke-miterlimit="10" stroke-linecap="round"/>
<path d="M174.342 153.375C174.342 153.375 170.801 152.786 168.672 154.013" stroke="#2F2F35" stroke-width="2.6723" stroke-miterlimit="10" stroke-linecap="round"/>
<path opacity="0.52" d="M171.508 164.557C171.036 156.743 170.04 148.01 170.04 148.01L166.464 155.823L166.655 158.278C166.602 158.276 166.553 158.262 166.5 158.262C164.233 158.262 162.394 160.101 162.394 162.368C162.394 164.635 164.233 166.473 166.5 166.473C166.859 166.473 167.202 166.412 167.533 166.326C168.5 170.32 170.803 175.159 173.804 176.56C174.919 177.08 176.099 177.427 177.266 177.427C177.266 177.427 171.98 172.371 171.508 164.557Z" fill="#FFF6E7"/>
<path d="M201.949 314.097L120.237 289.306C109.387 286.014 97.9764 292.401 95.1088 303.37L95.0008 303.784C92.0465 315.086 99.3751 326.503 110.882 328.514C141.094 333.795 195.854 342.776 224.674 343.874L236.823 351.973C238.657 353.197 241.093 352.995 242.701 351.487L242.764 351.429C244.675 349.637 244.773 346.635 242.982 344.723L241.087 342.699C241.087 342.699 239.398 334.471 231.057 330.945C222.716 327.419 221.932 318.799 219.973 314.097C218.013 309.395 205.476 307.045 201.949 314.097Z" fill="#8C4242"/>
<path d="M95.1088 303.37C97.9764 292.4 109.388 286.014 120.237 289.306L147.947 297.713C143.773 302.921 138.268 313.491 138.101 333.109C127.984 331.464 118.624 329.867 110.881 328.514C99.3744 326.503 92.0458 315.085 95.0001 303.784L95.1088 303.37Z" fill="#EDB62B"/>
<path opacity="0.67" d="M120.885 320.604C120.885 323.936 120.086 327.08 118.677 329.863C115.941 329.394 113.323 328.941 110.882 328.514C99.3751 326.503 92.0465 315.085 95.0008 303.784L95.1088 303.37C95.3661 302.385 95.6949 301.438 96.0837 300.531C97.4638 300.237 98.8941 300.081 100.362 300.081C111.696 300.081 120.885 309.27 120.885 320.604Z" fill="#A87D1D"/>
<path d="M205.867 325.459C205.867 325.459 204.692 332.307 193.33 329.863" stroke="#7B3C38" stroke-width="1.139" stroke-miterlimit="10"/>
<path opacity="0.28" d="M213.089 322.325C213.089 322.325 195.68 321.541 158.851 314.972C129.013 309.649 120.26 294.376 118.012 288.769C118.754 288.905 119.496 289.081 120.236 289.305L201.948 314.096C205.475 307.044 218.012 309.395 219.971 314.096C221.93 318.798 222.714 327.417 231.055 330.944C239.396 334.47 241.085 342.699 241.085 342.699C241.085 342.699 232.509 337.213 227.086 336.038C221.664 334.863 213.089 322.325 213.089 322.325Z" fill="#4C2A29"/>
<path d="M216.859 343.434C216.859 343.434 231.864 357.791 244.656 351.883C246.785 350.9 247.451 348.182 246.061 346.295C235.286 331.661 221.7 315.718 216.521 309.726C215.225 308.226 213.173 307.62 211.269 308.173L196.533 312.454L216.859 343.434Z" fill="#2F2F35"/>
<path d="M196.533 312.454L182.419 308.171L193.11 341.072L216.859 343.434L196.533 312.454Z" fill="#A5A5A5"/>
<path d="M152.582 314.097L234.295 289.306C245.145 286.014 256.556 292.401 259.423 303.37L259.531 303.784C262.485 315.086 255.157 326.503 243.65 328.514C213.438 333.795 158.678 342.776 129.858 343.874L117.709 351.973C115.875 353.197 113.439 352.995 111.831 351.487L111.768 351.429C109.857 349.637 109.759 346.635 111.55 344.723L113.445 342.699C113.445 342.699 115.134 334.471 123.475 330.945C131.816 327.419 132.6 318.799 134.559 314.097C136.518 309.395 149.056 307.045 152.582 314.097Z" fill="#FF7E6E"/>
<path d="M259.422 303.37C256.555 292.4 245.144 286.014 234.295 289.306L206.584 297.713C210.758 302.921 216.264 313.491 216.429 333.109C226.546 331.464 235.907 329.867 243.649 328.514C255.156 326.503 262.485 315.085 259.53 303.784L259.422 303.37Z" fill="#EDB62B"/>
<path opacity="0.67" d="M233.646 320.604C233.646 323.936 234.445 327.08 235.854 329.863C238.59 329.394 241.208 328.941 243.649 328.514C255.156 326.503 262.485 315.085 259.53 303.784L259.422 303.37C259.165 302.385 258.836 301.438 258.448 300.531C257.067 300.237 255.637 300.081 254.17 300.081C242.835 300.081 233.646 309.27 233.646 320.604Z" fill="#A87D1D"/>
<path opacity="0.28" d="M141.442 322.325C141.442 322.325 158.851 321.541 195.681 314.972C225.518 309.649 234.271 294.376 236.52 288.769C235.777 288.905 235.035 289.081 234.295 289.305L152.582 314.097C149.056 307.044 136.518 309.395 134.559 314.097C132.601 318.799 131.817 327.418 123.476 330.945C115.134 334.471 113.445 342.699 113.445 342.699C113.445 342.699 122.022 337.214 127.444 336.039C132.866 334.863 141.442 322.325 141.442 322.325Z" fill="#4C2A29"/>
<path opacity="0.57" d="M123.475 330.945L111.226 328.674C100.139 326.904 92.6313 316.424 94.5226 305.358L94.5969 304.924C96.6588 292.859 108.905 285.396 120.574 289.095L143.702 296.425" stroke="white" stroke-width="1.1139" stroke-miterlimit="10"/>
<path d="M173.065 164.429C172.624 164.429 172.366 164.939 172.636 165.287C173.863 166.862 175.486 167.824 177.272 167.824C179.057 167.824 180.681 166.862 181.908 165.287C182.178 164.939 181.919 164.429 181.479 164.429H173.065Z" fill="white"/>
<path d="M178.479 157.646V161.896C178.479 161.896 177.501 161.344 176.141 161.896" stroke="#2F2F35" stroke-width="0.8212" stroke-miterlimit="10" stroke-linecap="round"/>
<path d="M182.018 142.31H180.972V148.96H182.018V142.31Z" fill="#FF7E6E"/>
<path d="M242.599 266.599L242.643 266.719C245.092 273.5 242.158 281.048 235.772 284.395L192.137 307.269L191.922 306.711C188.078 296.78 192.099 285.531 201.368 280.287L221.018 269.171L242.599 266.599Z" fill="#FF7E6E"/>
<path opacity="0.28" d="M233.386 280.609C233.386 282.22 233.788 283.735 234.491 285.066L235.772 284.395C240.809 281.755 243.684 276.501 243.479 271.072C243.303 271.063 243.129 271.045 242.95 271.045C237.667 271.045 233.386 275.328 233.386 280.609Z" fill="#4C2A29"/>
<path d="M221.017 269.171L233.386 262.156" stroke="#4C2A29" stroke-width="1.3362" stroke-miterlimit="10" stroke-linecap="round"/>
<path d="M112.06 266.599L112.016 266.719C109.567 273.5 112.501 281.048 118.887 284.395L162.522 307.269L162.738 306.711C166.582 296.78 162.561 285.531 153.292 280.287L133.642 269.171L112.06 266.599Z" fill="#FF7E6E"/>
<path opacity="0.28" d="M121.273 280.609C121.273 282.22 120.871 283.735 120.168 285.066L118.887 284.395C113.851 281.755 110.975 276.501 111.18 271.072C111.357 271.063 111.531 271.045 111.71 271.045C116.991 271.045 121.273 275.328 121.273 280.609Z" fill="#4C2A29"/>
<path d="M133.642 269.171L121.273 262.156" stroke="#4C2A29" stroke-width="1.3362" stroke-miterlimit="10" stroke-linecap="round"/>
<path d="M157.68 304.73C157.68 304.73 159.882 292.646 152.71 288.769" stroke="#4C2A29" stroke-width="1.3362" stroke-miterlimit="10" stroke-linecap="round"/>
<path d="M196.852 304.73C196.852 304.73 194.649 292.646 201.821 288.769" stroke="#4C2A29" stroke-width="1.3362" stroke-miterlimit="10" stroke-linecap="round"/>
<path d="M137.672 343.434C137.672 343.434 122.667 357.791 109.875 351.883C107.747 350.9 107.08 348.182 108.47 346.295C119.245 331.661 132.83 315.718 138.01 309.726C139.306 308.226 141.358 307.62 143.262 308.173L157.998 312.454L137.672 343.434Z" fill="#2F2F35"/>
<path d="M157.999 312.454L172.112 308.171L161.421 341.072L137.672 343.434L157.999 312.454Z" fill="#ECECEC"/>
<path opacity="0.28" d="M152.129 321.4C156.315 320.954 161.753 320.3 168.48 319.35L172.112 308.172L157.999 312.454L152.129 321.4Z" fill="#4C2A29"/>
<path d="M142.169 333.442L133.981 345.921C133.471 346.698 132.56 347.114 131.639 346.988L131.584 346.981C129.811 346.74 128.908 344.719 129.912 343.237L138.286 330.875C138.822 330.083 139.79 329.706 140.72 329.924L140.768 329.935C142.327 330.301 143.047 332.104 142.169 333.442Z" fill="#FFF6E7"/>
<path d="M176.141 261.319H126.032L138.387 305.324H176.141H213.895L226.249 261.319H176.141Z" fill="#AFAFAF"/>
<path d="M213.895 305.324H138.387V311.733H213.895V305.324Z" fill="#8B8B8C"/>
<path d="M176.227 293.064C182.993 293.064 188.479 290.254 188.479 286.789C188.479 283.324 182.993 280.514 176.227 280.514C169.46 280.514 163.975 283.324 163.975 286.789C163.975 290.254 169.46 293.064 176.227 293.064Z" fill="#5A5A63"/>
<path d="M226.249 258.399H126.032V261.319H226.249V258.399Z" fill="#5A5A63"/>
<path d="M150.131 307.164H142.569V309.741H150.131V307.164Z" fill="#5A5A63"/>
<path d="M161.045 307.164H153.483V309.741H161.045V307.164Z" fill="#5A5A63"/>
<path d="M213.895 308.529H167.94" stroke="#0F1201" stroke-miterlimit="10"/>
<path opacity="0.54" d="M126.032 261.319L138.387 305.324H165.28C181.248 286.81 190.951 261.319 190.951 261.319L190.918 258.399H126.032V261.319Z" fill="white"/>
<path opacity="0.57" d="M126.032 261.319H226.249" stroke="#0F1201" stroke-miterlimit="10"/>
<path opacity="0.87" d="M73.972 344.354C84.0079 344.354 92.1435 343.942 92.1435 343.434C92.1435 342.926 84.0079 342.514 73.972 342.514C63.9362 342.514 55.8006 342.926 55.8006 343.434C55.8006 343.942 63.9362 344.354 73.972 344.354Z" fill="#515159"/>
<path d="M76.6291 334.386L77.82 333.088L77.2249 333.737L77.8255 333.093C77.679 332.953 63.3383 318.414 80.6608 252.9L78.9573 252.449C61.2722 319.335 75.9941 333.802 76.6291 334.386Z" fill="#5A5A63"/>
<path d="M71.2868 254.027C77.8475 259.989 76.6979 267.039 76.6979 267.039C76.6979 267.039 70.1275 264.236 68.6036 255.504C68.3359 253.972 70.1364 252.981 71.2868 254.027Z" fill="#5A5A63"/>
<path d="M87.7018 258.236C79.0811 260.305 76.6972 267.039 76.6972 267.039C76.6972 267.039 83.8049 267.744 89.344 260.821C90.3155 259.607 89.2133 257.873 87.7018 258.236Z" fill="#5A5A63"/>
<path d="M66.7914 271.161C73.9184 276.434 73.4829 283.563 73.4829 283.563C73.4829 283.563 66.6641 281.436 64.2699 272.9C63.8502 271.403 65.5413 270.236 66.7914 271.161Z" fill="#5A5A63"/>
<path d="M83.5469 273.698C75.1781 276.624 73.4829 283.562 73.4829 283.562C73.4829 283.562 80.6257 283.549 85.4403 276.106C86.2845 274.801 85.0138 273.186 83.5469 273.698Z" fill="#5A5A63"/>
<path d="M63.9424 286.186C71.4402 290.917 71.5331 298.059 71.5331 298.059C71.5331 298.059 64.576 296.442 61.5564 288.107C61.0273 286.645 62.6283 285.357 63.9424 286.186Z" fill="#5A5A63"/>
<path d="M80.8397 287.478C72.7102 291.015 71.5331 298.059 71.5331 298.059C71.5331 298.059 78.6553 297.518 82.9064 289.738C83.6515 288.374 82.2652 286.857 80.8397 287.478Z" fill="#5A5A63"/>
<path d="M85.3412 240.899C85.4898 249.764 79.5655 253.753 79.5655 253.753C79.5655 253.753 77.1079 247.047 82.4276 239.955C83.3598 238.712 85.3151 239.345 85.3412 240.899Z" fill="#5A5A63"/>
<path d="M82.8073 305.338H63.7573V343.024H82.8073V305.338Z" fill="#EDB62B"/>
<path opacity="0.67" d="M82.8073 305.338H75.1967V343.024H82.8073V305.338Z" fill="#A87D1D"/>
<path d="M91.1727 125.596L84.3182 127.301C83.324 127.549 82.3168 126.943 82.0698 125.948L81.41 123.295L91.8662 120.695L92.526 123.348C92.773 124.343 92.1676 125.349 91.1727 125.596Z" fill="#A87D1D"/>
<path d="M116.644 117.422L57.4291 132.149C56.4019 132.404 55.3616 131.779 55.1057 130.751L45.3402 91.4838C45.085 90.4566 45.7104 89.4163 46.7383 89.1604L105.953 74.4337C106.98 74.1785 108.02 74.8039 108.276 75.8318L118.041 115.099C118.297 116.127 117.671 117.166 116.644 117.422Z" fill="#A87D1D"/>
<path d="M114.889 110.636L113.238 115.38L60.6998 128.446L56.0345 125.273L46.3578 86.3664L105.213 71.7292L114.889 110.636Z" fill="#EDB62B"/>
<path d="M75.0266 79.2374L46.3544 86.3671L56.0285 125.272L84.7008 118.143L75.0266 79.2374Z" fill="white"/>
<path d="M73.2547 82.5663L49.6965 88.4243L50.0348 89.785L73.593 83.927L73.2547 82.5663Z" fill="#AFAFAF"/>
<path d="M74.3422 86.9127L50.784 92.7731L51.1225 94.1337L74.6807 88.2733L74.3422 86.9127Z" fill="#AFAFAF"/>
<path d="M75.4194 91.2729L51.8612 97.1309L52.1996 98.4915L75.7577 92.6335L75.4194 91.2729Z" fill="#AFAFAF"/>
<path d="M76.502 95.6257L52.9438 101.484L53.2821 102.844L76.8403 96.9863L76.502 95.6257Z" fill="#AFAFAF"/>
<path d="M77.59 99.9717L54.0319 105.832L54.3703 107.193L77.9285 101.332L77.59 99.9717Z" fill="#AFAFAF"/>
<path d="M78.6666 104.332L55.1084 110.19L55.4468 111.551L79.005 105.693L78.6666 104.332Z" fill="#AFAFAF"/>
<path d="M79.7493 108.685L56.1911 114.543L56.5294 115.903L80.0876 110.046L79.7493 108.685Z" fill="#AFAFAF"/>
<path d="M80.8386 113.031L57.2804 118.891L57.6189 120.252L81.1771 114.391L80.8386 113.031Z" fill="#AFAFAF"/>
<path d="M105.21 71.7225L76.5374 78.8551L86.2156 117.76L114.888 110.628L105.21 71.7225Z" fill="white"/>
<path d="M103.221 75.1064L79.6632 80.9668L80.0017 82.3274L103.56 76.467L103.221 75.1064Z" fill="#AFAFAF"/>
<path d="M104.3 79.4692L80.7422 85.3271L81.0805 86.6878L104.639 80.8298L104.3 79.4692Z" fill="#AFAFAF"/>
<path d="M105.382 83.8228L81.8243 89.6808L82.1626 91.0414L105.721 85.1834L105.382 83.8228Z" fill="#AFAFAF"/>
<path d="M106.47 88.1653L82.9117 94.0258L83.2502 95.3864L106.808 89.526L106.47 88.1653Z" fill="#AFAFAF"/>
<path d="M107.548 92.5285L83.9894 98.3865L84.3278 99.7471L107.886 93.8891L107.548 92.5285Z" fill="#AFAFAF"/>
<path d="M108.63 96.882L85.0716 102.74L85.4099 104.101L108.968 98.2426L108.63 96.882Z" fill="#AFAFAF"/>
<path d="M109.718 101.224L86.1603 107.085L86.4987 108.445L110.057 102.585L109.718 101.224Z" fill="#AFAFAF"/>
<path d="M110.794 105.588L87.2361 111.446L87.5744 112.806L111.133 106.948L110.794 105.588Z" fill="#AFAFAF"/>
<path d="M89.3771 123.322L84.8404 124.451C83.8462 124.698 82.8404 124.092 82.5927 123.099L82.1785 121.433L90.3148 119.41L90.729 121.075C90.976 122.069 90.3705 123.075 89.3771 123.322Z" fill="#EDB62B"/>
<path d="M190.068 67.3783C187.715 65.1409 184.742 63.6149 181.681 62.5953C181.661 62.5884 181.614 62.5753 181.544 62.5568C178.771 61.8144 175.848 61.8144 173.076 62.5568C173.006 62.5753 172.959 62.5884 172.938 62.5953C169.877 63.6149 166.904 65.1416 164.551 67.3783C157.548 74.0374 158.685 86.1242 165.506 92.502C167.42 94.2908 168.26 96.6004 168.845 99.1467C169.022 99.9138 170.037 107.912 169.682 107.912C173.105 107.912 177.309 107.912 177.309 107.912C177.309 107.912 181.513 107.912 184.935 107.912C184.582 107.912 185.597 99.9131 185.773 99.1467C186.359 96.6011 187.199 94.2915 189.112 92.502C195.934 86.1249 197.071 74.0381 190.068 67.3783Z" fill="#EDB62B"/>
<path opacity="0.52" d="M174.567 99.1467C173.981 96.6011 173.14 94.2915 171.228 92.502C164.407 86.1243 163.269 74.0375 170.273 67.3783C172.626 65.1409 175.599 63.615 178.66 62.5953C178.68 62.5885 178.727 62.5754 178.797 62.5568C179.251 62.435 179.709 62.3408 180.17 62.2589C177.817 61.8413 175.394 61.9356 173.076 62.5568C173.006 62.5754 172.959 62.5885 172.938 62.5953C169.877 63.615 166.904 65.1416 164.551 67.3783C157.548 74.0375 158.685 86.1243 165.506 92.502C167.42 94.2908 168.26 96.6004 168.845 99.1467C169.022 99.9138 170.037 107.912 169.682 107.912C171.648 107.912 173.867 107.912 175.404 107.912C175.758 107.912 174.743 99.9132 174.567 99.1467Z" fill="#FFF6E7"/>
<path d="M177.31 107.912V89.2588L180.593 87.3661C181.678 86.7407 181.461 85.1149 180.25 84.7957L174.276 83.2188C173.257 82.9498 173.141 81.5504 174.102 81.1177L177.309 79.6749V73.3433" stroke="#FEFEFE" stroke-width="2.2387" stroke-miterlimit="10" stroke-linecap="round"/>
<path d="M186.454 110.479C186.454 111.046 185.994 111.505 185.427 111.505H168.657C168.09 111.505 167.63 111.046 167.63 110.479C167.63 109.912 168.09 109.452 168.657 109.452H185.427C185.994 109.452 186.454 109.912 186.454 110.479Z" fill="#2F2F35"/>
<path d="M186.454 113.559C186.454 114.126 185.994 114.586 185.427 114.586H168.657C168.09 114.586 167.63 114.126 167.63 113.559C167.63 112.992 168.09 112.532 168.657 112.532H185.427C185.994 112.532 186.454 112.992 186.454 113.559Z" fill="#2F2F35"/>
<path d="M186.454 116.639C186.454 117.206 185.994 117.666 185.427 117.666H168.657C168.09 117.666 167.63 117.206 167.63 116.639C167.63 116.072 168.09 115.612 168.657 115.612H185.427C185.994 115.613 186.454 116.072 186.454 116.639Z" fill="#2F2F35"/>
<path d="M177.041 124.853C180.349 124.853 183.031 122.171 183.031 118.863H171.052C171.052 122.172 173.733 124.853 177.041 124.853Z" fill="#2F2F35"/>
<path d="M247.997 128.791V123.969H245.866C245.463 121.679 244.527 119.577 243.189 117.788L244.88 116.098L241.47 112.688L239.716 114.442C237.921 113.216 235.834 112.394 233.587 112.07V109.551H228.765V112.164C226.61 112.571 224.628 113.453 222.919 114.693L221.212 112.986L217.803 116.396L219.532 118.125C218.268 119.921 217.408 122.014 217.06 124.279H214.666V129.101H217.113C217.507 131.311 218.398 133.343 219.666 135.089L217.783 136.973L221.192 140.383L223.1 138.475C224.849 139.704 226.879 140.551 229.076 140.917V143.52H233.898V140.917C236.087 140.553 238.11 139.711 239.856 138.489L241.451 140.084L244.86 136.674L243.293 135.107C244.628 133.276 245.541 131.127 245.908 128.791H247.997ZM231.487 134.719C226.957 134.719 223.285 131.046 223.285 126.517C223.285 121.986 226.957 118.314 231.487 118.314C236.017 118.314 239.689 121.987 239.689 126.517C239.689 131.047 236.017 134.719 231.487 134.719Z" fill="#666666"/>
<path d="M267.225 147.08V144.298H265.996C265.763 142.976 265.223 141.765 264.452 140.732L265.427 139.756L263.46 137.789L262.449 138.801C261.414 138.094 260.21 137.62 258.913 137.432V135.979H256.131V137.487C254.888 137.721 253.744 138.231 252.758 138.946L251.774 137.961L249.807 139.928L250.805 140.926C250.076 141.962 249.58 143.17 249.378 144.476H247.998V147.258H249.409C249.637 148.533 250.151 149.705 250.882 150.712L249.795 151.799L251.762 153.766L252.862 152.666C253.872 153.375 255.043 153.864 256.309 154.074V155.576H259.091V154.074C260.354 153.865 261.522 153.379 262.528 152.674L263.448 153.594L265.415 151.627L264.511 150.723C265.281 149.666 265.808 148.427 266.019 147.079L267.225 147.08ZM257.7 150.499C255.087 150.499 252.968 148.381 252.968 145.767C252.968 143.154 255.087 141.035 257.7 141.035C260.314 141.035 262.432 143.153 262.432 145.767C262.432 148.381 260.314 150.499 257.7 150.499Z" fill="#9E9E9E"/>
<path d="M311.051 111.054V101.151H306.674C305.846 96.4476 303.924 92.1332 301.177 88.4572L304.65 84.9849L297.648 77.9831L294.047 81.5841C290.36 79.0667 286.076 77.3797 281.459 76.713V71.5406H271.557V76.9071C267.131 77.7416 263.061 79.5538 259.551 82.1014L256.046 78.5968L249.045 85.5986L252.595 89.1493C250.001 92.8384 248.236 97.1363 247.519 101.788H242.603V111.69H247.628C248.439 116.228 250.268 120.402 252.873 123.988L249.003 127.857L256.005 134.859L259.923 130.942C263.515 133.466 267.683 135.205 272.194 135.956V141.301H282.097V135.956C286.592 135.208 290.748 133.479 294.332 130.969L297.608 134.245L304.61 127.243L301.392 124.025C304.133 120.265 306.01 115.853 306.762 111.055L311.051 111.054ZM277.145 123.229C267.842 123.229 260.3 115.687 260.3 106.384C260.3 97.0813 267.842 89.5394 277.145 89.5394C286.448 89.5394 293.99 97.0813 293.99 106.384C293.99 115.687 286.448 123.229 277.145 123.229Z" fill="#8B8B8C"/>
<path d="M276.827 116.306C282.286 116.306 286.711 111.881 286.711 106.422C286.711 100.963 282.286 96.5371 276.827 96.5371C271.368 96.5371 266.942 100.963 266.942 106.422C266.942 111.881 271.368 116.306 276.827 116.306Z" fill="#666666"/>
<path d="M84.2872 156.986C63.0487 158.274 46.5394 171.002 47.4139 185.414C48.2883 199.827 66.2142 210.466 87.4527 209.177C87.4685 209.177 87.4844 209.175 87.5002 209.174C89.5903 209.046 91.0523 207.027 90.5356 204.998C90.2845 204.01 90.1428 202.976 90.1263 201.909C90.0183 195.039 95.3324 189.136 102.175 188.518C107.141 188.069 111.678 190.404 114.296 194.203C115.588 196.078 118.335 196.21 119.732 194.412C122.925 190.302 124.622 185.623 124.326 180.75C123.452 166.337 105.526 155.698 84.2872 156.986Z" fill="#5A5A63"/>
<path d="M84.1462 154.654C62.9076 155.942 46.3984 168.67 47.2728 183.082C48.1473 197.494 66.0731 208.133 87.3124 206.845C87.3282 206.844 87.344 206.843 87.3598 206.842C89.45 206.713 90.912 204.694 90.3953 202.665C90.1442 201.678 90.0024 200.644 89.9859 199.576C89.8779 192.706 95.192 186.804 102.035 186.186C107.001 185.737 111.538 188.071 114.156 191.871C115.448 193.745 118.195 193.878 119.592 192.08C122.785 187.97 124.482 183.29 124.186 178.417C123.311 164.004 105.385 153.365 84.1462 154.654Z" fill="#8B8B8C"/>
<path d="M76.6449 195.51C76.8004 198.07 74.8506 200.272 72.2906 200.427C69.7305 200.583 67.5289 198.633 67.3734 196.073C67.218 193.513 69.1677 191.311 71.7278 191.156C74.2878 191 76.4894 192.95 76.6449 195.51Z" fill="#EDB62B"/>
<path d="M63.9926 186.72C64.1481 189.28 62.1983 191.482 59.6383 191.637C57.0782 191.793 54.8766 189.843 54.7211 187.283C54.5656 184.723 56.5154 182.521 59.0755 182.366C61.6362 182.21 63.8371 184.16 63.9926 186.72Z" fill="#EDB62B"/>
<path d="M67.7126 171.346C67.8681 173.906 65.9183 176.108 63.3583 176.263C60.7982 176.419 58.5966 174.469 58.4411 171.909C58.2857 169.349 60.2354 167.147 62.7955 166.992C65.3562 166.836 67.5578 168.786 67.7126 171.346Z" fill="#EDB62B"/>
<path d="M83.3928 163.037C83.5483 165.597 81.5985 167.799 79.0385 167.954C76.4784 168.11 74.2768 166.16 74.1213 163.6C73.9659 161.04 75.9156 158.838 78.4757 158.683C81.0357 158.527 83.2373 160.477 83.3928 163.037Z" fill="#EDB62B"/>
<path d="M101.054 163.264C101.21 165.824 99.2602 168.026 96.7001 168.181C94.1401 168.337 91.9385 166.387 91.783 163.827C91.6275 161.267 93.5773 159.065 96.1373 158.91C98.6974 158.754 100.899 160.704 101.054 163.264Z" fill="#EDB62B"/>
<path d="M115.961 171.665C116.117 174.225 114.167 176.427 111.607 176.582C109.047 176.738 106.845 174.788 106.69 172.228C106.534 169.668 108.484 167.466 111.044 167.311C113.605 167.155 115.807 169.105 115.961 171.665Z" fill="#EDB62B"/>
<path opacity="0.68" d="M104.816 157.405L100.444 166.552C99.8677 166.524 99.3104 166.851 99.0806 167.417L99.0682 167.448C98.7765 168.163 99.1205 168.98 99.8367 169.272L100.247 169.439C100.166 169.412 99.7493 169.363 98.8701 170.644C98.8694 170.644 98.8694 170.644 98.8694 170.645C98.8164 170.722 98.7614 170.805 98.705 170.893C98.6995 170.902 98.694 170.91 98.6878 170.919C98.6355 171.001 98.5811 171.087 98.5254 171.178C98.5144 171.197 98.5034 171.215 98.4917 171.233C98.4394 171.319 98.3864 171.409 98.3321 171.504C98.3162 171.531 98.2997 171.559 98.2832 171.588C98.2316 171.678 98.1793 171.772 98.1257 171.87C98.1043 171.908 98.083 171.948 98.061 171.988C98.0101 172.082 97.9578 172.18 97.9048 172.281C97.8787 172.331 97.8525 172.382 97.8257 172.433C97.7748 172.532 97.7232 172.632 97.6702 172.737C97.6393 172.799 97.6076 172.863 97.5753 172.928C97.5244 173.03 97.4734 173.134 97.4218 173.242C97.3861 173.317 97.3496 173.394 97.3125 173.471C97.2615 173.579 97.2099 173.688 97.1576 173.802C97.1177 173.887 97.0772 173.977 97.0366 174.066C96.985 174.179 96.9334 174.293 96.8804 174.412C96.8357 174.512 96.7896 174.618 96.7435 174.724C96.6926 174.84 96.6416 174.955 96.5894 175.077C96.5391 175.193 96.4875 175.316 96.4359 175.438C96.385 175.559 96.3341 175.678 96.2818 175.804C96.2268 175.936 96.1704 176.075 96.114 176.212C96.063 176.336 96.0128 176.458 95.9605 176.587C95.9 176.738 95.8367 176.898 95.7748 177.055C95.7245 177.182 95.675 177.306 95.6234 177.438C95.5539 177.616 95.4824 177.803 95.4108 177.989C95.3647 178.109 95.3193 178.225 95.2725 178.349C95.1879 178.572 95.1012 178.805 95.0138 179.039C94.9774 179.137 94.9416 179.231 94.9045 179.331C94.7792 179.671 94.6513 180.021 94.5205 180.385C94.1704 181.36 93.761 182.508 93.3097 183.78C93.2574 183.928 93.2065 184.072 93.1521 184.223C93.084 184.416 93.0124 184.618 92.9423 184.817C92.8838 184.982 92.8267 185.143 92.7668 185.313C92.6746 185.573 92.5797 185.843 92.4848 186.113C92.4421 186.234 92.4008 186.351 92.3575 186.474C92.2632 186.741 92.1669 187.015 92.0706 187.289C92.0217 187.429 91.9729 187.566 91.9233 187.707C91.8325 187.965 91.7403 188.229 91.6475 188.493C91.5904 188.656 91.5339 188.815 91.4761 188.98C91.3695 189.285 91.2608 189.595 91.1514 189.907C91.1101 190.024 91.0702 190.139 91.029 190.257C90.9182 190.575 90.8053 190.898 90.6918 191.222C90.6437 191.36 90.5955 191.497 90.5473 191.636C90.4421 191.937 90.3354 192.243 90.2288 192.55C90.1744 192.706 90.1208 192.86 90.0657 193.017C89.9522 193.342 89.838 193.671 89.7238 194.001C89.6743 194.142 89.6254 194.283 89.5766 194.425C89.4637 194.749 89.3502 195.077 89.2367 195.405C89.1796 195.569 89.1232 195.731 89.0668 195.895C88.9649 196.19 88.8624 196.486 88.7599 196.782C88.687 196.992 88.6148 197.202 88.5418 197.413C88.4538 197.668 88.365 197.924 88.2769 198.18C88.193 198.424 88.1091 198.667 88.0245 198.911C87.9302 199.185 87.8353 199.459 87.741 199.734C87.6915 199.878 87.6419 200.02 87.5924 200.164C86.8211 202.405 86.0437 204.679 85.2786 206.932C85.9529 206.914 86.6312 206.886 87.3131 206.845C87.3289 206.844 87.3447 206.843 87.3605 206.842C89.4507 206.714 90.9127 204.694 90.396 202.665C90.1449 201.678 90.0031 200.644 89.9866 199.576C89.8924 193.564 93.9502 188.293 99.5519 186.656C100.171 185.315 100.724 184.113 101.187 183.098C106.115 172.307 104.89 171.34 104.735 171.265L105.145 171.432C105.861 171.723 106.678 171.379 106.969 170.664L106.982 170.633C107.254 169.963 106.966 169.211 106.342 168.878L109.619 159.459C108.104 158.692 106.5 158.005 104.816 157.405Z" fill="#2F2F35"/>
<path opacity="0.42" d="M66.909 170.635C66.9737 171.706 66.1584 172.627 65.0879 172.692C64.0174 172.757 63.0961 171.941 63.0315 170.871C62.9668 169.8 63.7821 168.879 64.8526 168.814C65.9231 168.75 66.8437 169.565 66.909 170.635Z" fill="white"/>
<path opacity="0.42" d="M82.5989 162.493C82.6636 163.563 81.8483 164.485 80.7777 164.549C79.7072 164.614 78.786 163.799 78.7213 162.728C78.6566 161.658 79.4719 160.736 80.5425 160.672C81.613 160.606 82.5335 161.422 82.5989 162.493Z" fill="white"/>
<path opacity="0.42" d="M99.212 162.077C99.2767 163.148 98.4614 164.069 97.3909 164.134C96.3204 164.199 95.3991 163.383 95.3345 162.313C95.2698 161.242 96.0851 160.321 97.1556 160.256C98.2261 160.192 99.1467 161.007 99.212 162.077Z" fill="white"/>
<path opacity="0.42" d="M62.0346 185.35C62.0992 186.42 61.284 187.341 60.2134 187.406C59.1429 187.471 58.2217 186.655 58.157 185.585C58.0923 184.514 58.9076 183.593 59.9781 183.528C61.0487 183.464 61.9692 184.279 62.0346 185.35Z" fill="white"/>
<path opacity="0.42" d="M75.8021 194.162C75.8668 195.233 75.0515 196.154 73.981 196.219C72.9105 196.283 71.9892 195.468 71.9246 194.398C71.8599 193.327 72.6752 192.406 73.7457 192.341C74.8162 192.276 75.7368 193.092 75.8021 194.162Z" fill="white"/>
<path d="M121.798 154.642C121.798 154.642 128.134 151.178 128.54 145.825C128.515 142.662 127.141 140.066 127.141 140.066L126.273 143.326C126.273 143.326 125.796 138.205 122.14 135.731C118.483 133.257 119.383 133.952 119.383 133.952C119.383 133.952 122.453 138.027 119.045 144.785C115.637 151.542 119.938 153.885 119.938 153.885L121.798 154.642Z" fill="#EDB62B"/>
<path d="M121.406 152.447C121.406 152.447 120.26 146.571 122.879 143.413C119.474 147.729 118.771 151.197 119.626 154C121.406 152.447 121.406 152.447 121.406 152.447Z" fill="#A87D1D"/>
<path d="M118.345 153.609C118.903 152.479 120.239 151.972 121.406 152.447L121.427 152.456L121.447 152.464C122.614 152.939 123.216 154.235 122.826 155.433L118.66 168.234L115.522 166.956L112.385 165.678L118.345 153.609Z" fill="white"/>
<path d="M111.9 168.54L117.208 170.701C117.924 170.993 118.74 170.649 119.032 169.932L119.044 169.901C119.336 169.185 118.992 168.369 118.276 168.077L112.968 165.916C112.252 165.625 111.436 165.969 111.144 166.685L111.132 166.716C110.841 167.431 111.185 168.248 111.9 168.54Z" fill="#CCCCCC"/>
<path d="M112.326 168.712L114.554 169.619L116.783 170.527C116.783 170.527 118.474 170.926 113.25 182.366C109.368 190.868 99.3813 212.192 93.6268 223.585C93.0888 224.651 91.4748 223.994 91.8339 222.855C95.6743 210.683 103.423 188.448 106.584 179.652C110.836 167.817 112.326 168.712 112.326 168.712Z" fill="#2F2F35"/>
<path d="M100.441 209.658C97.9537 214.844 95.5525 219.772 93.6261 223.586C93.0881 224.652 91.4741 223.995 91.8332 222.856C93.1191 218.781 94.8432 213.578 96.6857 208.129L100.441 209.658Z" fill="white"/>
<path opacity="0.75" d="M99.6551 199.432C107.842 189.299 110.92 169.996 110.934 169.912C110.025 171.235 108.623 173.979 106.584 179.653C105.039 183.951 102.4 191.458 99.6551 199.432Z" fill="white"/>
<path d="M258.165 175.667L259.615 178.606L262.858 179.078L260.512 181.365L261.065 184.596L258.165 183.071L255.263 184.596L255.818 181.365L253.471 179.078L256.714 178.606L258.165 175.667Z" fill="#9E9E9E"/>
<path d="M299.924 171.561L301.95 175.665L306.479 176.324L303.202 179.518L303.975 184.029L299.924 181.899L295.874 184.029L296.647 179.518L293.37 176.324L297.9 175.665L299.924 171.561Z" fill="#666666"/>
<path d="M287.251 233.064L288.381 235.354L290.909 235.722L289.08 237.505L289.512 240.022L287.251 238.833L284.99 240.022L285.421 237.505L283.592 235.722L286.12 235.354L287.251 233.064Z" fill="#9E9E9E"/>
<path d="M246.917 217.546L248.942 221.65L253.471 222.308L250.194 225.502L250.968 230.012L246.917 227.883L242.866 230.012L243.64 225.502L240.362 222.308L244.891 221.65L246.917 217.546Z" fill="#666666"/>
<path d="M285.753 227.244C297.332 222.601 302.954 209.451 298.311 197.873C293.669 186.294 280.519 180.672 268.94 185.315C257.362 189.958 251.739 203.108 256.382 214.686C261.025 226.264 274.175 231.887 285.753 227.244Z" fill="#EDB62B"/>
<g opacity="0.67">
<path d="M271.262 228.03C279.241 230.257 287.411 227.904 292.984 222.557C289.21 223.569 285.125 223.618 281.088 222.492C269.073 219.139 262.051 206.682 265.403 194.666C266.529 190.63 268.687 187.16 271.506 184.455C264.046 186.455 257.804 192.227 255.577 200.206C252.225 212.22 259.248 224.678 271.262 228.03Z" fill="#A87D1D"/>
</g>
<path opacity="0.52" d="M283.403 184.521C282.278 184.207 281.149 183.984 280.024 183.847C279.435 185.959 279.114 188.182 279.114 190.482C279.114 202.239 287.345 212.067 298.357 214.536C298.635 213.826 298.88 213.096 299.089 212.346C302.44 200.331 295.418 187.873 283.403 184.521Z" fill="#FFF6E7"/>
<path d="M254.825 204.417C246.062 201.003 240.612 197.915 241.07 196.274C241.832 193.544 258.652 195.852 278.639 201.429C298.626 207.006 314.211 213.74 313.449 216.47C312.993 218.106 306.771 217.933 297.556 216.331" stroke="#666666" stroke-width="2" stroke-miterlimit="10"/>
</g>
</g>
<defs>
<filter id="filter0_d_192_3396" x="-16" y="32" width="344.477" height="351.309" filterUnits="userSpaceOnUse" color-interpolation-filters="sRGB">
<feFlood flood-opacity="0" result="BackgroundImageFix"/>
<feColorMatrix in="SourceAlpha" type="matrix" values="0 0 0 0 0 0 0 0 0 0 0 0 0 0 0 0 0 0 127 0" result="hardAlpha"/>
<feOffset dx="-16"/>
<feGaussianBlur stdDeviation="15"/>
<feComposite in2="hardAlpha" operator="out"/>
<feColorMatrix type="matrix" values="0 0 0 0 0 0 0 0 0 0 0 0 0 0 0 0 0 0 0.25 0"/>
<feBlend mode="normal" in2="BackgroundImageFix" result="effect1_dropShadow_192_3396"/>
<feBlend mode="normal" in="SourceGraphic" in2="effect1_dropShadow_192_3396" result="shape"/>
</filter>
<clipPath id="clip0_192_3396">
<rect width="344" height="344" fill="white"/>
</clipPath>
</defs>
</svg>
