<svg width="430" height="434" viewBox="0 0 430 434" fill="none" xmlns="http://www.w3.org/2000/svg">
<path d="M408.986 240.475C397.273 275.976 372.039 314.884 334.905 327.55C278.797 346.693 273.784 392.71 171.95 392.396C156.073 392.348 141.335 390.686 127.738 387.648C120.429 386.016 113.446 383.976 106.802 381.571C46.4767 359.81 13.4476 308.059 8.73433 252.759C2.52379 180.026 52.0206 143.331 84.2755 121.719C116.53 100.106 153.308 19.7704 253.42 19.293C268.684 19.2271 283.973 20.7226 298.864 24.1478C332.858 31.952 367.834 50.7693 388.845 79.4411C390.422 81.5955 391.932 83.8037 393.384 86.057C421.723 130.151 424.958 192.076 408.986 240.475Z" fill="#92E3A9"/>
<path opacity="0.7" d="M408.986 240.475C397.273 275.976 372.039 314.884 334.905 327.55C278.797 346.693 273.784 392.71 171.95 392.396C156.073 392.348 141.335 390.686 127.738 387.648C120.429 386.016 113.446 383.976 106.802 381.571C46.4767 359.81 13.4476 308.059 8.73433 252.759C2.52379 180.026 52.0206 143.331 84.2755 121.719C116.53 100.106 153.308 19.7704 253.42 19.293C268.684 19.2271 283.973 20.7226 298.864 24.1478C332.858 31.952 367.834 50.7693 388.845 79.4411C390.422 81.5955 391.932 83.8037 393.384 86.057C421.723 130.151 424.958 192.076 408.986 240.475Z" fill="white"/>
<path d="M22.3091 397.404H409.035" stroke="#263238" stroke-miterlimit="10" stroke-linecap="round" stroke-linejoin="round"/>
<path d="M79.9582 137.857C79.9582 144.438 76.8785 150.308 72.0646 154.077C68.5622 156.845 64.1267 158.491 59.3241 158.491C54.5102 158.491 50.0747 156.845 46.5723 154.077C41.7584 150.308 38.6787 144.439 38.6787 137.857C38.6787 126.45 47.9168 117.212 59.3232 117.212C70.7201 117.211 79.9582 126.45 79.9582 137.857Z" stroke="#263238" stroke-miterlimit="10" stroke-linecap="round" stroke-linejoin="round"/>
<path d="M63.85 141.962C67.8992 139.46 69.1532 134.149 66.651 130.1C64.1488 126.051 58.8378 124.797 54.7887 127.299C50.7395 129.801 49.4855 135.112 51.9877 139.161C54.4899 143.21 59.8009 144.464 63.85 141.962Z" stroke="#263238" stroke-miterlimit="10" stroke-linecap="round" stroke-linejoin="round"/>
<path d="M72.0646 154.076C68.5622 156.844 64.1267 158.49 59.3241 158.49C54.5101 158.49 50.0746 156.844 46.5723 154.076C47.8508 148.217 53.0762 143.826 59.3241 143.826C65.5615 143.827 70.786 148.218 72.0646 154.076Z" stroke="#263238" stroke-miterlimit="10" stroke-linecap="round" stroke-linejoin="round"/>
<path d="M399.164 351.08C399.164 357.661 396.085 363.531 391.271 367.3C387.769 370.068 383.333 371.714 378.53 371.714C373.716 371.714 369.281 370.068 365.779 367.3C360.965 363.531 357.885 357.662 357.885 351.08C357.885 339.674 367.123 330.435 378.53 330.435C389.926 330.435 399.164 339.674 399.164 351.08Z" stroke="#263238" stroke-miterlimit="10" stroke-linecap="round" stroke-linejoin="round"/>
<path d="M379.917 356.341C384.615 355.576 387.804 351.148 387.039 346.45C386.274 341.752 381.845 338.563 377.147 339.328C372.45 340.093 369.261 344.522 370.026 349.22C370.791 353.918 375.219 357.106 379.917 356.341Z" stroke="#263238" stroke-miterlimit="10" stroke-linecap="round" stroke-linejoin="round"/>
<path d="M391.272 367.299C387.77 370.067 383.334 371.713 378.531 371.713C373.717 371.713 369.282 370.067 365.78 367.299C367.058 361.44 372.283 357.049 378.531 357.049C384.768 357.05 389.993 361.441 391.272 367.299Z" stroke="#263238" stroke-miterlimit="10" stroke-linecap="round" stroke-linejoin="round"/>
<path d="M32.299 182.037L31.2513 181.405L32.5646 179.561L30.6038 178.813L31.036 177.684L32.9135 178.68L32.7139 176.387H34.0601L33.844 178.68L35.738 177.684L36.1529 178.813L34.1921 179.579L35.521 181.406L34.4412 182.038L33.3779 179.961L32.299 182.037Z" fill="#263238"/>
<path d="M38.9122 182.037L37.8646 181.405L39.1779 179.561L37.217 178.813L37.6493 177.684L39.5268 178.68L39.3271 176.387H40.6734L40.4573 178.68L42.3521 177.684L42.767 178.813L40.8062 179.579L42.1351 181.406L41.0553 182.038L39.992 179.961L38.9122 182.037Z" fill="#263238"/>
<path d="M45.5255 182.037L44.4778 181.405L45.7911 179.561L43.8303 178.813L44.2626 177.684L46.1401 178.68L45.9404 176.387H47.2867L47.0706 178.68L48.9654 177.684L49.3803 178.813L47.4195 179.579L48.7484 181.406L47.6686 182.038L46.6053 179.961L45.5255 182.037Z" fill="#263238"/>
<path d="M52.1381 182.037L51.0904 181.405L52.4037 179.561L50.4429 178.813L50.8751 177.684L52.7526 178.68L52.553 176.387H53.8992L53.6831 178.68L55.5771 177.684L55.992 178.813L54.0312 179.579L55.3601 181.406L54.2803 182.038L53.217 179.961L52.1381 182.037Z" fill="#263238"/>
<path d="M58.7514 182.037L57.7037 181.405L59.017 179.561L57.0562 178.813L57.4884 177.684L59.3659 178.68L59.1663 176.387H60.5125L60.2964 178.68L62.1904 177.684L62.6053 178.813L60.6445 179.579L61.9734 181.406L60.8936 182.038L59.8303 179.961L58.7514 182.037Z" fill="#263238"/>
<path d="M65.3646 182.037L64.317 181.405L65.6302 179.561L63.6694 178.813L64.1017 177.684L65.9792 178.68L65.7795 176.387H67.1258L66.9097 178.68L68.8037 177.684L69.2186 178.813L67.2577 179.579L68.5867 181.406L67.5069 182.038L66.4436 179.961L65.3646 182.037Z" fill="#263238"/>
<path d="M71.9779 182.037L70.9302 181.405L72.2435 179.561L70.2827 178.813L70.715 177.684L72.5925 178.68L72.3928 176.387H73.7391L73.523 178.68L75.4169 177.684L75.8318 178.813L73.871 179.579L75.1999 181.406L74.1201 182.038L73.0568 179.961L71.9779 182.037Z" fill="#263238"/>
<path d="M78.5902 182.037L77.5425 181.405L78.8558 179.561L76.895 178.813L77.3273 177.684L79.2048 178.68L79.0051 176.387H80.3514L80.1353 178.68L82.0292 177.684L82.4441 178.813L80.4833 179.579L81.8122 181.406L80.7324 182.038L79.6691 179.961L78.5902 182.037Z" fill="#263238"/>
<path d="M85.2036 182.037L84.1568 181.405L85.4701 179.561L83.5093 178.813L83.9415 177.684L85.819 178.68L85.6194 176.387H86.9657L86.7495 178.68L88.6444 177.684L89.0593 178.813L87.0985 179.579L88.4274 181.406L87.3476 182.038L86.2843 179.961L85.2036 182.037Z" fill="#263238"/>
<path d="M144.26 40.5816L143.212 39.9497L144.525 38.1052L142.564 37.3579L142.997 36.2286L144.874 37.2251L144.675 34.9318H146.021L145.805 37.2251L147.699 36.2286L148.114 37.3579L146.153 38.1234L147.482 39.9506L146.402 40.5825L145.339 38.5053L144.26 40.5816Z" fill="#263238"/>
<path d="M150.873 40.5816L149.826 39.9497L151.14 38.1052L149.179 37.3579L149.611 36.2286L151.488 37.2251L151.289 34.9318H152.635L152.419 37.2251L154.313 36.2286L154.728 37.3579L152.767 38.1234L154.096 39.9506L153.016 40.5825L151.953 38.5053L150.873 40.5816Z" fill="#263238"/>
<path d="M157.485 40.5816L156.439 39.9497L157.752 38.1052L155.791 37.3579L156.223 36.2286L158.101 37.2251L157.901 34.9318H159.247L159.031 37.2251L160.926 36.2286L161.341 37.3579L159.38 38.1234L160.709 39.9506L159.629 40.5825L158.566 38.5053L157.485 40.5816Z" fill="#263238"/>
<path d="M164.099 40.5816L163.052 39.9497L164.365 38.1052L162.404 37.3579L162.837 36.2286L164.714 37.2251L164.514 34.9318H165.861L165.645 37.2251L167.539 36.2286L167.954 37.3579L165.993 38.1234L167.322 39.9506L166.243 40.5825L165.179 38.5053L164.099 40.5816Z" fill="#263238"/>
<path d="M170.711 40.5816L169.663 39.9497L170.977 38.1052L169.016 37.3579L169.448 36.2286L171.326 37.2251L171.126 34.9318H172.472L172.256 37.2251L174.151 36.2286L174.566 37.3579L172.605 38.1234L173.934 39.9506L172.854 40.5825L171.791 38.5053L170.711 40.5816Z" fill="#263238"/>
<path d="M177.325 40.5816L176.278 39.9497L177.591 38.1052L175.63 37.3579L176.062 36.2286L177.94 37.2251L177.74 34.9318H179.086L178.87 37.2251L180.765 36.2286L181.18 37.3579L179.219 38.1234L180.548 39.9506L179.468 40.5825L178.405 38.5053L177.325 40.5816Z" fill="#263238"/>
<path d="M183.938 40.5816L182.891 39.9497L184.204 38.1052L182.243 37.3579L182.676 36.2286L184.553 37.2251L184.354 34.9318H185.7L185.484 37.2251L187.378 36.2286L187.793 37.3579L185.833 38.1234L187.161 39.9506L186.082 40.5825L185.018 38.5053L183.938 40.5816Z" fill="#263238"/>
<path d="M190.551 40.5816L189.504 39.9497L190.818 38.1052L188.857 37.3579L189.289 36.2286L191.166 37.2251L190.967 34.9318H192.313L192.097 37.2251L193.991 36.2286L194.406 37.3579L192.445 38.1234L193.774 39.9506L192.694 40.5825L191.631 38.5053L190.551 40.5816Z" fill="#263238"/>
<path d="M197.163 40.5816L196.116 39.9497L197.429 38.1052L195.468 37.3579L195.901 36.2286L197.778 37.2251L197.578 34.9318H198.925L198.709 37.2251L200.602 36.2286L201.017 37.3579L199.057 38.1234L200.385 39.9506L199.306 40.5825L198.242 38.5053L197.163 40.5816Z" fill="#263238"/>
<path d="M346.528 127.359L345.481 126.728L346.795 124.883L344.834 124.136L345.266 123.007L347.143 124.003L346.944 121.71H348.29L348.074 124.003L349.968 123.007L350.383 124.136L348.422 124.902L349.751 126.729L348.671 127.36L347.608 125.283L346.528 127.359Z" fill="#263238"/>
<path d="M353.141 127.359L352.094 126.728L353.407 124.883L351.446 124.136L351.878 123.007L353.756 124.003L353.556 121.71H354.902L354.686 124.003L356.58 123.007L356.995 124.136L355.034 124.902L356.363 126.729L355.283 127.36L354.22 125.283L353.141 127.359Z" fill="#263238"/>
<path d="M359.755 127.359L358.707 126.728L360.02 124.883L358.059 124.136L358.492 123.007L360.369 124.003L360.169 121.71H361.516L361.3 124.003L363.194 123.007L363.608 124.136L361.648 124.902L362.977 126.729L361.897 127.36L360.833 125.283L359.755 127.359Z" fill="#263238"/>
<path d="M366.367 127.359L365.319 126.728L366.633 124.883L364.672 124.136L365.104 123.007L366.982 124.003L366.782 121.71H368.128L367.912 124.003L369.807 123.007L370.222 124.136L368.261 124.902L369.59 126.729L368.51 127.36L367.447 125.283L366.367 127.359Z" fill="#263238"/>
<path d="M372.98 127.359L371.933 126.728L373.246 124.883L371.285 124.136L371.717 123.007L373.595 124.003L373.395 121.71H374.742L374.525 124.003L376.419 123.007L376.834 124.136L374.873 124.902L376.202 126.729L375.123 127.36L374.059 125.283L372.98 127.359Z" fill="#263238"/>
<path d="M379.594 127.359L378.546 126.728L379.859 124.883L377.898 124.136L378.331 123.007L380.208 124.003L380.009 121.71H381.355L381.139 124.003L383.033 123.007L383.448 124.136L381.487 124.902L382.816 126.729L381.736 127.36L380.673 125.283L379.594 127.359Z" fill="#263238"/>
<path d="M386.206 127.359L385.159 126.728L386.473 124.883L384.512 124.136L384.944 123.007L386.821 124.003L386.622 121.71H387.968L387.752 124.003L389.646 123.007L390.061 124.136L388.1 124.902L389.429 126.729L388.349 127.36L387.286 125.283L386.206 127.359Z" fill="#263238"/>
<path d="M392.819 127.359L391.772 126.728L393.085 124.883L391.124 124.136L391.557 123.007L393.434 124.003L393.234 121.71H394.581L394.365 124.003L396.258 123.007L396.673 124.136L394.713 124.902L396.041 126.729L394.962 127.36L393.898 125.283L392.819 127.359Z" fill="#263238"/>
<path d="M399.432 127.359L398.385 126.728L399.698 124.883L397.738 124.136L398.17 123.007L400.047 124.003L399.848 121.71H401.194L400.978 124.003L402.873 123.007L403.288 124.136L401.327 124.902L402.656 126.729L401.576 127.36L400.513 125.283L399.432 127.359Z" fill="#263238"/>
<path d="M390.739 74.2982H356.743V107.551H390.739V74.2982Z" stroke="#263238" stroke-miterlimit="10" stroke-linecap="round" stroke-linejoin="round"/>
<path d="M362.983 74.3112V66.658C362.983 60.7261 367.809 55.9001 373.741 55.9001C379.673 55.9001 384.499 60.7261 384.499 66.658V74.3112H389.446V66.658C389.446 57.998 382.401 50.9525 373.741 50.9525C365.081 50.9525 358.036 57.998 358.036 66.658V74.3112H362.983Z" stroke="#263238" stroke-miterlimit="10"/>
<path d="M377.651 87.1915C377.651 85.0319 375.9 83.2811 373.741 83.2811C371.581 83.2811 369.83 85.0319 369.83 87.1915C369.83 88.8485 370.864 90.2564 372.319 90.8258V98.5683H375.163V90.8258C376.617 90.2564 377.651 88.8485 377.651 87.1915Z" stroke="#263238" stroke-miterlimit="10" stroke-linecap="round" stroke-linejoin="round"/>
<path d="M75.567 348.575H41.5718V381.828H75.567V348.575Z" stroke="#263238" stroke-miterlimit="10" stroke-linecap="round" stroke-linejoin="round"/>
<path d="M47.811 348.588V340.935C47.811 335.003 52.6371 330.177 58.569 330.177C64.5009 330.177 69.327 335.003 69.327 340.935V348.588H74.2746V340.935C74.2746 332.275 67.229 325.229 58.5698 325.229C49.9089 325.229 42.8643 332.275 42.8643 340.935V348.588H47.811Z" stroke="#263238" stroke-miterlimit="10"/>
<path d="M62.4801 361.468C62.4801 359.309 60.7293 357.558 58.5698 357.558C56.4102 357.558 54.6594 359.309 54.6594 361.468C54.6594 363.125 55.6932 364.533 57.148 365.103V372.844H59.9924V365.103C61.4463 364.533 62.4801 363.125 62.4801 361.468Z" stroke="#263238" stroke-miterlimit="10" stroke-linecap="round" stroke-linejoin="round"/>
<path d="M30.359 305.757C33.4205 304.089 38.0721 297.807 38.0756 297.803C38.1233 297.738 33.0038 295.994 32.6688 295.92C28.7845 295.076 20.7815 295.728 18.5473 299.579C16.938 302.353 18.3676 305.699 21.1713 306.967C24.0357 308.263 27.7516 307.178 30.359 305.757Z" fill="#919191"/>
<path d="M49.8942 317.504C52.3072 315.182 54.9859 308.433 55.1959 307.894C58.9552 309.418 62.9359 310.676 67.0346 311.728C69.3773 312.332 71.7556 312.867 74.147 313.374C73.0212 313.305 72.0134 313.252 71.8719 313.259C67.9017 313.471 60.3562 316.214 59.2191 320.518C58.3988 323.619 60.6609 326.468 63.7006 326.951C66.8037 327.444 70.103 325.416 72.2417 323.358C74.4134 321.269 76.8117 315.561 77.4263 314.041C78.3455 314.226 79.2612 314.42 80.1813 314.601C84.596 315.472 89.0054 316.32 93.3046 317.285C94.8201 317.625 96.3001 318.015 97.7817 318.4C96.7809 318.34 95.9381 318.297 95.8088 318.304C91.8394 318.516 84.293 321.259 83.1559 325.562C82.3357 328.664 84.5986 331.513 87.6374 331.996C90.7423 332.488 94.0398 330.461 96.1785 328.402C98.2513 326.409 100.512 321.159 101.251 319.358C102.757 319.798 104.266 320.236 105.706 320.729C106.681 321.089 107.645 321.367 108.604 321.783C109.563 322.175 110.511 322.563 111.451 322.946C113.233 323.752 115.078 324.572 116.797 325.402C117.997 325.97 119.13 326.534 120.273 327.098C118.769 326.742 115.809 326.108 115.556 326.083C111.6 325.69 103.727 327.259 101.949 331.341C100.67 334.282 102.473 337.441 105.405 338.378C108.398 339.335 111.965 337.831 114.392 336.12C117.063 334.236 120.617 328.232 121.056 327.479C122.944 328.419 124.772 329.352 126.482 330.259C130.263 332.254 133.588 334.125 136.372 335.748L138.161 333.442C135.239 331.818 131.721 329.929 127.689 327.915C125.776 326.952 123.711 325.962 121.582 324.965C121.738 324.427 122.605 321.363 123.054 318.401C126.4 318.113 132.26 315.271 133.014 314.899C134.071 316.724 135.081 318.511 136.006 320.211C137.952 323.765 139.615 326.996 140.999 329.784L142.934 327.292C141.607 324.788 140.066 321.973 138.308 318.921C137.243 317.062 136.067 315.097 134.842 313.091C135.494 312.537 140.794 307.977 142.182 305.013C143.439 302.324 144.296 298.548 142.829 295.768C141.394 293.046 137.966 291.825 135.294 293.601C131.587 296.065 131.424 304.092 132.504 307.919C132.568 308.144 133.532 310.516 134.166 312.002C133.661 311.185 133.179 310.386 132.648 309.551C131.612 307.893 130.527 306.269 129.367 304.519C128.778 303.692 128.182 302.858 127.58 302.015C127 301.167 126.282 300.344 125.63 299.498C124.078 297.567 122.411 295.687 120.691 293.828C122.14 292.916 127.24 289.604 128.899 287.125C130.55 284.657 131.969 281.056 130.938 278.085C129.932 275.178 126.729 273.45 123.819 274.8C119.781 276.675 118.404 284.586 118.892 288.531C118.922 288.777 119.591 291.568 119.988 293.094C118.944 291.986 117.909 290.874 116.817 289.787C113.666 286.647 110.378 283.569 107.113 280.482C106.111 279.537 105.126 278.584 104.135 277.632C104.655 277.313 110.801 273.508 112.659 270.731C114.311 268.264 115.729 264.661 114.7 261.692C113.693 258.785 110.489 257.056 107.581 258.408C103.543 260.283 102.166 268.192 102.654 272.138C102.69 272.435 103.658 276.451 103.954 277.46C101.773 275.364 99.6193 273.258 97.5804 271.093C94.7628 268.111 92.1632 265.029 89.8656 261.857C90.1077 261.71 96.5405 257.766 98.444 254.923C100.096 252.455 101.514 248.852 100.485 245.883C99.4778 242.975 96.2749 241.248 93.3653 242.599C89.3274 244.474 87.9508 252.383 88.4386 256.329C88.4776 256.638 89.5201 260.958 89.7649 261.728C89.6295 261.539 89.4672 261.358 89.3335 261.168C86.9231 257.751 85.0178 254.138 83.3998 250.668C82.4555 248.653 81.6656 246.675 80.9399 244.733C82.2142 244.122 88.0029 241.262 89.9984 238.893C91.9115 236.621 93.7169 233.196 93.0199 230.133C92.3376 227.132 89.3439 225.064 86.3042 226.086C82.084 227.507 79.8471 235.218 79.8992 239.192C79.9018 239.408 80.1744 241.603 80.3948 243.198C80.0806 242.316 79.7395 241.413 79.4565 240.563C78.3828 237.372 77.5955 234.384 76.9202 231.732C76.5487 230.22 76.2414 228.847 75.9689 227.558C76.9055 226.307 80.6162 221.212 81.2837 218.245C81.9338 215.348 81.959 211.476 79.9278 209.078C77.9393 206.729 74.3284 206.272 72.1028 208.581C69.0119 211.785 70.5795 219.66 72.457 223.165C72.6202 223.467 75.7016 227.912 75.751 227.847C75.751 227.847 75.797 227.787 75.8083 227.772C76.0453 229.017 76.3152 230.349 76.639 231.799C77.2579 234.471 77.9818 237.484 78.9904 240.709C79.9903 243.937 81.1674 247.415 82.7367 250.966C84.306 254.528 86.1393 258.194 88.5158 261.727C88.5419 261.767 88.5757 261.805 88.6026 261.845C87.5862 261.028 84.6689 258.836 84.4258 258.693C80.9981 256.681 73.1913 254.804 69.8669 257.766C67.4729 259.901 67.7871 263.526 70.0561 265.605C72.3736 267.727 76.2423 267.855 79.1631 267.318C82.4563 266.713 88.4134 262.56 88.8865 262.229C91.1806 265.573 93.8072 268.819 96.6447 271.957C98.2661 273.753 99.9543 275.512 101.67 277.254C100.768 276.575 99.9569 275.975 99.8346 275.903C96.406 273.89 88.6009 272.014 85.2765 274.976C82.8816 277.111 83.1967 280.735 85.4657 282.814C87.7824 284.937 91.6519 285.066 94.5719 284.529C97.5352 283.984 102.685 280.546 104.036 279.618C104.701 280.28 105.358 280.947 106.025 281.606C109.227 284.767 112.437 287.907 115.49 291.084C116.567 292.203 117.585 293.344 118.609 294.483C117.808 293.881 117.128 293.381 117.017 293.315C113.588 291.303 105.782 289.427 102.459 292.388C100.065 294.524 100.378 298.148 102.648 300.227C104.964 302.35 108.834 302.478 111.755 301.941C114.582 301.422 119.365 298.291 120.975 297.195C121.988 298.392 123.005 299.59 123.933 300.797C124.547 301.635 125.198 302.399 125.769 303.275C126.351 304.129 126.93 304.977 127.502 305.815C128.544 307.471 129.63 309.172 130.606 310.812C131.293 311.948 131.927 313.043 132.569 314.144C131.51 313.018 129.392 310.857 129.195 310.696C127.145 309.029 123.179 307.137 119.651 306.762C119.35 306.514 119.03 306.294 118.686 306.105C115.986 304.628 112.454 305.5 111.205 308.455C109.473 312.556 113.766 319.342 116.777 321.936C116.955 322.089 119.068 323.535 120.416 324.425C119.543 324.023 118.701 323.622 117.799 323.219C116.019 322.409 114.219 321.653 112.285 320.831C111.337 320.467 110.381 320.101 109.413 319.73C108.462 319.342 107.409 319.053 106.398 318.707C104.039 317.954 101.61 317.303 99.1506 316.704C99.8563 315.143 102.282 309.567 102.298 306.585C102.314 303.615 101.51 299.828 99.0134 297.92C96.5691 296.05 92.9452 296.376 91.2639 299.108C88.9299 302.899 92.1449 310.256 94.7281 313.278C94.8896 313.466 96.9866 315.426 98.1602 316.48C96.6785 316.131 95.2012 315.775 93.6908 315.47C89.3309 314.59 84.8902 313.835 80.4634 313.062C79.1067 312.826 77.7587 312.575 76.4081 312.329C76.665 311.776 79.6917 305.21 79.7108 301.87C79.7273 298.9 78.9227 295.114 76.4263 293.204C73.982 291.336 70.3581 291.661 68.6768 294.393C66.3428 298.184 69.5579 305.541 72.141 308.563C72.3363 308.79 75.3578 311.606 76.1616 312.284C73.1878 311.74 70.2279 311.17 67.3332 310.491C63.3378 309.557 59.47 308.421 55.8044 307.044C55.925 306.786 59.1141 299.948 59.1332 296.526C59.1497 293.557 58.345 289.771 55.8487 287.862C53.4044 285.992 49.7805 286.318 48.0992 289.05C45.7651 292.841 48.981 300.199 51.5642 303.219C51.7673 303.457 55.0206 306.484 55.649 306.99C55.4312 306.908 55.1968 306.847 54.9807 306.762C51.0851 305.241 47.5028 303.278 44.2383 301.277C42.34 300.118 40.5901 298.903 38.9131 297.684C39.6379 296.471 42.8886 290.892 43.2462 287.815C43.5882 284.865 43.2045 281.013 40.9329 278.842C38.7083 276.716 35.0705 276.641 33.0992 279.171C30.3624 282.683 32.7512 290.349 34.9871 293.636C35.1087 293.815 36.5452 295.495 37.6102 296.704C36.862 296.142 36.0791 295.576 35.3734 295.024C32.7182 292.954 30.4128 290.897 28.3869 289.058C27.2429 288.002 26.2299 287.026 25.2925 286.101C25.3819 284.541 25.6674 278.245 24.5868 275.402C23.5313 272.626 21.416 269.385 18.3988 268.504C15.445 267.641 12.1822 269.253 11.5989 272.405C10.789 276.783 16.4415 282.486 19.9395 284.374C20.2424 284.536 25.2638 286.543 25.2708 286.463C25.2708 286.463 25.2751 286.386 25.276 286.369C26.1613 287.276 27.1213 288.238 28.1907 289.268C30.181 291.155 32.4465 293.269 35.0679 295.404C37.6823 297.543 40.5823 299.795 43.8512 301.891C47.1253 303.995 50.6763 306.044 54.6083 307.679C54.6526 307.697 54.702 307.711 54.7463 307.729C53.4469 307.608 49.8048 307.391 49.5235 307.407C45.5542 307.617 38.0078 310.36 36.8698 314.664C36.0504 317.765 38.3125 320.615 41.3522 321.097C44.4579 321.59 47.7546 319.562 49.8942 317.504Z" fill="#919191"/>
<path d="M80.1753 244.369C80.2517 244.341 76.9437 240.062 76.7042 239.816C73.9292 236.969 66.8949 233.099 62.9064 235.079C60.0342 236.504 59.3798 240.084 61.0203 242.688C62.6947 245.348 66.3923 246.494 69.3505 246.746C72.8251 247.045 80.1692 244.372 80.1753 244.369Z" fill="#919191"/>
<path d="M395.529 305.757C392.468 304.089 387.816 297.807 387.813 297.803C387.765 297.738 392.884 295.994 393.22 295.92C397.104 295.076 405.107 295.728 407.341 299.579C408.949 302.353 407.521 305.699 404.717 306.967C401.853 308.263 398.138 307.178 395.529 305.757Z" fill="#919191"/>
<path d="M375.994 317.504C373.581 315.182 370.902 308.433 370.691 307.894C366.932 309.418 362.951 310.676 358.853 311.728C356.51 312.332 354.132 312.867 351.74 313.374C352.866 313.305 353.874 313.252 354.015 313.259C357.986 313.471 365.531 316.214 366.668 320.518C367.489 323.619 365.227 326.468 362.187 326.951C359.084 327.444 355.784 325.416 353.646 323.358C351.474 321.269 349.076 315.561 348.461 314.041C347.542 314.226 346.626 314.42 345.706 314.601C341.291 315.472 336.882 316.32 332.583 317.285C331.067 317.625 329.587 318.015 328.106 318.4C329.106 318.34 329.949 318.297 330.079 318.304C334.048 318.516 341.594 321.259 342.731 325.562C343.551 328.664 341.289 331.513 338.25 331.996C335.145 332.488 331.848 330.461 329.709 328.402C327.636 326.409 325.376 321.159 324.636 319.358C323.13 319.798 321.622 320.236 320.182 320.729C319.206 321.089 318.243 321.367 317.283 321.783C316.325 322.175 315.376 322.563 314.436 322.946C312.654 323.752 310.81 324.572 309.091 325.402C307.891 325.97 306.758 326.534 305.615 327.098C307.119 326.742 310.079 326.108 310.332 326.083C314.288 325.69 322.162 327.259 323.939 331.341C325.219 334.282 323.415 337.441 320.483 338.378C317.49 339.335 313.923 337.831 311.496 336.12C308.825 334.236 305.271 328.232 304.832 327.479C302.944 328.419 301.116 329.352 299.406 330.259C295.625 332.254 292.301 334.125 289.516 335.748L287.727 333.442C290.65 331.818 294.168 329.929 298.2 327.915C300.113 326.952 302.177 325.962 304.306 324.965C304.151 324.427 303.283 321.363 302.835 318.401C299.489 318.113 293.628 315.271 292.874 314.899C291.817 316.724 290.809 318.511 289.882 320.211C287.936 323.765 286.273 326.996 284.889 329.784L282.954 327.292C284.281 324.788 285.822 321.973 287.58 318.921C288.645 317.062 289.821 315.097 291.045 313.091C290.394 312.537 285.094 307.977 283.705 305.013C282.447 302.324 281.59 298.548 283.057 295.768C284.493 293.046 287.921 291.825 290.592 293.601C294.3 296.065 294.462 304.092 293.382 307.919C293.319 308.144 292.354 310.516 291.721 312.002C292.226 311.185 292.708 310.386 293.238 309.551C294.274 307.893 295.359 306.269 296.519 304.519C297.108 303.692 297.705 302.858 298.306 302.015C298.886 301.167 299.605 300.344 300.257 299.498C301.809 297.567 303.475 295.687 305.196 293.828C303.747 292.916 298.647 289.604 296.988 287.125C295.336 284.657 293.919 281.056 294.948 278.085C295.955 275.178 299.159 273.45 302.067 274.8C306.105 276.675 307.482 284.586 306.994 288.531C306.965 288.777 306.295 291.568 305.899 293.094C306.942 291.986 307.978 290.874 309.07 289.787C312.22 286.647 315.508 283.569 318.774 280.482C319.775 279.537 320.761 278.584 321.752 277.632C321.232 277.313 315.086 273.508 313.227 270.731C311.575 268.264 310.157 264.661 311.187 261.692C312.193 258.785 315.397 257.056 318.306 258.408C322.344 260.283 323.72 268.192 323.233 272.138C323.196 272.435 322.228 276.451 321.932 277.46C324.114 275.364 326.267 273.258 328.306 271.093C331.124 268.111 333.723 265.029 336.021 261.857C335.779 261.71 329.346 257.766 327.442 254.923C325.791 252.455 324.372 248.852 325.402 245.883C326.409 242.975 329.612 241.248 332.521 242.599C336.559 244.474 337.936 252.383 337.448 256.329C337.41 256.638 336.366 260.958 336.122 261.728C336.257 261.539 336.419 261.358 336.553 261.168C338.963 257.751 340.868 254.138 342.487 250.668C343.431 248.653 344.221 246.675 344.947 244.733C343.672 244.122 337.884 241.262 335.888 238.893C333.975 236.621 332.17 233.196 332.867 230.133C333.549 227.132 336.543 225.064 339.583 226.086C343.803 227.507 346.04 235.218 345.988 239.192C345.986 239.408 345.713 241.603 345.493 243.198C345.807 242.316 346.148 241.413 346.431 240.563C347.505 237.372 348.292 234.384 348.967 231.732C349.339 230.22 349.646 228.847 349.918 227.558C348.982 226.307 345.271 221.212 344.604 218.245C343.954 215.348 343.929 211.476 345.96 209.078C347.948 206.729 351.559 206.272 353.785 208.581C356.875 211.785 355.308 219.66 353.43 223.165C353.267 223.467 350.186 227.912 350.136 227.847C350.136 227.847 350.09 227.787 350.079 227.772C349.842 229.017 349.572 230.349 349.248 231.799C348.629 234.471 347.906 237.484 346.897 240.709C345.897 243.937 344.721 247.415 343.151 250.966C341.581 254.528 339.748 258.194 337.372 261.727C337.345 261.767 337.312 261.805 337.285 261.845C338.301 261.028 341.219 258.836 341.462 258.693C344.889 256.681 352.696 254.804 356.02 257.766C358.414 259.901 358.1 263.526 355.831 265.605C353.514 267.727 349.645 267.855 346.724 267.318C343.431 266.713 337.474 262.56 337.001 262.229C334.707 265.573 332.08 268.819 329.243 271.957C327.621 273.753 325.933 275.512 324.218 277.254C325.12 276.575 325.93 275.975 326.053 275.903C329.481 273.89 337.286 272.014 340.611 274.976C343.006 277.111 342.691 280.735 340.422 282.814C338.105 284.937 334.235 285.066 331.316 284.529C328.352 283.984 323.202 280.546 321.852 279.618C321.187 280.28 320.53 280.947 319.862 281.606C316.66 284.767 313.45 287.907 310.398 291.084C309.32 292.203 308.301 293.344 307.279 294.483C308.079 293.881 308.76 293.381 308.871 293.315C312.299 291.303 320.105 289.427 323.429 292.388C325.823 294.524 325.509 298.148 323.24 300.227C320.924 302.35 317.053 302.478 314.133 301.941C311.305 301.422 306.523 298.291 304.913 297.195C303.9 298.392 302.882 299.59 301.955 300.797C301.34 301.635 300.69 302.399 300.119 303.275C299.535 304.129 298.957 304.977 298.385 305.815C297.344 307.471 296.258 309.172 295.281 310.812C294.594 311.948 293.96 313.043 293.318 314.144C294.377 313.018 296.495 310.857 296.693 310.696C298.742 309.029 302.708 307.137 306.236 306.762C306.538 306.514 306.858 306.294 307.202 306.105C309.901 304.628 313.434 305.5 314.682 308.455C316.415 312.556 312.121 319.342 309.11 321.936C308.932 322.089 306.82 323.535 305.472 324.425C306.344 324.023 307.186 323.622 308.089 323.219C309.868 322.409 311.668 321.653 313.602 320.831C314.55 320.467 315.507 320.101 316.474 319.73C317.425 319.342 318.479 319.053 319.489 318.707C321.848 317.954 324.277 317.303 326.737 316.704C326.031 315.143 323.605 309.567 323.589 306.585C323.573 303.615 324.378 299.828 326.874 297.92C329.318 296.05 332.942 296.376 334.623 299.108C336.957 302.899 333.742 310.256 331.159 313.278C330.998 313.466 328.901 315.426 327.727 316.48C329.209 316.131 330.686 315.775 332.197 315.47C336.556 314.59 340.997 313.835 345.424 313.062C346.781 312.826 348.129 312.575 349.479 312.329C349.222 311.776 346.196 305.21 346.177 301.87C346.16 298.9 346.965 295.114 349.461 293.204C351.905 291.336 355.529 291.661 357.211 294.393C359.545 298.184 356.33 305.541 353.746 308.563C353.552 308.79 350.53 311.606 349.727 312.284C352.7 311.74 355.66 311.17 358.555 310.491C362.55 309.557 366.418 308.421 370.084 307.044C369.963 306.786 366.774 299.948 366.755 296.526C366.739 293.557 367.543 289.771 370.04 287.862C372.484 285.992 376.108 286.318 377.789 289.05C380.123 292.841 376.907 300.199 374.324 303.219C374.121 303.457 370.868 306.484 370.239 306.99C370.457 306.908 370.691 306.847 370.908 306.762C374.803 305.241 378.385 303.278 381.65 301.277C383.548 300.118 385.298 298.903 386.974 297.684C386.249 296.471 382.998 290.892 382.641 287.815C382.299 284.865 382.682 281.013 384.954 278.842C387.179 276.716 390.817 276.641 392.788 279.171C395.525 282.683 393.136 290.349 390.9 293.636C390.779 293.815 389.342 295.495 388.277 296.704C389.025 296.142 389.808 295.576 390.514 295.024C393.169 292.954 395.475 290.897 397.501 289.058C398.645 288.002 399.657 287.026 400.595 286.101C400.506 284.541 400.22 278.245 401.301 275.402C402.356 272.626 404.471 269.385 407.489 268.504C410.442 267.641 413.705 269.253 414.288 272.405C415.098 276.783 409.447 282.486 405.948 284.374C405.645 284.536 400.624 286.543 400.617 286.463C400.617 286.463 400.612 286.386 400.611 286.369C399.726 287.276 398.766 288.238 397.697 289.268C395.706 291.155 393.441 293.269 390.819 295.404C388.205 297.543 385.305 299.795 382.036 301.891C378.762 303.995 375.211 306.044 371.279 307.679C371.235 307.697 371.185 307.711 371.141 307.729C372.44 307.608 376.083 307.391 376.364 307.407C380.333 307.617 387.88 310.36 389.018 314.664C389.836 317.765 387.574 320.615 384.535 321.097C381.43 321.59 378.134 319.562 375.994 317.504Z" fill="#919191"/>
<path d="M345.713 244.369C345.637 244.341 348.945 240.062 349.184 239.816C351.959 236.969 358.993 233.099 362.982 235.079C365.854 236.504 366.509 240.084 364.868 242.688C363.195 245.348 359.496 246.494 356.538 246.746C353.064 247.045 345.719 244.372 345.713 244.369Z" fill="#919191"/>
<path d="M255.844 54.4566C253.065 56.5632 245.429 58.2254 245.423 58.2272C245.344 58.2445 245.855 52.8603 245.926 52.5244C246.751 48.6358 250.631 41.6067 255.06 41.1501C258.25 40.822 260.715 43.4989 260.72 46.576C260.725 49.719 258.209 52.6616 255.844 54.4566Z" fill="#919191"/>
<path d="M258.534 77.0914C255.425 78.3387 248.172 78.0098 247.594 77.9811C247.44 82.0347 246.954 86.1811 246.23 90.3501C245.819 92.7345 245.331 95.1224 244.811 97.5111C245.21 96.4565 245.575 95.5156 245.64 95.3889C247.464 91.8561 253.063 86.1013 257.454 86.8312C260.619 87.3564 262.288 90.5897 261.48 93.5591C260.655 96.591 257.451 98.7662 254.696 99.8721C251.9 100.994 245.711 100.837 244.072 100.775C243.863 101.69 243.665 102.604 243.451 103.518C242.432 107.9 241.396 112.269 240.511 116.585C240.199 118.106 239.947 119.616 239.689 121.126C240.044 120.188 240.352 119.403 240.412 119.287C242.234 115.755 247.833 110 252.225 110.73C255.389 111.256 257.059 114.488 256.251 117.458C255.425 120.491 252.222 122.665 249.467 123.771C246.798 124.842 241.083 124.749 239.137 124.683C238.92 126.237 238.7 127.792 238.559 129.308C238.487 130.345 238.344 131.338 238.331 132.383C238.295 133.418 238.259 134.442 238.223 135.457C238.225 137.412 238.216 139.431 238.267 141.339C238.292 142.667 238.341 143.931 238.386 145.205C238.679 143.687 239.316 140.728 239.398 140.487C240.663 136.719 245.326 130.184 249.778 130.238C252.985 130.279 255.126 133.222 254.776 136.279C254.42 139.401 251.584 142.035 249.028 143.546C246.213 145.208 239.28 145.984 238.413 146.075C238.495 148.182 238.596 150.232 238.721 152.164C238.987 156.43 239.328 160.23 239.664 163.435L236.828 164.12C236.546 160.788 236.269 156.804 236.087 152.301C235.995 150.161 235.939 147.872 235.905 145.522C235.35 145.443 232.2 144.975 229.315 144.168C227.68 147.101 222.682 151.279 222.033 151.813C223.264 153.527 224.479 155.18 225.65 156.723C228.09 159.956 230.355 162.799 232.329 165.206L229.261 165.947C227.524 163.708 225.59 161.148 223.528 158.291C222.27 156.557 220.961 154.678 219.636 152.738C218.863 153.105 212.529 156.065 209.256 156.114C206.287 156.158 202.493 155.388 200.56 152.909C198.669 150.483 198.962 146.855 201.678 145.149C205.447 142.78 212.833 145.927 215.878 148.484C216.058 148.634 217.825 150.488 218.919 151.675C218.382 150.879 217.851 150.112 217.308 149.286C216.221 147.66 215.187 146.005 214.067 144.228C213.556 143.351 213.04 142.465 212.518 141.571C211.983 140.694 211.528 139.701 211.024 138.759C209.9 136.551 208.869 134.26 207.882 131.928C206.455 132.874 201.342 136.165 198.4 136.66C195.472 137.153 191.606 136.967 189.32 134.809C187.083 132.697 186.822 129.067 189.248 126.968C192.616 124.056 200.394 126.048 203.792 128.113C204.003 128.242 206.274 129.998 207.503 130.986C206.921 129.579 206.332 128.178 205.789 126.737C204.22 122.575 202.762 118.313 201.288 114.067C200.838 112.766 200.372 111.476 199.912 110.182C199.408 110.525 193.415 114.567 190.12 115.121C187.192 115.615 183.325 115.428 181.04 113.271C178.802 111.159 178.542 107.529 180.968 105.431C184.335 102.519 192.113 104.511 195.51 106.576C195.765 106.731 199.03 109.262 199.829 109.946C198.814 107.097 197.777 104.268 196.641 101.52C195.079 97.7272 193.336 94.0912 191.388 90.6938C191.153 90.8536 184.916 95.1007 181.542 95.6692C178.613 96.1622 174.747 95.9756 172.461 93.8186C170.223 91.7068 169.964 88.0768 172.39 85.9789C175.758 83.0667 183.535 85.0588 186.932 87.1238C187.199 87.2861 190.709 90.0107 191.311 90.5498C191.194 90.3484 191.095 90.1262 190.977 89.9265C188.851 86.3261 186.339 83.1049 183.839 80.2049C182.389 78.5167 180.909 76.9846 179.437 75.5255C178.356 76.4361 173.372 80.5408 170.392 81.3871C167.535 82.1987 163.671 82.4392 161.163 80.5452C158.707 78.6911 158.05 75.1124 160.23 72.7601C163.258 69.4955 171.207 70.6213 174.811 72.3001C175.007 72.3912 176.896 73.5404 178.259 74.3963C177.585 73.7479 176.901 73.0665 176.242 72.4589C173.773 70.1691 171.372 68.2257 169.231 66.5209C168.007 65.5618 166.88 64.7181 165.817 63.9403C164.291 64.2806 158.123 65.5731 155.142 64.9629C152.234 64.3657 148.693 62.7989 147.339 59.9632C146.015 57.1856 147.081 53.7058 150.1 52.6242C154.29 51.1217 160.827 55.7838 163.252 58.9346C163.461 59.2071 166.248 63.8423 166.169 63.8605C166.169 63.8605 166.095 63.8778 166.077 63.8813C167.115 64.6087 168.218 65.4021 169.407 66.2918C171.59 67.9531 174.04 69.8497 176.568 72.0943C179.1 74.3312 181.788 76.8319 184.381 79.7215C186.985 82.6154 189.575 85.7914 191.822 89.4101C191.848 89.45 191.869 89.4969 191.894 89.5377C191.566 88.2756 190.765 84.7151 190.735 84.4356C190.306 80.4836 191.801 72.5943 195.868 70.7802C198.796 69.4738 201.972 71.2489 202.937 74.1715C203.921 77.1565 202.45 80.7361 200.761 83.1796C198.857 85.9337 192.626 89.6609 192.129 89.9569C194.237 93.422 196.118 97.1492 197.815 101.026C198.787 103.242 199.696 105.503 200.581 107.782C200.332 106.682 200.117 105.695 200.103 105.554C199.675 101.601 201.169 93.7136 205.235 91.8995C208.165 90.5923 211.341 92.3682 212.304 95.2899C213.289 98.2741 211.817 101.855 210.129 104.297C208.415 106.775 203.167 110.06 201.766 110.91C202.095 111.788 202.435 112.662 202.761 113.54C204.329 117.758 205.875 121.974 207.518 126.062C208.096 127.504 208.718 128.901 209.336 130.302C209.117 129.324 208.94 128.499 208.926 128.371C208.498 124.418 209.992 116.531 214.057 114.717C216.987 113.41 220.164 115.184 221.128 118.108C222.112 121.091 220.64 124.673 218.951 127.115C217.318 129.48 212.498 132.556 210.839 133.574C211.514 134.99 212.189 136.408 212.908 137.75C213.42 138.654 213.85 139.561 214.414 140.441C214.954 141.323 215.489 142.198 216.018 143.064C217.101 144.694 218.206 146.382 219.3 147.945C220.054 149.039 220.792 150.067 221.532 151.103C220.94 149.675 219.838 146.856 219.773 146.61C219.094 144.058 218.998 139.665 220.105 136.292C220.002 135.916 219.933 135.533 219.902 135.143C219.664 132.075 221.908 129.211 225.115 129.287C229.565 129.39 233.99 136.091 235.119 139.902C235.186 140.126 235.637 142.646 235.895 144.242C235.887 143.281 235.867 142.349 235.869 141.36C235.862 139.404 235.911 137.453 235.956 135.352C236.013 134.339 236.072 133.316 236.131 132.281C236.168 131.255 236.337 130.177 236.435 129.112C236.717 126.652 237.121 124.171 237.584 121.681C235.871 121.684 229.791 121.607 227.064 120.397C224.35 119.193 221.228 116.904 220.512 113.845C219.811 110.849 221.595 107.678 224.777 107.267C229.192 106.695 234.581 112.647 236.276 116.243C236.381 116.468 237.307 119.185 237.787 120.688C238.077 119.194 238.359 117.7 238.702 116.197C239.689 111.86 240.824 107.501 241.937 103.148C242.279 101.815 242.602 100.482 242.933 99.149C242.323 99.156 235.093 99.2211 232.04 97.8661C229.326 96.6622 226.203 94.3733 225.487 91.3136C224.787 88.3181 226.571 85.1465 229.753 84.7359C234.168 84.1639 239.556 90.1158 241.251 93.7127C241.379 93.9836 242.705 97.8956 242.994 98.906C243.72 95.9704 244.415 93.0383 244.983 90.1192C245.772 86.0934 246.325 82.0998 246.574 78.1912C246.29 78.1955 238.745 78.2962 235.618 76.9083C232.903 75.7043 229.781 73.4163 229.065 70.3557C228.364 67.3594 230.149 64.1895 233.33 63.7772C237.745 63.2051 243.134 69.1579 244.828 72.754C244.962 73.037 246.386 77.2459 246.589 78.0262C246.604 77.7945 246.645 77.5549 246.656 77.3232C246.868 73.1464 246.549 69.0746 246.065 65.2762C245.788 63.0689 245.398 60.9753 244.975 58.9459C243.571 59.1091 237.149 59.7826 234.197 58.8452C231.366 57.9459 228.011 56.0146 226.964 53.0522C225.939 50.1513 227.365 46.8026 230.48 46.0448C234.806 44.9919 240.815 50.3171 242.894 53.7049C243.008 53.8889 243.95 55.8896 244.614 57.3566C244.41 56.4434 244.214 55.4973 244 54.6267C243.204 51.3561 242.273 48.4092 241.429 45.8061C240.936 44.3296 240.461 43.0042 240.004 41.7699C238.544 41.2109 232.686 38.8864 230.536 36.7329C228.438 34.6306 226.352 31.3712 226.787 28.2586C227.214 25.2111 230.023 22.8978 233.137 23.6599C237.461 24.7189 240.341 32.2141 240.626 36.1791C240.649 36.522 240.418 41.9244 240.341 41.8975C240.341 41.8975 240.27 41.8697 240.254 41.8636C240.717 43.0432 241.201 44.314 241.701 45.7115C242.604 48.3007 243.602 51.2354 244.472 54.5017C245.35 57.7637 246.212 61.3329 246.781 65.1746C247.356 69.0242 247.765 73.1021 247.642 77.3596C247.64 77.4074 247.632 77.4577 247.631 77.5054C248.053 76.2712 249.351 72.8608 249.48 72.6099C251.303 69.0772 256.902 63.3223 261.293 64.0514C264.457 64.5783 266.127 67.8108 265.319 70.7802C264.492 73.8121 261.289 75.9856 258.534 77.0914Z" fill="#919191"/>
<path d="M179.416 74.6766C179.359 74.7348 176.815 69.9616 176.689 69.6431C175.233 65.9445 174.591 57.9407 178.034 55.1171C180.513 53.0834 184.045 53.9566 185.747 56.5215C187.484 59.1403 187.011 62.9821 186.027 65.7831C184.873 69.072 179.419 74.6714 179.416 74.6766Z" fill="#919191"/>
<path d="M320.337 106.333V95.1128H312.92L107.277 300.756V319.393L320.337 106.333Z" fill="white"/>
<path d="M107.277 153.49V226.551L238.714 95.1128H165.653L107.277 153.49Z" fill="white"/>
<path d="M288.62 377.149L320.337 345.434V272.372L215.56 377.149H288.62Z" fill="white"/>
<path d="M326.774 397.404H100.839C95.9441 397.404 91.9756 393.436 91.9756 388.541V83.7221C91.9756 78.8274 95.9441 74.8589 100.839 74.8589H326.774C331.669 74.8589 335.637 78.8274 335.637 83.7221V388.541C335.637 393.436 331.669 397.404 326.774 397.404Z" fill="#263238"/>
<path d="M320.337 95.1128H107.277V377.149H320.337V95.1128Z" fill="#92E3A9"/>
<path opacity="0.2" d="M91.9756 124.305V214.547L231.664 74.8589H141.422L91.9756 124.305Z" fill="white"/>
<path opacity="0.2" d="M335.637 85.5605V82.7326C335.637 78.3839 332.112 74.8589 327.763 74.8589H323.318L91.9756 306.203V329.222L335.637 85.5605Z" fill="white"/>
<path opacity="0.2" d="M335.637 380.887V290.645L228.879 397.404H319.121L335.637 380.887Z" fill="white"/>
<path d="M263.766 206.039H163.847V222.984H263.766V206.039Z" fill="white" stroke="#263238" stroke-miterlimit="10" stroke-linecap="round" stroke-linejoin="round"/>
<path d="M263.766 237.592H163.847V254.538H263.766V237.592Z" fill="white" stroke="#263238" stroke-miterlimit="10" stroke-linecap="round" stroke-linejoin="round"/>
<path d="M236.793 286.292H190.82C188.498 286.292 186.616 284.41 186.616 282.088V273.549C186.616 271.227 188.498 269.346 190.82 269.346H236.793C239.115 269.346 240.996 271.227 240.996 273.549V282.088C240.996 284.41 239.115 286.292 236.793 286.292Z" fill="#263238" stroke="#263238" stroke-miterlimit="10" stroke-linecap="round" stroke-linejoin="round"/>
<path d="M230.964 152.625C230.964 158.104 228.4 162.991 224.393 166.128C221.477 168.433 217.785 169.802 213.786 169.802C209.778 169.802 206.085 168.433 203.17 166.128C199.162 162.99 196.598 158.104 196.598 152.625C196.598 143.129 204.29 135.438 213.786 135.438C223.273 135.437 230.964 143.128 230.964 152.625Z" fill="white" stroke="#263238" stroke-miterlimit="10" stroke-linecap="round" stroke-linejoin="round"/>
<path d="M218.854 155.005C221.656 152.203 221.656 147.661 218.854 144.859C216.052 142.057 211.509 142.057 208.707 144.859C205.905 147.661 205.905 152.203 208.707 155.005C211.509 157.807 216.052 157.807 218.854 155.005Z" fill="#263238" stroke="#263238" stroke-miterlimit="10" stroke-linecap="round" stroke-linejoin="round"/>
<path d="M224.393 166.128C221.477 168.433 217.784 169.802 213.786 169.802C209.778 169.802 206.085 168.433 203.17 166.128C204.234 161.251 208.585 157.595 213.786 157.595C218.979 157.595 223.328 161.251 224.393 166.128Z" fill="#263238" stroke="#263238" stroke-miterlimit="10" stroke-linecap="round" stroke-linejoin="round"/>
<path d="M203.485 189.607V182.112H204.855V188.663H206.668V189.606L203.485 189.607Z" fill="#263238"/>
<path d="M209.324 189.708C208.793 189.708 208.371 189.609 208.057 189.412C207.741 189.215 207.517 188.931 207.381 188.561C207.245 188.191 207.177 187.753 207.177 187.247V184.443C207.177 183.937 207.245 183.504 207.381 183.143C207.517 182.782 207.741 182.506 208.057 182.315C208.372 182.124 208.793 182.028 209.324 182.028C209.866 182.028 210.293 182.124 210.606 182.315C210.917 182.506 211.142 182.782 211.281 183.143C211.42 183.503 211.489 183.937 211.489 184.443V187.256C211.489 187.756 211.42 188.189 211.281 188.557C211.142 188.924 210.917 189.207 210.606 189.408C210.294 189.608 209.866 189.708 209.324 189.708ZM209.324 188.7C209.552 188.7 209.72 188.65 209.828 188.551C209.936 188.452 210.009 188.317 210.046 188.144C210.082 187.971 210.102 187.783 210.102 187.58V184.129C210.102 183.919 210.083 183.731 210.046 183.565C210.009 183.398 209.937 183.267 209.828 183.171C209.72 183.076 209.552 183.028 209.324 183.028C209.108 183.028 208.944 183.076 208.833 183.171C208.722 183.268 208.648 183.399 208.611 183.565C208.574 183.731 208.556 183.92 208.556 184.129V187.58C208.556 187.784 208.573 187.971 208.607 188.144C208.641 188.317 208.714 188.452 208.825 188.551C208.936 188.65 209.102 188.7 209.324 188.7Z" fill="#263238"/>
<path d="M214.376 189.708C213.882 189.708 213.49 189.603 213.2 189.394C212.91 189.184 212.702 188.886 212.575 188.501C212.449 188.116 212.385 187.661 212.385 187.136V184.62C212.385 184.084 212.447 183.62 212.57 183.232C212.693 182.843 212.911 182.546 213.222 182.34C213.534 182.133 213.963 182.03 214.513 182.03C215.024 182.03 215.432 182.117 215.734 182.289C216.036 182.461 216.254 182.71 216.386 183.033C216.518 183.357 216.585 183.75 216.585 184.213V184.602H215.281V184.177C215.281 183.936 215.264 183.73 215.23 183.557C215.196 183.384 215.128 183.253 215.027 183.164C214.924 183.074 214.759 183.029 214.532 183.029C214.291 183.029 214.117 183.088 214.009 183.204C213.901 183.322 213.833 183.476 213.806 183.667C213.778 183.858 213.764 184.068 213.764 184.296V187.433C213.764 187.692 213.786 187.918 213.83 188.109C213.873 188.3 213.953 188.446 214.07 188.548C214.187 188.649 214.354 188.701 214.57 188.701C214.792 188.701 214.961 188.645 215.079 188.534C215.196 188.423 215.277 188.269 215.323 188.071C215.369 187.874 215.393 187.64 215.393 187.368V186.665H214.588V185.804H216.624V189.607H215.744L215.643 188.866C215.544 189.113 215.395 189.315 215.194 189.472C214.994 189.629 214.721 189.708 214.376 189.708Z" fill="#263238"/>
<path d="M217.706 189.607V182.112H219.058V189.607H217.706Z" fill="#263238"/>
<path d="M220.215 189.607V182.112H221.168L222.99 186.387V182.112H224.119V189.607H223.213L221.38 185.128V189.607H220.215Z" fill="#263238"/>
<path d="M197.684 218.829C197.142 218.829 196.725 218.721 196.435 218.505C196.145 218.289 195.947 217.985 195.843 217.594C195.738 217.202 195.686 216.744 195.686 216.22V211.251H196.685V216.266C196.685 216.586 196.707 216.879 196.75 217.144C196.794 217.41 196.887 217.619 197.032 217.774C197.177 217.927 197.394 218.004 197.685 218.004C197.981 218.004 198.2 217.927 198.342 217.774C198.484 217.619 198.576 217.41 198.62 217.144C198.662 216.879 198.685 216.586 198.685 216.266V211.251H199.675V216.22C199.675 216.744 199.622 217.202 199.518 217.594C199.413 217.985 199.217 218.29 198.931 218.505C198.642 218.721 198.227 218.829 197.684 218.829Z" fill="#CCCCCC"/>
<path d="M202.541 218.829C202.11 218.829 201.751 218.736 201.463 218.551C201.176 218.366 200.959 218.11 200.812 217.783C200.663 217.456 200.577 217.076 200.552 216.645L201.477 216.395C201.496 216.66 201.537 216.916 201.602 217.163C201.667 217.41 201.773 217.612 201.922 217.769C202.07 217.926 202.277 218.005 202.541 218.005C202.813 218.005 203.018 217.93 203.157 217.779C203.296 217.628 203.365 217.41 203.365 217.126C203.365 216.786 203.288 216.514 203.133 216.307C202.979 216.101 202.784 215.892 202.55 215.682L201.292 214.572C201.044 214.356 200.863 214.12 200.746 213.865C200.628 213.609 200.569 213.293 200.569 212.916C200.569 212.367 200.726 211.942 201.041 211.639C201.356 211.337 201.784 211.185 202.327 211.185C202.623 211.185 202.883 211.224 203.109 211.302C203.334 211.379 203.522 211.497 203.673 211.657C203.824 211.818 203.945 212.019 204.034 212.263C204.124 212.507 204.184 212.792 204.215 213.119L203.326 213.36C203.308 213.113 203.271 212.887 203.215 212.679C203.159 212.473 203.062 212.306 202.923 212.179C202.785 212.053 202.586 211.99 202.326 211.99C202.067 211.99 201.865 212.059 201.72 212.197C201.575 212.336 201.503 212.541 201.503 212.813C201.503 213.041 201.542 213.229 201.619 213.377C201.696 213.525 201.82 213.676 201.994 213.83L203.261 214.94C203.545 215.188 203.795 215.482 204.011 215.824C204.227 216.167 204.335 216.572 204.335 217.041C204.335 217.411 204.258 217.73 204.104 217.999C203.949 218.267 203.738 218.472 203.47 218.614C203.203 218.759 202.893 218.829 202.541 218.829Z" fill="#CCCCCC"/>
<path d="M205.151 218.746V211.25H208.056V212.028H206.196V214.508H207.704V215.248H206.196V217.996H208.074V218.746L205.151 218.746Z" fill="#CCCCCC"/>
<path d="M208.917 218.746V211.25H210.426C210.926 211.25 211.339 211.317 211.665 211.449C211.992 211.582 212.234 211.795 212.392 212.088C212.549 212.381 212.627 212.765 212.627 213.24C212.627 213.53 212.596 213.794 212.535 214.031C212.473 214.268 212.374 214.47 212.239 214.633C212.103 214.796 211.924 214.915 211.702 214.989L212.767 218.746H211.758L210.777 215.229H209.962V218.746H208.917ZM209.962 214.48H210.36C210.656 214.48 210.896 214.444 211.081 214.369C211.266 214.295 211.402 214.169 211.488 213.99C211.575 213.811 211.617 213.561 211.617 213.24C211.617 212.801 211.537 212.486 211.377 212.291C211.216 212.097 210.899 211.999 210.424 211.999H209.962V214.48Z" fill="#CCCCCC"/>
<path d="M213.719 218.746V211.25H214.431L216.56 216.228V211.25H217.429V218.746H216.764L214.608 213.629V218.746H213.719Z" fill="#CCCCCC"/>
<path d="M218.198 218.746L219.789 211.25H220.798L222.399 218.746H221.409L221.067 216.858H219.54L219.179 218.746H218.198ZM219.677 216.109H220.926L220.297 212.731L219.677 216.109Z" fill="#CCCCCC"/>
<path d="M223.138 218.746L223.277 211.25H224.304L225.627 217.33L226.959 211.25H227.976L228.115 218.746H227.273L227.19 213.305L225.923 218.746H225.331L224.072 213.305L223.989 218.746H223.138Z" fill="#CCCCCC"/>
<path d="M229.264 218.746V211.25H232.169V212.028H230.309V214.508H231.817V215.248H230.309V217.996H232.187V218.746L229.264 218.746Z" fill="#CCCCCC"/>
<path d="M195.024 249.753V242.258H196.884C197.334 242.258 197.693 242.341 197.962 242.504C198.23 242.667 198.426 242.904 198.55 243.211C198.673 243.52 198.734 243.893 198.734 244.331C198.734 244.726 198.665 245.068 198.526 245.358C198.387 245.648 198.182 245.872 197.911 246.029C197.639 246.186 197.3 246.264 196.893 246.264H196.07V249.752H195.024V249.753ZM196.069 245.515H196.55C196.852 245.515 197.09 245.481 197.262 245.413C197.435 245.346 197.558 245.227 197.632 245.057C197.706 244.887 197.743 244.649 197.743 244.34C197.743 243.982 197.717 243.708 197.664 243.517C197.611 243.326 197.503 243.193 197.335 243.118C197.169 243.044 196.91 243.007 196.558 243.007H196.068V245.515H196.069Z" fill="#CCCCCC"/>
<path d="M198.707 249.753L200.298 242.258H201.307L202.908 249.753H201.918L201.576 247.865H200.049L199.689 249.753H198.707ZM200.186 247.116H201.436L200.806 243.739L200.186 247.116Z" fill="#CCCCCC"/>
<path d="M205.433 249.836C205.001 249.836 204.642 249.743 204.355 249.559C204.067 249.374 203.85 249.118 203.703 248.791C203.554 248.464 203.469 248.084 203.443 247.652L204.369 247.403C204.387 247.667 204.429 247.923 204.494 248.171C204.559 248.417 204.665 248.619 204.813 248.776C204.961 248.933 205.168 249.012 205.433 249.012C205.704 249.012 205.909 248.935 206.048 248.785C206.187 248.634 206.257 248.416 206.257 248.133C206.257 247.794 206.179 247.521 206.025 247.314C205.87 247.107 205.676 246.899 205.442 246.689L204.184 245.579C203.936 245.363 203.755 245.127 203.638 244.871C203.521 244.615 203.462 244.299 203.462 243.923C203.462 243.374 203.619 242.949 203.934 242.647C204.249 242.344 204.677 242.193 205.22 242.193C205.516 242.193 205.777 242.232 206.002 242.309C206.227 242.386 206.415 242.504 206.566 242.665C206.717 242.826 206.838 243.027 206.927 243.271C207.016 243.515 207.076 243.8 207.107 244.127L206.218 244.367C206.2 244.121 206.163 243.894 206.107 243.688C206.052 243.481 205.954 243.314 205.816 243.188C205.677 243.062 205.478 242.998 205.218 242.998C204.96 242.998 204.758 243.068 204.613 243.206C204.468 243.345 204.396 243.55 204.396 243.821C204.396 244.049 204.434 244.238 204.511 244.386C204.588 244.534 204.712 244.685 204.886 244.839L206.153 245.95C206.437 246.197 206.687 246.491 206.903 246.834C207.119 247.177 207.227 247.581 207.227 248.051C207.227 248.421 207.15 248.74 206.996 249.008C206.842 249.277 206.631 249.481 206.362 249.624C206.094 249.765 205.785 249.836 205.433 249.836Z" fill="#CCCCCC"/>
<path d="M209.809 249.836C209.378 249.836 209.019 249.743 208.731 249.559C208.445 249.374 208.227 249.118 208.079 248.791C207.931 248.464 207.845 248.084 207.82 247.652L208.745 247.403C208.763 247.667 208.805 247.923 208.87 248.171C208.935 248.417 209.041 248.619 209.19 248.776C209.337 248.933 209.545 249.012 209.809 249.012C210.081 249.012 210.286 248.935 210.425 248.785C210.564 248.634 210.633 248.416 210.633 248.133C210.633 247.794 210.556 247.521 210.401 247.314C210.247 247.107 210.052 246.899 209.819 246.689L208.56 245.579C208.313 245.363 208.131 245.127 208.014 244.871C207.897 244.615 207.838 244.299 207.838 243.923C207.838 243.374 207.995 242.949 208.309 242.647C208.624 242.344 209.052 242.193 209.596 242.193C209.892 242.193 210.152 242.232 210.378 242.309C210.603 242.386 210.791 242.504 210.942 242.665C211.093 242.826 211.214 243.027 211.302 243.271C211.392 243.515 211.452 243.8 211.483 244.127L210.594 244.367C210.576 244.121 210.538 243.894 210.483 243.688C210.427 243.481 210.33 243.314 210.191 243.188C210.052 243.062 209.854 242.998 209.594 242.998C209.334 242.998 209.133 243.068 208.988 243.206C208.843 243.345 208.771 243.55 208.771 243.821C208.771 244.049 208.809 244.238 208.887 244.386C208.964 244.534 209.088 244.685 209.262 244.839L210.529 245.95C210.813 246.197 211.063 246.491 211.279 246.834C211.494 247.177 211.603 247.581 211.603 248.051C211.603 248.421 211.525 248.74 211.372 249.008C211.217 249.277 211.006 249.481 210.738 249.624C210.471 249.765 210.161 249.836 209.809 249.836Z" fill="#CCCCCC"/>
<path d="M213.39 249.753L212.169 242.258H213.039L213.844 247.643L214.852 242.286H215.593L216.611 247.671L217.397 242.257H218.249L217.046 249.752H216.287L215.241 244.201L214.186 249.752H213.39V249.753Z" fill="#CCCCCC"/>
<path d="M221.005 249.836C220.499 249.836 220.096 249.737 219.793 249.54C219.491 249.343 219.275 249.06 219.145 248.693C219.016 248.326 218.951 247.896 218.951 247.403V244.562C218.951 244.069 219.017 243.644 219.15 243.29C219.283 242.935 219.498 242.663 219.797 242.475C220.097 242.287 220.499 242.193 221.005 242.193C221.511 242.193 221.912 242.289 222.208 242.48C222.504 242.671 222.718 242.944 222.851 243.295C222.984 243.647 223.051 244.069 223.051 244.562V247.413C223.051 247.9 222.985 248.325 222.851 248.69C222.718 249.054 222.505 249.336 222.208 249.536C221.912 249.736 221.511 249.836 221.005 249.836ZM221.005 249.013C221.283 249.013 221.492 248.955 221.635 248.841C221.776 248.727 221.872 248.567 221.922 248.36C221.971 248.153 221.996 247.911 221.996 247.634V244.35C221.996 244.072 221.971 243.833 221.922 243.632C221.873 243.431 221.777 243.277 221.635 243.169C221.493 243.062 221.283 243.007 221.005 243.007C220.728 243.007 220.516 243.062 220.372 243.169C220.227 243.277 220.13 243.431 220.08 243.632C220.031 243.833 220.006 244.072 220.006 244.35V247.634C220.006 247.911 220.031 248.154 220.08 248.36C220.13 248.567 220.227 248.727 220.372 248.841C220.516 248.955 220.728 249.013 221.005 249.013Z" fill="#CCCCCC"/>
<path d="M224.077 249.753V242.258H225.586C226.086 242.258 226.499 242.325 226.825 242.458C227.153 242.59 227.395 242.803 227.552 243.096C227.709 243.39 227.788 243.773 227.788 244.247C227.788 244.538 227.757 244.801 227.696 245.039C227.634 245.276 227.536 245.477 227.4 245.641C227.265 245.804 227.085 245.923 226.864 245.996L227.928 249.753H226.919L225.938 246.237H225.124V249.753H224.077ZM225.122 245.487H225.52C225.816 245.487 226.057 245.45 226.242 245.376C226.427 245.301 226.563 245.174 226.649 244.996C226.736 244.817 226.779 244.567 226.779 244.247C226.779 243.809 226.699 243.493 226.538 243.299C226.378 243.104 226.06 243.007 225.585 243.007H225.122V245.487Z" fill="#CCCCCC"/>
<path d="M228.879 249.753V242.258H230.508C231.062 242.258 231.502 242.343 231.826 242.512C232.15 242.682 232.381 242.937 232.52 243.276C232.658 243.615 232.728 244.038 232.728 244.544V247.301C232.728 247.832 232.658 248.279 232.52 248.643C232.381 249.007 232.156 249.283 231.844 249.471C231.533 249.659 231.114 249.753 230.591 249.753H228.879ZM229.925 249.003H230.517C230.9 249.003 231.171 248.929 231.331 248.782C231.492 248.633 231.589 248.417 231.623 248.133C231.657 247.85 231.674 247.508 231.674 247.107V244.674C231.674 244.285 231.65 243.971 231.6 243.729C231.551 243.489 231.443 243.313 231.276 243.202C231.109 243.091 230.847 243.036 230.489 243.036H229.924V249.003H229.925Z" fill="#CCCCCC"/>
<path d="M202.712 281.236C202.262 281.236 201.885 281.148 201.583 280.972C201.281 280.797 201.053 280.539 200.898 280.199C200.744 279.861 200.658 279.444 200.64 278.95L201.815 278.719C201.827 279.009 201.863 279.265 201.921 279.488C201.98 279.71 202.069 279.881 202.189 280.001C202.31 280.122 202.469 280.182 202.666 280.182C202.888 280.182 203.045 280.116 203.138 279.982C203.231 279.85 203.277 279.682 203.277 279.479C203.277 279.153 203.203 278.883 203.054 278.674C202.907 278.464 202.709 278.255 202.462 278.045L201.519 277.213C201.254 276.984 201.042 276.73 200.885 276.449C200.728 276.168 200.649 275.821 200.649 275.408C200.649 274.816 200.822 274.359 201.167 274.038C201.513 273.717 201.985 273.557 202.583 273.557C202.935 273.557 203.227 273.611 203.462 273.719C203.696 273.827 203.883 273.978 204.021 274.168C204.16 274.359 204.264 274.576 204.331 274.82C204.4 275.063 204.442 275.321 204.461 275.593L203.296 275.796C203.284 275.562 203.257 275.352 203.217 275.167C203.177 274.982 203.106 274.837 203.004 274.732C202.902 274.627 202.752 274.575 202.555 274.575C202.351 274.575 202.196 274.641 202.088 274.773C201.98 274.907 201.926 275.072 201.926 275.269C201.926 275.523 201.978 275.73 202.083 275.893C202.188 276.056 202.339 276.226 202.537 276.398L203.472 277.22C203.78 277.479 204.044 277.784 204.263 278.133C204.481 278.482 204.592 278.903 204.592 279.396C204.592 279.753 204.513 280.071 204.356 280.349C204.198 280.626 203.979 280.843 203.698 281.001C203.417 281.158 203.089 281.236 202.712 281.236Z" fill="#E5E5E5"/>
<path d="M205.359 281.134V273.64H206.71V281.134H205.359Z" fill="#E5E5E5"/>
<path d="M209.745 281.235C209.251 281.235 208.86 281.131 208.57 280.921C208.28 280.711 208.071 280.413 207.945 280.028C207.818 279.643 207.755 279.188 207.755 278.663V276.146C207.755 275.609 207.816 275.147 207.94 274.758C208.063 274.37 208.281 274.073 208.591 273.865C208.903 273.659 209.334 273.555 209.882 273.555C210.394 273.555 210.801 273.642 211.103 273.814C211.405 273.987 211.623 274.236 211.755 274.56C211.888 274.883 211.954 275.277 211.954 275.738V276.127H210.649V275.702C210.649 275.462 210.632 275.255 210.598 275.082C210.564 274.91 210.497 274.778 210.395 274.689C210.293 274.6 210.128 274.554 209.9 274.554C209.66 274.554 209.485 274.614 209.377 274.731C209.269 274.848 209.202 275.002 209.174 275.193C209.146 275.384 209.132 275.594 209.132 275.823V278.96C209.132 279.218 209.154 279.444 209.197 279.635C209.241 279.826 209.321 279.973 209.438 280.074C209.555 280.176 209.722 280.227 209.938 280.227C210.16 280.227 210.329 280.171 210.447 280.06C210.564 279.949 210.646 279.795 210.692 279.598C210.738 279.401 210.761 279.166 210.761 278.895V278.192H209.957V277.332H211.992V281.135H211.113L211.011 280.394C210.912 280.641 210.763 280.843 210.563 281C210.363 281.157 210.09 281.235 209.745 281.235Z" fill="#E5E5E5"/>
<path d="M213.039 281.134V273.64H213.992L215.815 277.915V273.64H216.943V281.134H216.036L214.204 276.656V281.134H213.039Z" fill="#E5E5E5"/>
<path d="M220.367 281.134V273.64H221.718V281.134H220.367Z" fill="#E5E5E5"/>
<path d="M222.874 281.134V273.64H223.827L225.65 277.915V273.64H226.779V281.134H225.872L224.04 276.656V281.134H222.874Z" fill="#E5E5E5"/>
<path d="M316.124 158.609C316.124 158.609 315.024 167.267 315.436 168.505C315.849 169.742 318.322 174.689 318.459 175.102C318.597 175.514 315.573 178.125 316.123 179.362C316.672 180.599 319.696 182.111 319.696 182.111C319.696 182.111 327.118 190.632 328.08 190.495C329.042 190.358 332.616 188.433 332.616 188.433L334.677 193.244L355.156 184.585L348.971 174.415C348.971 174.415 342.512 158.06 336.464 152.837C330.417 147.614 318.597 152.699 316.124 158.609Z" fill="white" stroke="#263238" stroke-miterlimit="10" stroke-linecap="round" stroke-linejoin="round"/>
<path d="M328.08 190.495L333.27 184.915L332.617 188.433L328.08 190.495Z" fill="#263238" stroke="#263238" stroke-miterlimit="10" stroke-linecap="round" stroke-linejoin="round"/>
<path d="M317.36 172.353C317.36 172.353 319.697 177.575 318.322 178.4C316.947 179.225 314.199 174.277 314.199 174.277L327.256 166.031" stroke="#263238" stroke-miterlimit="10" stroke-linecap="round" stroke-linejoin="round"/>
<path d="M321.621 181.561C321.621 181.561 323.682 180.6 322.857 177.988" stroke="#263238" stroke-miterlimit="10" stroke-linecap="round" stroke-linejoin="round"/>
<path d="M316.811 169.191C316.811 169.191 316.811 167.405 318.873 168.23" stroke="#263238" stroke-miterlimit="10" stroke-linecap="round" stroke-linejoin="round"/>
<path d="M318.873 173.177L320.522 176.063" stroke="#263238" stroke-miterlimit="10" stroke-linecap="round" stroke-linejoin="round"/>
<path d="M317.36 152.561C317.773 152.699 317.223 146.789 315.299 148.3C313.375 149.812 313.237 155.309 313.237 155.309C313.237 155.309 310.764 152.286 310.214 154.76C309.665 157.234 313.376 161.357 314.75 161.22C316.124 161.083 321.897 155.722 321.622 157.371C321.346 159.02 319.56 161.906 320.66 162.457C321.76 163.006 324.508 161.907 324.508 161.907C324.508 161.907 324.921 168.092 326.57 167.817C328.219 167.542 329.456 164.931 330.693 166.58C331.93 168.23 340.451 176.614 341 176.614C341.55 176.614 348.972 174.415 348.972 174.415C348.972 174.415 349.522 165.894 349.934 160.259C350.346 154.624 347.048 147.064 342.237 144.041C337.427 141.018 330.28 141.704 326.844 144.041C323.409 146.378 317.36 152.561 317.36 152.561Z" fill="#263238" stroke="#263238" stroke-miterlimit="10" stroke-linecap="round" stroke-linejoin="round"/>
<path d="M327.394 170.428C327.394 170.428 326.294 162.595 329.043 163.969C331.792 165.343 333.991 172.627 333.304 174.277C332.617 175.926 330.967 174.826 330.967 174.826" fill="white"/>
<path d="M327.394 170.428C327.394 170.428 326.294 162.595 329.043 163.969C331.792 165.343 333.991 172.627 333.304 174.277C332.617 175.926 330.967 174.826 330.967 174.826" stroke="#263238" stroke-miterlimit="10" stroke-linecap="round" stroke-linejoin="round"/>
<path d="M332.098 192.616L329.085 201.155C329.085 201.155 338.292 196.132 347.166 193.119C356.04 190.105 361.899 189.268 361.899 189.268L357.378 182.572C357.378 182.572 338.795 184.413 332.098 192.616Z" fill="#92E3A9" stroke="#263238" stroke-miterlimit="10" stroke-linecap="round" stroke-linejoin="round"/>
<path d="M284.918 212.598L303.901 244.45C304.043 244.687 304.323 244.806 304.592 244.74L322.41 240.363C322.818 240.263 323.016 239.8 322.806 239.436L306.341 210.866C306.222 210.66 305.998 210.539 305.761 210.551L285.425 211.646C284.953 211.671 284.676 212.191 284.918 212.598Z" fill="#263238" stroke="#263238" stroke-miterlimit="10" stroke-linecap="round" stroke-linejoin="round"/>
<path d="M287.021 213.861L304.102 242.523L320.604 238.47L305.839 212.848L287.021 213.861Z" fill="#878787" stroke="#263238" stroke-miterlimit="10" stroke-linecap="round" stroke-linejoin="round"/>
<path d="M318.202 219.068C318.202 219.068 313.18 221.747 311.338 222.584C309.496 223.421 308.492 224.091 309.664 225.095C310.836 226.099 314.854 223.756 314.854 223.756L318.035 222.416L318.202 219.068Z" fill="white" stroke="#263238" stroke-miterlimit="10" stroke-linecap="round" stroke-linejoin="round"/>
<path d="M359.043 399.106L360.178 407.811C360.178 407.811 359.043 409.703 355.447 410.081C351.851 410.46 349.201 411.027 349.201 411.027L350.189 402.562L359.043 399.106Z" fill="white" stroke="#263238" stroke-miterlimit="10" stroke-linecap="round" stroke-linejoin="round"/>
<path d="M360.178 407.811L360.014 406.549C356.628 407.866 352.531 408.29 349.509 408.404L349.202 411.027C349.202 411.027 351.852 410.46 355.448 410.081C359.044 409.703 360.178 407.811 360.178 407.811Z" fill="white" stroke="#263238" stroke-miterlimit="10" stroke-linecap="round" stroke-linejoin="round"/>
<path d="M333.306 395.51L323.465 401.566C323.465 401.566 319.113 402.702 316.652 402.891C314.192 403.08 314.192 405.729 315.328 406.676C316.463 407.622 320.228 409.226 324.979 410.272C334.441 412.353 348.067 411.596 349.202 411.028C350.338 410.461 351.284 409.515 351.473 408.758C351.662 408.001 351.473 400.62 351.473 400.62C351.473 400.62 337.09 398.916 333.306 395.51Z" fill="white" stroke="#263238" stroke-miterlimit="10" stroke-linecap="round" stroke-linejoin="round"/>
<path d="M323.655 407.811C318.106 406.127 315.829 404.754 314.916 403.828C314.339 404.739 314.593 406.063 315.328 406.675C316.463 407.621 320.228 409.226 324.979 410.271C334.441 412.353 348.067 411.596 349.202 411.028C350.265 410.497 351.153 409.637 351.418 408.909C345.091 409.449 331.573 410.215 323.655 407.811Z" fill="white" stroke="#263238" stroke-miterlimit="10" stroke-linecap="round" stroke-linejoin="round"/>
<path d="M364.187 275.552C364.187 275.552 364.187 284.884 361.077 289.895C357.967 294.906 353.646 299.399 353.646 300.09C353.646 300.781 349.499 333.096 349.499 334.824C349.499 336.552 349.326 341.563 350.363 344.155C351.4 346.747 355.374 363.163 357.794 377.852C360.213 392.54 359.177 396.169 359.177 396.169C359.177 396.169 360.214 398.761 360.214 399.453C360.214 400.144 359.696 402.045 359.696 402.045C359.696 402.045 356.931 402.908 354.338 402.908C351.746 402.908 350.191 402.563 350.191 402.563C350.191 402.563 350.018 399.798 350.536 398.415C351.055 397.033 350.709 393.231 350.709 392.367C350.709 391.504 344.143 346.747 344.143 343.291C344.143 339.834 343.97 303.2 343.97 303.2L342.415 277.798C342.415 277.798 351.399 277.453 364.187 275.552Z" fill="#92E3A9" stroke="#263238" stroke-miterlimit="10" stroke-linecap="round" stroke-linejoin="round"/>
<path d="M351.917 295.078C351.917 295.078 347.77 302.682 347.425 303.373C347.079 304.064 347.079 310.112 347.079 311.495C347.079 312.878 346.216 339.143 346.388 342.772C346.561 346.401 349.326 357.633 350.19 364.372C351.054 371.112 352.609 390.812 352.782 391.33C352.955 391.848 353.646 394.267 353.3 395.823C352.955 397.378 352.09 399.106 352.09 399.106C352.09 399.106 352.608 402.044 352.263 402.908C351.917 403.772 347.252 404.636 340.685 402.735C334.118 400.835 331.354 396.687 331.354 396.687C331.354 396.687 331.699 395.824 331.699 394.095C331.699 392.367 333.427 392.022 333.427 392.022L330.144 368.866C330.144 368.866 327.034 361.609 326.86 360.399C326.687 359.189 327.551 356.251 327.378 355.042C327.205 353.832 325.132 351.241 324.959 350.031C324.786 348.821 319.084 329.468 318.738 312.36C318.393 295.253 319.038 279.34 319.038 279.34C319.038 279.34 323.404 281.601 336.883 280.737C350.361 279.874 355.718 279.701 362.112 276.935" fill="#92E3A9"/>
<path d="M351.917 295.078C351.917 295.078 347.77 302.682 347.425 303.373C347.079 304.064 347.079 310.112 347.079 311.495C347.079 312.878 346.216 339.143 346.388 342.772C346.561 346.401 349.326 357.633 350.19 364.372C351.054 371.112 352.609 390.812 352.782 391.33C352.955 391.848 353.646 394.267 353.3 395.823C352.955 397.378 352.09 399.106 352.09 399.106C352.09 399.106 352.608 402.044 352.263 402.908C351.917 403.772 347.252 404.636 340.685 402.735C334.118 400.835 331.354 396.687 331.354 396.687C331.354 396.687 331.699 395.824 331.699 394.095C331.699 392.367 333.427 392.022 333.427 392.022L330.144 368.866C330.144 368.866 327.034 361.609 326.86 360.399C326.687 359.189 327.551 356.251 327.378 355.042C327.205 353.832 325.132 351.241 324.959 350.031C324.786 348.821 319.084 329.468 318.738 312.36C318.393 295.253 319.038 279.34 319.038 279.34C319.038 279.34 323.404 281.601 336.883 280.737C350.361 279.874 355.718 279.701 362.112 276.935" stroke="#263238" stroke-miterlimit="10" stroke-linecap="round" stroke-linejoin="round"/>
<path d="M337.688 381.347L338.794 392.861C338.794 392.861 337.281 393.807 337.848 395.699C338.416 397.592 338.794 398.727 338.794 398.727" stroke="#263238" stroke-miterlimit="10" stroke-linecap="round" stroke-linejoin="round"/>
<path d="M327.771 323.623C327.902 324.46 328.043 325.273 328.196 326.057C331.224 341.575 334.631 353.308 334.82 353.876C335.009 354.443 332.549 356.525 333.495 357.661C334.441 358.796 335.577 359.364 335.577 359.364L337.316 377.471" stroke="#263238" stroke-miterlimit="10" stroke-linecap="round" stroke-linejoin="round"/>
<path d="M326.682 284.045C326.682 284.045 325.581 303.306 327.134 318.601" stroke="#263238" stroke-miterlimit="10" stroke-linecap="round" stroke-linejoin="round"/>
<path d="M322.33 283.667C322.33 283.667 321.762 290.48 325.547 293.886" stroke="#263238" stroke-miterlimit="10" stroke-linecap="round" stroke-linejoin="round"/>
<path d="M351.284 284.614C346.931 286.506 337.469 286.695 337.469 286.695L338.604 289.534C338.604 289.534 345.228 289.155 347.877 288.209" stroke="#263238" stroke-miterlimit="10" stroke-linecap="round" stroke-linejoin="round"/>
<path d="M319.039 279.339C319.039 279.339 321.383 283.692 339.632 282.687C357.881 281.682 364.911 278.669 365.079 277.162C365.246 275.655 364.744 272.14 364.744 272.14C364.744 272.14 330.256 274.651 319.039 279.339Z" fill="#C2C2C2" stroke="#263238" stroke-miterlimit="10" stroke-linecap="round" stroke-linejoin="round"/>
<path d="M329.085 201.155C329.085 201.155 318.873 205.842 318.705 207.349C318.538 208.856 313.18 249.37 313.18 249.37L305.144 239.995C305.144 239.995 305.312 236.646 304.809 235.307C304.307 233.968 304.139 232.963 302.967 232.461C301.796 231.958 297.945 230.954 296.94 230.117C295.936 229.28 293.09 226.602 292.419 227.606C291.749 228.61 290.41 230.285 290.745 231.457C291.08 232.628 292.419 234.972 292.419 235.642C292.419 236.312 292.419 241.334 294.596 243.678C296.772 246.022 299.953 247.027 299.953 247.027C299.953 247.027 305.143 260.755 306.984 263.434C308.826 266.112 316.527 272.306 316.527 272.306C316.527 272.306 314.685 276.659 315.188 276.994C315.691 277.329 318.034 280.845 318.703 280.845C319.373 280.845 339.463 277.497 340.97 277.329C342.477 277.162 357.545 277.329 358.716 276.827C359.888 276.324 363.739 274.651 364.576 273.981C365.413 273.311 366.752 272.139 366.083 269.46C365.414 266.782 364.744 247.863 364.744 246.189C364.744 244.515 368.093 231.289 369.599 226.099C371.105 220.909 373.952 205.674 374.119 203.163C374.287 200.652 372.277 194.792 371.608 194.457C370.938 194.122 361.898 189.267 361.898 189.267C361.898 189.267 346.998 190.44 329.085 201.155Z" fill="#C2C2C2" stroke="#263238" stroke-miterlimit="10" stroke-linecap="round" stroke-linejoin="round"/>
<path d="M316.528 272.307C316.528 272.307 322.388 271.303 323.392 270.465C324.396 269.629 333.27 243.679 333.605 242.172C333.94 240.665 334.442 222.417 334.442 222.417" stroke="#263238" stroke-miterlimit="10" stroke-linecap="round" stroke-linejoin="round"/>
<path d="M334.274 233.801L337.121 223.589" stroke="#263238" stroke-miterlimit="10" stroke-linecap="round" stroke-linejoin="round"/>
<path d="M312.51 259.416C312.008 256.57 313.18 249.37 313.18 249.37C313.18 249.37 314.352 256.402 316.529 259.248" stroke="#263238" stroke-miterlimit="10" stroke-linecap="round" stroke-linejoin="round"/>
<path d="M305.144 239.995C305.144 239.995 305.312 236.646 304.809 235.307C304.307 233.968 304.139 232.963 302.967 232.461C301.796 231.958 297.945 230.954 296.94 230.117C295.936 229.28 293.09 226.602 292.419 227.606C291.749 228.61 290.41 230.285 290.745 231.457C291.08 232.628 292.419 234.972 292.419 235.642C292.419 236.312 292.419 241.334 294.596 243.678C296.772 246.022 299.953 247.027 299.953 247.027C299.953 247.027 300.244 247.796 300.709 248.996C301.729 246.531 303.799 243.501 307.844 243.146L305.144 239.995Z" fill="white" stroke="#263238" stroke-miterlimit="10" stroke-linecap="round" stroke-linejoin="round"/>
<path d="M302.466 252.216C302.466 252.216 303.637 248.031 308.493 246.357" stroke="#263238" stroke-miterlimit="10" stroke-linecap="round" stroke-linejoin="round"/>
<path d="M340.971 277.329L357.88 272.307" stroke="#263238" stroke-miterlimit="10" stroke-linecap="round" stroke-linejoin="round"/>
<path d="M361.057 232.915C361.057 232.915 350.355 244.485 341.677 250.849" stroke="#263238" stroke-miterlimit="10" stroke-linecap="round" stroke-linejoin="round"/>
<path d="M355.562 241.592C355.562 241.592 347.463 249.691 343.992 252.295" stroke="#263238" stroke-miterlimit="10" stroke-linecap="round" stroke-linejoin="round"/>
</svg>
