<svg width="430" height="449" viewBox="0 0 430 449" fill="none" xmlns="http://www.w3.org/2000/svg">
<path d="M406.605 280.274H256.178V193.207H406.605V280.274ZM257.096 279.356H405.687V194.125H257.096V279.356Z" fill="#E0E0E0"/>
<path d="M375.576 239.63H276.308V242.542H375.576V239.63Z" fill="#F0F0F0"/>
<path d="M382.413 250.482H276.308V253.66H382.413V250.482Z" fill="#F0F0F0"/>
<path d="M382.413 261.462H276.308V264.639H382.413V261.462Z" fill="#F0F0F0"/>
<path d="M311.001 223.869H276.308V231.423H311.001V223.869Z" fill="#F0F0F0"/>
<path d="M406.146 193.665H256.637V207.526H406.146V193.665Z" fill="#E0E0E0"/>
<path d="M394.642 205.455C394.451 205.272 396.378 202.948 398.943 200.265C401.511 197.581 403.746 195.554 403.937 195.737C404.128 195.919 402.201 198.243 399.634 200.926C397.068 203.609 394.833 205.637 394.642 205.455Z" fill="white"/>
<path d="M403.938 205.455C403.747 205.637 401.512 203.609 398.945 200.926C396.377 198.242 394.451 195.918 394.642 195.737C394.833 195.555 397.067 197.581 399.635 200.265C402.202 202.948 404.129 205.272 403.938 205.455Z" fill="white"/>
<path d="M221.479 21.2616H71.9694V107.411H221.479V21.2616Z" fill="#E6E6E6"/>
<path d="M190.908 67.2267H91.6404V70.1386H190.908V67.2267Z" fill="#F0F0F0"/>
<path d="M197.745 78.0793H91.6404V81.2556H197.745V78.0793Z" fill="#F0F0F0"/>
<path d="M197.745 89.0577H91.6404V92.234H197.745V89.0577Z" fill="#F0F0F0"/>
<path d="M126.333 51.4656H91.6404V59.0198H126.333V51.4656Z" fill="#F0F0F0"/>
<path d="M221.479 21.2616H71.9694V35.1215H221.479V21.2616Z" fill="#E0E0E0"/>
<path d="M209.461 32.9854C209.27 32.8027 211.197 30.4792 213.763 27.7959C216.331 25.1117 218.566 23.0847 218.757 23.2665C218.948 23.4492 217.021 25.7717 214.453 28.4559C211.889 31.1393 209.652 33.1671 209.461 32.9854Z" fill="white"/>
<path d="M218.758 32.9854C218.567 33.1681 216.332 31.1402 213.765 28.4569C211.196 25.7727 209.271 23.4492 209.461 23.2675C209.652 23.0848 211.888 25.1127 214.454 27.7969C217.023 30.4793 218.949 32.8027 218.758 32.9854Z" fill="white"/>
<path d="M164.854 181.302H14.4272V94.2343H164.854V181.302ZM15.3452 180.384H163.936V95.1523H15.3452V180.384Z" fill="#E0E0E0"/>
<path d="M133.824 140.658H34.5563V143.569H133.824V140.658Z" fill="#F0F0F0"/>
<path d="M140.662 151.511H34.5563V154.687H140.662V151.511Z" fill="#F0F0F0"/>
<path d="M140.662 162.489H34.5563V165.666H140.662V162.489Z" fill="#F0F0F0"/>
<path d="M69.2494 124.896H34.5563V132.452H69.2494V124.896Z" fill="#F0F0F0"/>
<path d="M164.395 94.6933H14.8862V108.554H164.395V94.6933Z" fill="#E0E0E0"/>
<path d="M338.459 201.254H161.924V359.293H338.459V201.254Z" fill="#E6E6E6"/>
<path d="M170.798 151.469H32.5119V295.144H170.798V151.469Z" fill="#F0F0F0"/>
<path d="M170.798 151.469H32.5119V167.124H170.798V151.469Z" fill="#E0E0E0"/>
<path d="M43.9318 159.136C43.9318 160.812 42.6319 162.171 41.0282 162.171C39.4244 162.171 38.1245 160.812 38.1245 159.136C38.1245 157.46 39.4244 156.101 41.0282 156.101C42.6319 156.101 43.9318 157.46 43.9318 159.136Z" fill="white"/>
<path d="M55.7079 159.136C55.7079 160.812 54.4081 162.171 52.8043 162.171C51.2006 162.171 49.9007 160.812 49.9007 159.136C49.9007 157.46 51.2006 156.101 52.8043 156.101C54.4081 156.101 55.7079 157.46 55.7079 159.136Z" fill="white"/>
<path d="M67.485 159.136C67.485 160.812 66.1851 162.171 64.5813 162.171C62.9776 162.171 61.6777 160.812 61.6777 159.136C61.6777 157.46 62.9776 156.101 64.5813 156.101C66.1851 156.101 67.485 157.46 67.485 159.136Z" fill="white"/>
<path d="M386.864 52.6856H210.329V228.63H386.864V52.6856Z" fill="#F0F0F0"/>
<path d="M386.864 52.6856H210.329V73.2947H386.864V52.6856Z" fill="#E0E0E0"/>
<path d="M225.363 62.7781C225.363 64.985 223.652 66.7742 221.54 66.7742C219.43 66.7742 217.719 64.985 217.719 62.7781C217.719 60.5713 219.43 58.783 221.54 58.783C223.651 58.783 225.363 60.5722 225.363 62.7781Z" fill="white"/>
<path d="M239.748 60.0764C241.308 61.637 241.363 64.112 239.87 65.6037C238.377 67.0964 235.903 67.0413 234.343 65.4816C232.783 63.921 232.727 61.4461 234.22 59.9534C235.712 58.4608 238.187 58.5158 239.748 60.0764Z" fill="white"/>
<path d="M256.371 62.7781C256.371 64.985 254.66 66.7742 252.549 66.7742C250.437 66.7742 248.727 64.985 248.727 62.7781C248.727 60.5713 250.437 58.783 252.549 58.783C254.66 58.783 256.371 60.5722 256.371 62.7781Z" fill="white"/>
<path d="M348.728 405.974C348.728 406.106 284.983 406.214 206.367 406.214C127.724 406.214 63.992 406.106 63.992 405.974C63.992 405.842 127.723 405.735 206.367 405.735C284.983 405.736 348.728 405.843 348.728 405.974Z" fill="#263238"/>
<path d="M286.613 293.594C272.432 283.686 269.214 265.295 269.775 248.764C269.869 246.004 269.565 243.095 270.877 240.674C272.191 238.253 275.254 236.599 277.724 237.761C279.773 238.726 280.666 241.109 281.813 243.081C283.338 245.703 285.61 247.874 288.285 249.262C290.042 250.173 292.216 250.731 293.951 249.775C296.331 248.461 296.611 245.173 296.594 242.428C296.562 237.313 296.531 232.197 296.499 227.083C296.481 224.339 296.474 221.536 297.327 218.932C298.181 216.327 300.066 213.908 302.677 213.176C305.289 212.445 308.516 213.95 309.068 216.637C309.298 217.755 309.07 218.915 309.146 220.054C309.222 221.194 309.753 222.454 310.835 222.772C311.931 223.094 313.029 222.315 313.849 221.512C316.682 218.742 318.604 215.172 320.401 211.622C322.197 208.072 323.941 204.437 326.511 201.414C329.082 198.391 332.637 195.997 336.567 195.774C340.498 195.552 344.686 197.977 345.679 201.837C346.675 205.706 344.418 209.631 341.961 212.764C338.317 217.411 334.006 221.52 329.205 224.923C328.341 225.537 327.403 226.2 327.072 227.217C326.476 229.046 328.209 230.864 330.016 231.465C332.061 232.146 334.281 231.934 336.421 232.186C338.561 232.437 340.88 233.382 341.688 235.404C342.813 238.21 340.467 241.15 338.158 243.075C333.536 246.932 328.257 249.978 322.626 252.041C320.607 252.78 318.482 253.428 316.855 254.847C315.227 256.266 314.244 258.732 315.228 260.665C316.212 262.6 318.737 263.219 320.852 262.826C322.966 262.434 324.859 261.285 326.875 260.525C330.646 259.102 335.517 259.361 337.933 262.621C339.52 264.764 339.661 267.747 338.857 270.301C338.055 272.855 336.426 275.055 334.697 277.084C328.652 284.177 320.913 289.886 312.164 292.92C303.415 295.953 295.308 296.774 286.613 293.594Z" fill="#E8505B"/>
<path d="M341.714 198.072C341.721 198.078 341.63 198.167 341.448 198.333C341.245 198.514 340.975 198.754 340.633 199.06C339.914 199.695 338.854 200.632 337.522 201.876C334.855 204.356 331.109 208.086 327.039 213.191C324.996 215.734 322.875 218.614 320.652 221.747C318.435 224.886 316.087 228.254 313.752 231.887C311.416 235.519 309.078 239.411 306.981 243.617C305.923 245.714 304.979 247.91 304.016 250.148C303.059 252.386 302.088 254.657 301.105 256.954C297.205 266.157 293.775 275.055 291.324 283.365C288.859 291.669 287.392 299.364 286.751 305.885C286.092 312.408 286.227 317.732 286.494 321.386C286.637 323.213 286.777 324.631 286.906 325.588C286.959 326.047 287 326.407 287.032 326.679C287.058 326.925 287.067 327.053 287.059 327.055C287.05 327.056 287.024 326.932 286.981 326.687C286.938 326.419 286.879 326.059 286.805 325.602C286.643 324.649 286.472 323.232 286.297 321.403C285.971 317.746 285.78 312.402 286.395 305.851C286.994 299.302 288.431 291.568 290.88 283.231C293.313 274.888 296.739 265.965 300.642 256.754C301.626 254.456 302.599 252.184 303.557 249.945C304.519 247.713 305.473 245.499 306.54 243.391C308.656 239.164 311.012 235.263 313.364 231.63C315.715 227.994 318.08 224.63 320.313 221.5C322.554 218.374 324.697 215.499 326.763 212.963C330.879 207.872 334.679 204.167 337.39 201.73C338.744 200.507 339.825 199.592 340.567 198.982C340.924 198.693 341.203 198.465 341.414 198.293C341.607 198.14 341.709 198.065 341.714 198.072Z" fill="#263238"/>
<path d="M306.684 243.371C306.65 243.376 306.557 242.959 306.416 242.2C306.272 241.442 306.099 240.339 305.907 238.971C305.518 236.238 305.112 232.447 304.678 228.264C304.245 224.079 303.785 220.304 303.357 217.585C303.147 216.225 302.965 215.126 302.83 214.367C302.699 213.608 302.643 213.184 302.677 213.176C302.711 213.169 302.832 213.578 303.022 214.326C303.217 215.073 303.453 216.166 303.708 217.523C304.228 220.236 304.747 224.02 305.18 228.209C305.596 232.337 305.973 236.072 306.261 238.926C306.399 240.214 306.516 241.3 306.611 242.171C306.691 242.938 306.72 243.366 306.684 243.371Z" fill="#263238"/>
<path d="M341.97 236.777C341.971 236.812 341.469 236.87 340.563 236.946C339.658 237.026 338.347 237.136 336.732 237.323C333.5 237.672 329.053 238.31 324.177 239.229C319.301 240.157 314.924 241.184 311.78 242.019C310.204 242.424 308.938 242.788 308.061 243.034C307.185 243.283 306.696 243.405 306.684 243.372C306.673 243.338 307.143 243.152 308.002 242.844C308.863 242.54 310.117 242.123 311.685 241.671C314.814 240.744 319.194 239.658 324.084 238.727C328.974 237.806 333.447 237.221 336.697 236.964C338.322 236.823 339.64 236.767 340.552 236.748C341.464 236.733 341.968 236.741 341.97 236.777Z" fill="#263238"/>
<path d="M291.314 282.581C291.297 282.589 291.216 282.441 291.072 282.151C290.908 281.806 290.709 281.384 290.469 280.874C289.95 279.763 289.24 278.136 288.39 276.114C286.688 272.072 284.512 266.414 282.196 260.139C279.878 253.861 277.757 248.19 276.141 244.119C275.35 242.14 274.698 240.511 274.213 239.301C274.006 238.776 273.836 238.343 273.696 237.987C273.583 237.685 273.531 237.522 273.547 237.514C273.564 237.507 273.645 237.655 273.789 237.945C273.953 238.291 274.152 238.711 274.392 239.221C274.911 240.332 275.621 241.959 276.471 243.981C278.174 248.023 280.349 253.681 282.666 259.959C284.983 266.235 287.104 271.905 288.72 275.977C289.512 277.955 290.163 279.585 290.648 280.794C290.855 281.319 291.025 281.753 291.165 282.108C291.278 282.412 291.331 282.574 291.314 282.581Z" fill="#263238"/>
<path d="M338.204 267.469C338.208 267.487 338.048 267.552 337.738 267.661C337.372 267.784 336.921 267.935 336.377 268.117C335.119 268.525 333.421 269.076 331.355 269.744C327.116 271.119 321.282 273.085 314.84 275.267C308.394 277.45 302.538 279.364 298.268 280.651C296.134 281.295 294.401 281.799 293.198 282.122C292.641 282.268 292.182 282.389 291.809 282.488C291.489 282.566 291.32 282.598 291.315 282.581C291.31 282.565 291.471 282.499 291.78 282.389C292.146 282.266 292.596 282.116 293.142 281.933C294.399 281.526 296.097 280.976 298.162 280.306C302.402 278.931 308.236 276.964 314.681 274.782C321.124 272.6 326.98 270.686 331.25 269.399C333.384 268.754 335.116 268.25 336.321 267.926C336.877 267.78 337.335 267.659 337.71 267.562C338.028 267.485 338.198 267.453 338.204 267.469Z" fill="#263238"/>
<path d="M319.075 44.7853L314.345 46.4772L312.322 40.3C308.592 28.9058 296.685 22.8093 285.795 26.7053C274.898 30.6031 269.073 43.043 272.803 54.4372L274.826 60.6144L270.08 62.3118C266.389 63.6319 264.392 67.8859 265.656 71.7479L278.816 111.948C280.1 115.869 284.175 117.959 287.865 116.639L336.863 99.1116C340.613 97.7704 342.612 93.5063 341.328 89.5865L328.167 49.3863C326.901 45.5243 322.824 43.4432 319.075 44.7853ZM281.73 51.2425C279.686 44.9983 282.877 38.1794 288.851 36.0423C294.82 33.907 301.341 37.2513 303.386 43.4955L305.408 49.6737L283.752 57.4198L281.73 51.2425ZM309.278 86.9096L312.639 97.1756C312.781 97.6098 312.533 98.0532 312.113 98.2037L307.411 99.8855C307.051 100.014 306.59 99.824 306.449 99.3898L303.088 89.1238C299.447 88.9696 296.067 86.5562 294.802 82.6941C293.177 77.7287 295.719 72.2996 300.484 70.5949C305.247 68.8911 310.437 71.5533 312.063 76.5197C313.327 80.3817 312.07 84.4549 309.278 86.9096Z" fill="#E8505B"/>
<path d="M314.138 46.3661C314.183 46.49 305.371 49.7893 294.458 53.7331C283.542 57.6786 274.66 60.776 274.615 60.652C274.57 60.5281 283.38 57.2297 294.297 53.2842C305.208 49.3404 314.093 46.2422 314.138 46.3661Z" fill="#263238"/>
<path d="M324.543 48.058C324.551 48.0552 324.587 48.1369 324.649 48.2985C324.718 48.4858 324.806 48.7226 324.916 49.0182C325.152 49.6874 325.479 50.6183 325.896 51.8007C326.74 54.2582 327.94 57.7548 329.418 62.0621C330.892 66.4106 332.642 71.5716 334.584 77.3009C335.543 80.177 336.591 83.1651 337.596 86.3212C338.061 87.9075 338.446 89.603 338.285 91.3591C338.203 92.2303 337.966 93.107 337.542 93.9002C337.109 94.6878 336.506 95.3809 335.807 95.9455C334.396 97.0737 332.743 97.7328 331.148 98.324C329.546 98.8996 327.966 99.4669 326.416 100.024C323.313 101.134 320.32 102.205 317.468 103.227C311.769 105.256 306.634 107.084 302.308 108.625C298.012 110.136 294.524 111.362 292.074 112.224C290.889 112.63 289.954 112.95 289.284 113.18C288.985 113.277 288.745 113.355 288.555 113.417C288.388 113.468 288.303 113.49 288.3 113.482C288.297 113.475 288.378 113.437 288.538 113.371C288.724 113.298 288.959 113.205 289.251 113.089C289.916 112.839 290.839 112.491 292.012 112.049C294.45 111.152 297.92 109.877 302.195 108.306C306.51 106.738 311.633 104.878 317.32 102.813C320.169 101.783 323.159 100.703 326.258 99.5835C327.807 99.0244 329.384 98.4553 330.985 97.8779C332.568 97.2912 334.176 96.6404 335.507 95.5737C336.167 95.0412 336.723 94.3986 337.123 93.6734C337.514 92.9427 337.735 92.1339 337.813 91.3142C337.968 89.6645 337.603 88.0167 337.148 86.4543C336.159 83.3294 335.112 80.3147 334.167 77.4423C332.262 71.702 330.546 66.5281 329.099 62.1704C327.682 57.8429 326.53 54.3298 325.721 51.8613C325.34 50.6669 325.041 49.726 324.826 49.0503C324.734 48.7483 324.661 48.5069 324.604 48.315C324.555 48.147 324.535 48.0607 324.543 48.058Z" fill="#263238"/>
<path d="M298.697 35.3988C298.673 35.4391 298.209 35.1518 297.307 34.7883C296.403 34.4431 295.034 34.0401 293.3 33.985C291.577 33.9217 289.48 34.1879 287.387 35.1022C285.301 36.0056 283.247 37.6093 281.776 39.7914C280.276 41.9652 279.62 44.4805 279.619 46.7618C279.599 49.0531 280.086 51.0938 280.553 52.7682C281.037 54.4445 281.532 55.7747 281.858 56.6982C282.187 57.6217 282.365 58.1349 282.333 58.1477C282.304 58.1587 282.068 57.6694 281.684 56.7661C281.305 55.861 280.761 54.5464 280.23 52.8655C279.716 51.1865 279.184 49.1201 279.178 46.759C279.153 44.4108 279.825 41.7724 281.379 39.5224C282.905 37.2605 285.043 35.6108 287.212 34.6974C289.389 33.7748 291.551 33.538 293.316 33.6463C295.093 33.7464 296.482 34.2118 297.38 34.6166C297.824 34.8342 298.164 35.0123 298.378 35.1619C298.597 35.3042 298.706 35.3841 298.697 35.3988Z" fill="#263238"/>
<path d="M299.113 71.3201C299.108 71.3082 299.267 71.2292 299.579 71.0888C299.888 70.9447 300.362 70.7601 300.995 70.5793C301.624 70.3819 302.43 70.2387 303.381 70.1827C304.329 70.1359 305.447 70.2341 306.602 70.6628C308.947 71.4872 311.109 73.885 312.17 77.0622C312.681 78.6669 312.726 80.5304 312.212 82.3324C311.665 84.1271 310.661 85.8484 309.21 87.2951L309.271 87.0519C310.49 90.398 311.818 94.0397 313.2 97.8283L313.284 98.0587L313.051 98.1367C312.386 98.3598 311.672 98.5994 310.953 98.8399C309.406 99.3577 307.881 99.8681 306.385 100.369L306.159 100.445L306.085 100.218C304.827 96.4118 303.449 92.8233 302.448 89.3937L302.647 89.5498C300.768 89.424 299.078 88.6354 297.734 87.6073C296.383 86.569 295.349 85.2801 294.651 83.9243C293.965 82.5638 293.62 81.1198 293.678 79.7896C293.712 78.4603 294.018 77.2568 294.448 76.2424C295.305 74.1962 296.581 72.9092 297.526 72.2069C298.489 71.5028 299.113 71.3201 299.113 71.3201C299.135 71.3614 298.53 71.5918 297.612 72.318C296.711 73.0432 295.494 74.3321 294.693 76.3425C293.894 78.3043 293.547 81.1244 294.977 83.7563C295.663 85.0571 296.673 86.2936 297.98 87.2841C299.28 88.2646 300.903 89.0035 302.67 89.1119L302.825 89.121L302.868 89.2679C303.881 92.6737 305.266 96.2475 306.535 100.069L306.233 99.9186C307.729 99.4173 309.254 98.9051 310.8 98.3864C311.519 98.1459 312.233 97.9063 312.899 97.6832L312.75 97.9908C311.378 94.1985 310.058 90.5531 308.847 87.2052L308.797 87.0702L308.907 86.9619C310.28 85.6042 311.281 83.9206 311.807 82.2131C312.309 80.49 312.279 78.7192 311.804 77.1733C310.8 74.0897 308.738 71.7451 306.501 70.9217C305.396 70.4902 304.315 70.3727 303.386 70.3975C302.455 70.4306 301.659 70.549 301.031 70.7216C299.772 71.0465 299.13 71.3605 299.113 71.3201Z" fill="#263238"/>
<path d="M270.743 336.378L179.052 335.954C168.024 335.903 159.124 326.924 159.17 315.896L160.143 86.0256C160.189 74.9912 169.174 66.0857 180.207 66.1371L271.898 66.5603C282.926 66.6117 291.825 75.5907 291.779 86.6177L290.806 316.489C290.761 327.523 281.777 336.429 270.743 336.378Z" fill="#455A64"/>
<path d="M271.768 74.4936L253.991 74.4119C251.607 74.4009 249.665 76.4132 249.655 78.9046L249.64 82.1296C249.63 84.6219 247.689 86.6333 245.305 86.6222L210.653 86.4625C208.269 86.4515 206.345 84.4218 206.355 81.9294L206.369 78.7045C206.379 76.2121 204.455 74.1824 202.07 74.1714L195.818 74.142L180.259 74.0704C172.532 74.0346 166.239 80.2715 166.206 87.9992L165.258 312.369C165.225 320.094 171.458 326.382 179.181 326.418L270.689 326.84C278.416 326.876 284.708 320.639 284.742 312.911L285.69 88.54C285.723 80.8177 279.491 74.5304 271.768 74.4936Z" fill="white"/>
<path d="M259.453 296.91L191.407 296.596C190.703 296.593 190.135 295.826 190.139 294.883L190.214 277.082C190.218 276.139 190.793 275.378 191.497 275.381L259.543 275.695C260.248 275.699 260.816 276.466 260.812 277.408L260.736 295.209C260.733 296.152 260.158 296.914 259.453 296.91Z" fill="#E8505B"/>
<path d="M213.836 284.273C213.802 283.98 213.663 283.753 213.418 283.59C213.173 283.428 212.871 283.346 212.514 283.344C212.252 283.343 212.024 283.384 211.827 283.468C211.633 283.551 211.48 283.667 211.37 283.814C211.262 283.962 211.208 284.13 211.207 284.318C211.206 284.476 211.243 284.611 211.317 284.725C211.394 284.837 211.491 284.931 211.61 285.006C211.729 285.08 211.854 285.141 211.984 285.189C212.115 285.236 212.235 285.274 212.344 285.303L212.943 285.468C213.097 285.509 213.267 285.565 213.455 285.637C213.645 285.709 213.826 285.807 213.999 285.931C214.173 286.053 214.317 286.209 214.429 286.4C214.542 286.59 214.598 286.824 214.596 287.101C214.595 287.42 214.51 287.708 214.342 287.965C214.176 288.221 213.933 288.425 213.613 288.575C213.295 288.725 212.91 288.8 212.456 288.798C212.033 288.796 211.668 288.726 211.359 288.588C211.052 288.45 210.811 288.259 210.635 288.014C210.461 287.769 210.363 287.485 210.342 287.162L211.079 287.165C211.098 287.388 211.172 287.573 211.302 287.72C211.434 287.865 211.601 287.973 211.802 288.045C212.006 288.115 212.225 288.151 212.459 288.152C212.732 288.153 212.977 288.11 213.195 288.023C213.412 287.933 213.585 287.809 213.712 287.65C213.84 287.489 213.904 287.301 213.905 287.086C213.905 286.89 213.851 286.73 213.742 286.607C213.633 286.484 213.49 286.383 213.311 286.305C213.133 286.228 212.94 286.159 212.733 286.101L212.007 285.89C211.547 285.755 211.182 285.564 210.914 285.317C210.646 285.07 210.513 284.747 210.515 284.35C210.516 284.019 210.607 283.731 210.787 283.486C210.968 283.239 211.211 283.048 211.515 282.913C211.821 282.776 212.163 282.708 212.539 282.71C212.92 282.712 213.258 282.782 213.553 282.919C213.849 283.055 214.082 283.241 214.254 283.476C214.428 283.711 214.519 283.978 214.528 284.276L213.836 284.273ZM216.505 282.809L216.48 288.712L215.765 288.709L215.79 282.806L216.505 282.809ZM222.619 282.837L222.594 288.74L221.902 288.737L218.705 284.087L218.647 284.087L218.628 288.722L217.913 288.719L217.938 282.816L218.63 282.819L221.838 287.48L221.896 287.48L221.916 282.834L222.619 282.837ZM228.077 284.707C228.014 284.513 227.932 284.338 227.828 284.184C227.727 284.028 227.606 283.895 227.464 283.785C227.324 283.675 227.165 283.59 226.987 283.532C226.808 283.473 226.612 283.444 226.399 283.443C226.049 283.441 225.731 283.53 225.444 283.709C225.157 283.888 224.928 284.154 224.757 284.504C224.587 284.855 224.5 285.286 224.498 285.797C224.496 286.309 224.58 286.74 224.749 287.093C224.919 287.445 225.149 287.713 225.441 287.895C225.732 288.076 226.06 288.168 226.425 288.17C226.763 288.172 227.062 288.101 227.32 287.958C227.58 287.813 227.782 287.608 227.928 287.344C228.075 287.077 228.149 286.764 228.151 286.402L228.369 286.449L226.594 286.441L226.597 285.807L228.845 285.817L228.842 286.452C228.84 286.938 228.735 287.36 228.526 287.718C228.318 288.077 228.033 288.354 227.669 288.55C227.307 288.745 226.891 288.841 226.422 288.839C225.9 288.836 225.441 288.711 225.046 288.463C224.653 288.216 224.347 287.864 224.128 287.41C223.911 286.955 223.804 286.417 223.806 285.794C223.808 285.327 223.873 284.908 223.999 284.536C224.127 284.161 224.307 283.843 224.539 283.581C224.771 283.319 225.045 283.118 225.36 282.98C225.676 282.841 226.023 282.772 226.402 282.774C226.713 282.775 227.003 282.824 227.272 282.919C227.542 283.013 227.783 283.145 227.993 283.317C228.206 283.487 228.383 283.691 228.524 283.928C228.665 284.163 228.762 284.424 228.815 284.71L228.077 284.707ZM214.446 292.8L215.16 292.803L215.144 296.712C215.142 297.115 215.046 297.475 214.854 297.791C214.665 298.105 214.397 298.353 214.053 298.534C213.708 298.713 213.304 298.802 212.841 298.799C212.378 298.797 211.975 298.705 211.631 298.523C211.288 298.339 211.022 298.089 210.833 297.773C210.646 297.455 210.554 297.094 210.555 296.69L210.572 292.782L211.286 292.785L211.27 296.636C211.269 296.924 211.331 297.181 211.457 297.407C211.583 297.63 211.763 297.807 211.997 297.937C212.233 298.064 212.515 298.129 212.844 298.131C213.172 298.132 213.455 298.07 213.692 297.944C213.929 297.817 214.11 297.642 214.236 297.419C214.364 297.195 214.428 296.939 214.429 296.651L214.446 292.8ZM216.563 298.713L216.588 292.81L218.583 292.819C219.046 292.821 219.424 292.906 219.717 293.075C220.012 293.241 220.231 293.466 220.372 293.749C220.513 294.032 220.582 294.348 220.581 294.696C220.579 295.044 220.507 295.359 220.364 295.643C220.222 295.927 220.004 296.153 219.709 296.32C219.415 296.486 219.038 296.568 218.578 296.566L217.149 296.559L217.151 295.925L218.558 295.932C218.875 295.933 219.13 295.88 219.323 295.771C219.515 295.662 219.655 295.515 219.742 295.329C219.832 295.141 219.877 294.929 219.878 294.693C219.879 294.456 219.835 294.245 219.748 294.058C219.662 293.871 219.522 293.724 219.329 293.618C219.135 293.509 218.878 293.454 218.557 293.453L217.3 293.447L217.278 298.716L216.563 298.713Z" fill="#E8E8E3"/>
<path d="M204.968 140.431L181.359 140.322L181.339 144.654L204.948 144.763L204.968 140.431Z" fill="#E8505B"/>
<path opacity="0.1" d="M204.968 140.431L181.359 140.322L181.339 144.654L204.948 144.763L204.968 140.431Z" fill="black"/>
<path d="M274.198 167.014C274.194 166.996 274.395 167.025 274.737 166.888C275.059 166.763 275.568 166.371 275.626 165.652C275.624 164.188 275.619 162.06 275.613 159.328C275.613 157.952 275.613 156.425 275.612 154.754C275.613 154.336 275.613 153.91 275.613 153.474C275.624 153.028 275.624 152.614 275.355 152.271C275.114 151.931 274.701 151.713 274.269 151.711C273.799 151.71 273.319 151.709 272.832 151.708C268.926 151.701 264.482 151.692 259.572 151.683C239.906 151.609 212.766 151.509 182.79 151.398C182.394 151.395 182.008 151.589 181.778 151.91C181.523 152.234 181.534 152.617 181.539 153.109C181.536 154.041 181.531 154.969 181.527 155.895C181.519 157.747 181.511 159.586 181.504 161.411C181.5 162.324 181.495 163.233 181.491 164.139C181.505 164.573 181.448 165.093 181.529 165.43C181.62 165.798 181.899 166.11 182.246 166.257C182.427 166.33 182.596 166.356 182.814 166.354L183.486 166.358L184.826 166.364C185.717 166.369 186.605 166.374 187.489 166.378C194.558 166.416 201.378 166.452 207.876 166.486C220.865 166.565 232.564 166.637 242.395 166.697C252.207 166.774 260.154 166.837 265.666 166.88C268.4 166.912 270.529 166.937 271.993 166.955C272.703 166.968 273.25 166.978 273.638 166.986C274.008 166.997 274.198 167.014 274.198 167.014C274.198 167.014 274.008 167.03 273.637 167.035C273.249 167.039 272.702 167.045 271.992 167.052C270.527 167.056 268.398 167.061 265.664 167.068C260.152 167.06 252.205 167.049 242.392 167.036C232.561 167.005 220.862 166.968 207.872 166.928C201.376 166.902 194.556 166.876 187.486 166.848C186.602 166.844 185.714 166.841 184.823 166.837L183.483 166.832L182.811 166.829C182.581 166.833 182.297 166.798 182.062 166.695C181.582 166.493 181.199 166.063 181.07 165.552C180.998 165.292 181.014 165.03 181.013 164.818L181.016 164.139C181.02 163.233 181.023 162.323 181.027 161.411C181.034 159.585 181.042 157.746 181.049 155.895C181.053 154.97 181.056 154.041 181.06 153.109C181.068 152.871 181.046 152.661 181.084 152.376C181.124 152.108 181.228 151.848 181.391 151.63C181.706 151.186 182.247 150.915 182.791 150.922C212.766 151.087 239.906 151.238 259.571 151.346C264.483 151.382 268.926 151.414 272.832 151.442C273.319 151.446 273.799 151.45 274.269 151.454C274.784 151.459 275.273 151.723 275.554 152.127C275.869 152.523 275.866 153.064 275.848 153.476C275.844 153.912 275.841 154.339 275.837 154.756C275.822 156.427 275.809 157.954 275.797 159.329C275.763 162.064 275.737 164.195 275.719 165.66C275.639 166.426 275.089 166.819 274.751 166.934C274.395 167.06 274.198 167.014 274.198 167.014Z" fill="#E0E0E0"/>
<path d="M230.881 157.183L187.696 156.984L187.677 161.033L230.863 161.232L230.881 157.183Z" fill="#E8505B"/>
<path opacity="0.2" d="M230.881 157.183L187.696 156.984L187.677 161.033L230.863 161.232L230.881 157.183Z" fill="white"/>
<path d="M204.801 179.963L181.193 179.855L181.173 184.187L204.781 184.295L204.801 179.963Z" fill="#E8505B"/>
<path opacity="0.1" d="M204.801 179.963L181.193 179.855L181.173 184.187L204.781 184.295L204.801 179.963Z" fill="black"/>
<path d="M273.592 206.544C273.59 206.528 273.785 206.545 274.136 206.441C274.47 206.332 275.007 206.057 275.3 205.401C275.456 205.078 275.472 204.686 275.458 204.237C275.456 203.791 275.455 203.305 275.453 202.779C275.451 201.722 275.448 200.506 275.445 199.14C275.445 197.769 275.445 196.247 275.445 194.583C275.445 194.166 275.445 193.741 275.445 193.307C275.465 192.868 275.412 192.461 275.176 192.095C274.956 191.735 274.597 191.45 274.179 191.322C273.768 191.192 273.277 191.262 272.792 191.243C268.899 191.236 264.471 191.227 259.576 191.217C239.978 191.145 212.932 191.044 183.061 190.934C182.231 190.913 181.464 191.59 181.384 192.411C181.357 193.284 181.37 194.249 181.36 195.159C181.352 197.003 181.344 198.837 181.336 200.655C181.333 201.565 181.328 202.472 181.325 203.374C181.34 203.825 181.276 204.296 181.382 204.656C181.486 205.036 181.728 205.375 182.053 205.597C182.389 205.824 182.754 205.907 183.195 205.891L184.53 205.897C185.419 205.902 186.303 205.906 187.184 205.911C194.23 205.948 201.026 205.984 207.5 206.018C220.444 206.097 232.102 206.169 241.899 206.228C251.677 206.306 259.596 206.368 265.089 206.411C267.814 206.443 269.935 206.468 271.394 206.486C272.102 206.499 272.646 206.509 273.034 206.517C273.403 206.527 273.592 206.544 273.592 206.544C273.592 206.544 273.403 206.56 273.033 206.565C272.646 206.569 272.101 206.575 271.393 206.582C269.935 206.586 267.813 206.591 265.089 206.598C259.596 206.591 251.677 206.58 241.897 206.567C232.1 206.537 220.442 206.5 207.498 206.46C201.023 206.434 194.227 206.407 187.182 206.38C186.301 206.376 185.417 206.373 184.528 206.369L183.193 206.363C182.744 206.387 182.192 206.279 181.786 205.989C181.37 205.704 181.06 205.27 180.926 204.782C180.789 204.268 180.871 203.821 180.851 203.373C180.855 202.47 180.857 201.563 180.861 200.653C180.868 198.834 180.877 197.002 180.883 195.156C180.894 194.222 180.876 193.335 180.91 192.354C181.012 191.297 181.997 190.428 183.062 190.454C212.934 190.62 239.979 190.769 259.577 190.878C264.471 190.913 268.898 190.946 272.792 190.975C273.272 191.001 273.757 190.923 274.254 191.075C274.734 191.225 275.139 191.553 275.387 191.965C275.65 192.368 275.707 192.883 275.68 193.307C275.677 193.741 275.674 194.166 275.67 194.584C275.656 196.248 275.642 197.77 275.63 199.141C275.615 200.508 275.603 201.723 275.592 202.78C275.586 203.306 275.58 203.792 275.576 204.237C275.584 204.675 275.557 205.109 275.386 205.441C275.063 206.123 274.495 206.391 274.148 206.488C273.785 206.579 273.592 206.544 273.592 206.544Z" fill="#E0E0E0"/>
<path d="M204.624 221.198L181.016 221.089L180.996 225.422L204.604 225.53L204.624 221.198Z" fill="#E8505B"/>
<path opacity="0.1" d="M204.624 221.198L181.016 221.089L180.996 225.422L204.604 225.53L204.624 221.198Z" fill="black"/>
<path d="M273.417 247.774C273.416 247.758 273.61 247.775 273.961 247.673C274.295 247.563 274.831 247.287 275.124 246.631C275.281 246.308 275.297 245.916 275.283 245.467C275.281 245.021 275.279 244.535 275.277 244.009C275.276 242.952 275.274 241.736 275.271 240.37C275.27 238.999 275.27 237.477 275.269 235.812C275.269 235.396 275.27 234.97 275.27 234.535C275.289 234.096 275.237 233.69 275.002 233.324C274.781 232.964 274.423 232.679 274.004 232.55C273.594 232.421 273.103 232.492 272.616 232.471C268.725 232.463 264.295 232.455 259.402 232.446C239.803 232.373 212.758 232.273 182.886 232.162C182.055 232.142 181.29 232.818 181.21 233.639C181.182 234.512 181.195 235.477 181.187 236.388C181.179 238.232 181.17 240.065 181.163 241.884C181.159 242.793 181.155 243.698 181.151 244.603C181.167 245.053 181.101 245.523 181.208 245.884C181.312 246.264 181.554 246.603 181.878 246.825C182.215 247.052 182.579 247.136 183.02 247.119L184.356 247.125C185.244 247.13 186.128 247.135 187.01 247.139C194.054 247.177 200.85 247.213 207.325 247.247C220.27 247.326 231.928 247.397 241.724 247.457C251.503 247.534 259.422 247.596 264.915 247.639C267.64 247.672 269.761 247.697 271.22 247.714C271.928 247.728 272.473 247.737 272.859 247.745C273.228 247.758 273.417 247.774 273.417 247.774C273.417 247.774 273.228 247.79 272.859 247.796C272.471 247.799 271.927 247.805 271.219 247.812C269.759 247.816 267.638 247.821 264.913 247.829C259.421 247.82 251.502 247.81 241.722 247.797C231.925 247.767 220.267 247.73 207.322 247.69C200.848 247.664 194.052 247.638 187.007 247.61C186.126 247.606 185.242 247.602 184.353 247.598L183.017 247.593C182.568 247.617 182.017 247.507 181.611 247.218C181.195 246.933 180.885 246.499 180.751 246.011C180.615 245.497 180.696 245.049 180.676 244.602C180.679 243.699 180.683 242.792 180.687 241.884C180.694 240.064 180.701 238.231 180.709 236.387C180.72 235.453 180.701 234.566 180.735 233.584C180.837 232.527 181.823 231.658 182.888 231.686C212.76 231.851 239.804 232 259.402 232.109C264.295 232.145 268.724 232.177 272.617 232.205C273.097 232.23 273.583 232.153 274.079 232.305C274.559 232.455 274.964 232.783 275.212 233.196C275.476 233.599 275.533 234.114 275.506 234.538C275.502 234.972 275.499 235.397 275.495 235.814C275.48 237.479 275.467 239.001 275.456 240.371C275.441 241.738 275.429 242.954 275.418 244.011C275.411 244.536 275.405 245.023 275.4 245.468C275.408 245.907 275.381 246.34 275.21 246.672C274.886 247.353 274.319 247.622 273.973 247.719C273.61 247.808 273.417 247.774 273.417 247.774Z" fill="#E0E0E0"/>
<path d="M230.716 196.715L187.529 196.516L187.511 200.566L230.697 200.764L230.716 196.715Z" fill="#E8505B"/>
<path opacity="0.2" d="M230.716 196.715L187.529 196.516L187.511 200.566L230.697 200.764L230.716 196.715Z" fill="white"/>
<path d="M191.446 240.281C191.441 241.392 190.592 242.29 189.549 242.286C188.506 242.28 187.665 241.375 187.67 240.263C187.674 239.152 188.524 238.253 189.566 238.258C190.609 238.263 191.45 239.168 191.446 240.281Z" fill="#E8505B"/>
<path d="M197.296 240.308C197.291 241.42 196.442 242.318 195.399 242.313C194.357 242.309 193.516 241.403 193.52 240.291C193.525 239.179 194.374 238.281 195.417 238.286C196.46 238.29 197.301 239.196 197.296 240.308Z" fill="#E8505B"/>
<path d="M203.146 240.335C203.142 241.447 202.293 242.345 201.25 242.34C200.207 242.335 199.366 241.43 199.371 240.317C199.375 239.206 200.224 238.308 201.267 238.313C202.309 238.317 203.151 239.222 203.146 240.335Z" fill="#E8505B"/>
<path d="M208.996 240.362C208.991 241.473 208.142 242.372 207.1 242.366C206.057 242.362 205.216 241.457 205.221 240.344C205.226 239.232 206.075 238.335 207.118 238.339C208.16 238.345 209.001 239.25 208.996 240.362Z" fill="#E8505B"/>
<path d="M214.847 240.388C214.843 241.501 213.993 242.399 212.951 242.393C211.908 242.388 211.066 241.483 211.071 240.372C211.076 239.259 211.925 238.361 212.967 238.366C214.01 238.371 214.851 239.276 214.847 240.388Z" fill="#E8505B"/>
<path d="M220.697 240.416C220.692 241.528 219.843 242.426 218.8 242.421C217.757 242.416 216.916 241.511 216.921 240.399C216.926 239.287 217.775 238.39 218.817 238.393C219.86 238.398 220.701 239.304 220.697 240.416Z" fill="#E8505B"/>
<path d="M226.548 240.442C226.543 241.555 225.693 242.453 224.651 242.448C223.609 242.443 222.768 241.538 222.772 240.426C222.777 239.313 223.626 238.416 224.668 238.421C225.71 238.425 226.552 239.331 226.548 240.442Z" fill="#E8505B"/>
<path d="M232.398 240.469C232.393 241.582 231.544 242.479 230.502 242.475C229.459 242.469 228.617 241.565 228.623 240.452C228.627 239.341 229.477 238.443 230.518 238.448C231.561 238.452 232.402 239.357 232.398 240.469Z" fill="#E8505B"/>
<path d="M238.248 240.497C238.243 241.609 237.394 242.507 236.352 242.502C235.309 242.498 234.468 241.593 234.472 240.48C234.478 239.368 235.327 238.471 236.369 238.475C237.412 238.479 238.253 239.385 238.248 240.497Z" fill="#E8505B"/>
<g opacity="0.2">
<path d="M191.446 240.281C191.441 241.392 190.592 242.29 189.549 242.286C188.506 242.28 187.665 241.375 187.67 240.263C187.674 239.152 188.524 238.253 189.566 238.258C190.609 238.263 191.45 239.168 191.446 240.281Z" fill="white"/>
<path d="M197.296 240.308C197.291 241.42 196.442 242.318 195.399 242.313C194.357 242.309 193.516 241.403 193.52 240.291C193.525 239.179 194.374 238.281 195.417 238.286C196.46 238.29 197.301 239.196 197.296 240.308Z" fill="white"/>
<path d="M203.146 240.335C203.142 241.447 202.293 242.345 201.25 242.34C200.207 242.335 199.366 241.43 199.371 240.317C199.375 239.206 200.224 238.308 201.267 238.313C202.309 238.317 203.151 239.222 203.146 240.335Z" fill="white"/>
<path d="M208.996 240.362C208.991 241.473 208.142 242.372 207.1 242.366C206.057 242.362 205.216 241.457 205.221 240.344C205.226 239.232 206.075 238.335 207.118 238.339C208.16 238.345 209.001 239.25 208.996 240.362Z" fill="white"/>
<path d="M214.847 240.388C214.843 241.501 213.993 242.399 212.951 242.393C211.908 242.388 211.066 241.483 211.071 240.372C211.076 239.259 211.925 238.361 212.967 238.366C214.01 238.371 214.851 239.276 214.847 240.388Z" fill="white"/>
<path d="M220.697 240.416C220.692 241.528 219.843 242.426 218.8 242.421C217.757 242.416 216.916 241.511 216.921 240.399C216.926 239.287 217.775 238.39 218.817 238.393C219.86 238.398 220.701 239.304 220.697 240.416Z" fill="white"/>
<path d="M226.548 240.442C226.543 241.555 225.693 242.453 224.651 242.448C223.609 242.443 222.768 241.538 222.772 240.426C222.777 239.313 223.626 238.416 224.668 238.421C225.71 238.425 226.552 239.331 226.548 240.442Z" fill="white"/>
<path d="M232.398 240.469C232.393 241.582 231.544 242.479 230.502 242.475C229.459 242.469 228.617 241.565 228.623 240.452C228.627 239.341 229.477 238.443 230.518 238.448C231.561 238.452 232.402 239.357 232.398 240.469Z" fill="white"/>
<path d="M238.248 240.497C238.243 241.609 237.394 242.507 236.352 242.502C235.309 242.498 234.468 241.593 234.472 240.48C234.478 239.368 235.327 238.471 236.369 238.475C237.412 238.479 238.253 239.385 238.248 240.497Z" fill="white"/>
</g>
<path d="M229.939 107.969C231.175 107.45 232.053 106.177 232.061 104.676C232.069 102.709 230.581 101.108 228.737 101.099C226.893 101.091 225.391 102.678 225.384 104.644C225.378 106.159 226.263 107.449 227.511 107.969C222.373 108.742 222.606 114.327 222.606 114.327L234.755 114.383C234.755 114.383 235.032 108.738 229.939 107.969Z" fill="#E8505B"/>
<path opacity="0.1" d="M229.939 107.969C231.175 107.45 232.053 106.177 232.061 104.676C232.069 102.709 230.581 101.108 228.737 101.099C226.893 101.091 225.391 102.678 225.384 104.644C225.378 106.159 226.263 107.449 227.511 107.969C222.373 108.742 222.606 114.327 222.606 114.327L234.755 114.383C234.755 114.383 235.032 108.738 229.939 107.969Z" fill="black"/>
<path d="M249.687 118.035L206.364 117.836L206.34 123.016L249.663 123.216L249.687 118.035Z" fill="#E8505B"/>
<path opacity="0.2" d="M249.687 118.035L206.364 117.836L206.34 123.016L249.663 123.216L249.687 118.035Z" fill="white"/>
<path d="M90.4231 144.845C90.4231 144.855 90.2781 144.87 89.9971 144.893C89.6933 144.915 89.2793 144.946 88.7477 144.984C88.196 144.993 87.525 145.114 86.7336 145.253C86.3398 145.333 85.9047 145.365 85.4604 145.496C85.0142 145.62 84.5396 145.752 84.0375 145.891C82.0564 146.516 79.6705 147.51 77.2681 149.249C74.8721 150.975 72.4752 153.443 70.6071 156.664C69.6248 158.246 68.9125 160.074 68.2726 161.996C67.7521 163.951 67.2913 166.028 67.2564 168.218C67.1591 169.309 67.2693 170.418 67.3152 171.546C67.3445 172.109 67.4657 172.667 67.5382 173.236C67.6153 173.804 67.6989 174.375 67.8604 174.936C68.325 177.218 69.2549 179.455 70.4309 181.599C72.7819 185.902 76.7329 189.61 81.6121 191.759C84.0531 192.836 86.752 193.417 89.4968 193.53C92.2444 193.704 95.059 193.263 97.7267 192.346L98.5336 192.049L98.6401 192.01L98.7365 192.059C102.687 194.065 106.561 196.031 110.314 197.937L109.97 198.231C108.734 194.394 107.536 190.674 106.385 187.104L106.341 186.966L106.443 186.864C109.361 183.942 111.395 180.392 112.522 176.758C113.652 173.113 113.845 169.4 113.404 165.998C112.964 162.589 111.849 159.489 110.363 156.88C108.878 154.263 107.031 152.138 105.135 150.478C103.217 148.831 101.229 147.714 99.4471 146.86C97.6221 146.096 95.9954 145.607 94.6432 145.346C93.9675 145.23 93.3662 145.128 92.842 145.039C92.3224 145.002 91.88 144.972 91.5137 144.946C91.1722 144.92 90.9032 144.9 90.6994 144.884C90.5167 144.865 90.4231 144.853 90.4231 144.845C90.4231 144.839 90.5167 144.837 90.7003 144.84C90.9041 144.845 91.174 144.854 91.5174 144.863C91.8855 144.878 92.3316 144.896 92.8549 144.917C93.3837 144.996 93.9905 145.086 94.6725 145.188C96.0385 145.427 97.6863 145.896 99.5398 146.647C101.348 147.488 103.372 148.599 105.327 150.252C107.26 151.915 109.147 154.057 110.67 156.701C112.193 159.339 113.342 162.481 113.805 165.943C114.267 169.396 114.086 173.171 112.947 176.885C111.812 180.587 109.75 184.21 106.779 187.196L106.837 186.956C107.992 190.523 109.196 194.242 110.438 198.078L110.62 198.638L110.094 198.372C106.339 196.468 102.465 194.505 98.5125 192.501L98.7154 192.511L97.8911 192.814C95.1637 193.752 92.2848 194.201 89.4766 194.023C86.6721 193.906 83.9126 193.309 81.4203 192.205C76.4364 190.005 72.4165 186.211 70.0324 181.822C68.839 179.635 67.9018 177.354 67.4345 175.03C67.2729 174.459 67.1903 173.878 67.1132 173.3C67.0416 172.722 66.9213 172.153 66.8929 171.58C66.8497 170.435 66.7423 169.307 66.8461 168.198C66.891 165.974 67.3675 163.865 67.9073 161.883C68.5664 159.935 69.3008 158.085 70.306 156.485C72.22 153.231 74.6674 150.747 77.1084 149.022C79.5549 147.284 81.9775 146.307 83.9842 145.705C84.4919 145.573 84.9729 145.447 85.4246 145.329C85.8735 145.204 86.3132 145.179 86.7107 145.107C87.5103 144.981 88.1859 144.877 88.7413 144.884C89.2756 144.866 89.6924 144.853 89.9981 144.842C90.279 144.836 90.4231 144.837 90.4231 144.845Z" fill="#E8505B"/>
<path d="M95.6585 166.28H93.962L90.2597 161.12V157.733C90.2597 157.733 87.6379 157.572 87.9454 162.007C88.2539 166.441 87.9206 165.312 87.9206 165.312C87.9206 165.312 82.3529 165.333 81.8903 165.817C81.5534 166.169 81.4019 171.7 81.3431 174.699C81.3138 176.209 82.24 177.613 83.6446 177.971C83.8438 178.022 84.0457 178.051 84.244 178.051C85.633 178.051 92.7282 176.922 92.7282 176.922H95.6585V166.28Z" fill="#E8505B"/>
<path d="M100.515 165.35L99.4718 176.953H96.5664V165.584L100.515 165.35Z" fill="#E8505B"/>
<path d="M135.116 401.577V393.723L121.042 393.628L120.926 405.493L121.798 405.558C125.68 405.809 141.554 406.174 144.155 405.369C147.056 404.472 135.116 401.577 135.116 401.577Z" fill="#E8505B"/>
<path d="M144.488 404.633C144.488 404.766 139.223 404.873 132.731 404.873C126.236 404.873 120.973 404.766 120.973 404.633C120.973 404.501 126.236 404.394 132.731 404.394C139.223 404.395 144.488 404.502 144.488 404.633Z" fill="#263238"/>
<path d="M135.363 403.18C135.247 403.119 135.346 402.704 135.648 402.295C135.95 401.885 136.318 401.666 136.409 401.759C136.504 401.853 136.311 402.199 136.033 402.579C135.755 402.956 135.481 403.243 135.363 403.18Z" fill="#263238"/>
<path d="M136.261 403.698C136.139 403.652 136.202 403.186 136.478 402.697C136.754 402.206 137.12 401.912 137.222 401.992C137.327 402.075 137.15 402.475 136.894 402.931C136.638 403.386 136.387 403.746 136.261 403.698Z" fill="#263238"/>
<path d="M125.214 404.598C125.158 404.637 124.949 404.43 124.644 404.085C124.338 403.743 123.937 403.258 123.41 402.848C122.887 402.441 122.312 402.236 121.887 402.183C121.459 402.125 121.178 402.192 121.154 402.123C121.129 402.072 121.391 401.875 121.899 401.845C122.398 401.811 123.104 402.001 123.702 402.469C124.296 402.933 124.676 403.486 124.917 403.886C125.158 404.29 125.266 404.561 125.214 404.598Z" fill="#263238"/>
<path d="M135.406 401.704C135.475 401.815 135.234 402.087 134.831 402.234C134.43 402.383 134.069 402.331 134.05 402.202C134.029 402.07 134.315 401.917 134.666 401.786C135.019 401.657 135.336 401.59 135.406 401.704Z" fill="#263238"/>
<path d="M135.186 400.945C135.199 401.077 134.823 401.19 134.349 401.195C133.873 401.202 133.495 401.1 133.505 400.967C133.514 400.835 133.889 400.723 134.342 400.717C134.795 400.711 135.173 400.813 135.186 400.945Z" fill="#263238"/>
<path d="M169.772 401.577L169.772 393.723L155.699 393.628L155.582 405.373L156.454 405.437C160.336 405.688 176.21 406.174 178.812 405.369C181.713 404.472 169.772 401.577 169.772 401.577Z" fill="#E8505B"/>
<path d="M179.144 404.651C179.144 404.783 173.88 404.891 167.387 404.891C160.893 404.891 155.63 404.784 155.63 404.651C155.63 404.519 160.893 404.412 167.387 404.412C173.88 404.412 179.144 404.519 179.144 404.651Z" fill="#263238"/>
<path d="M170.019 403.18C169.904 403.119 170.003 402.704 170.306 402.295C170.607 401.885 170.975 401.666 171.067 401.759C171.161 401.853 170.969 402.199 170.69 402.579C170.411 402.956 170.137 403.243 170.019 403.18Z" fill="#263238"/>
<path d="M170.917 403.698C170.795 403.652 170.858 403.186 171.135 402.697C171.41 402.206 171.776 401.912 171.878 401.992C171.984 402.075 171.807 402.475 171.551 402.931C171.294 403.386 171.042 403.746 170.917 403.698Z" fill="#263238"/>
<path d="M159.869 404.598C159.814 404.637 159.605 404.43 159.3 404.085C158.994 403.743 158.592 403.258 158.065 402.848C157.543 402.441 156.968 402.236 156.542 402.183C156.114 402.125 155.833 402.192 155.81 402.123C155.785 402.072 156.046 401.875 156.553 401.845C157.053 401.811 157.759 402.001 158.356 402.469C158.951 402.933 159.329 403.486 159.572 403.886C159.814 404.29 159.922 404.561 159.869 404.598Z" fill="#263238"/>
<path d="M170.063 401.704C170.131 401.815 169.89 402.087 169.489 402.234C169.087 402.383 168.726 402.331 168.707 402.202C168.685 402.07 168.971 401.917 169.323 401.786C169.675 401.657 169.993 401.59 170.063 401.704Z" fill="#263238"/>
<path d="M169.841 400.945C169.854 401.077 169.479 401.19 169.004 401.195C168.529 401.202 168.151 401.1 168.16 400.967C168.17 400.835 168.545 400.723 168.999 400.717C169.451 400.711 169.828 400.813 169.841 400.945Z" fill="#263238"/>
<path d="M221.618 168.501C221.25 168.122 220.347 168.3 220.347 168.3C220.347 168.3 220.505 167.227 220.338 166.709C220.172 166.19 219.015 166.29 219.015 166.29C219.015 166.29 218.943 165.791 219.044 164.985C219.07 164.783 218.958 164.634 218.775 164.523C218.227 164.191 217.046 164.207 217.046 164.207C216.337 163.7 219.205 159.69 220.268 158.407C221.319 157.139 221.142 156.123 220.194 156.125C219.547 156.126 216.199 159.981 215.178 161.275C214.157 162.568 211.418 166.168 211.325 163.295C211.231 160.423 210.077 158.25 209.356 157.88C208.634 157.51 207.856 158.379 208.255 159.176C208.578 159.821 208.782 161.063 208.898 162.002C208.993 162.777 208.961 163.563 208.792 164.324C208.313 166.475 207.798 167.873 207.556 168.47L207.486 168.431C207.486 168.431 187.449 187.644 186.005 189.015C184.705 190.249 158.668 187.555 153.452 187.002C152.027 186.842 149.915 186.556 148.086 186.637C145.823 186.736 145.421 187.057 143.156 187.087C136.221 187.18 130.442 187.855 126.142 188.583C120.942 189.462 116.679 193.163 115.07 198.186C109.805 214.615 97.8947 253.512 95.7723 275.364C94.1006 278.507 92.2325 282.178 91.4733 284.244C89.9981 288.26 90.3561 288.397 90.8536 288.49C92.1884 288.736 93.716 281.524 94.286 283.264C94.857 285.006 91.3925 291.869 92.798 292.07C94.6303 292.331 96.0908 284.751 96.2616 284.119C96.4277 283.505 97.3522 283.712 97.1677 284.275C96.9014 285.084 94.3182 293.649 96.1156 293.923C97.1117 294.076 97.2191 292.261 97.2191 292.261C97.2191 292.261 99.0459 284.069 99.8895 284.227C100.747 284.388 99.8363 289.233 99.4131 290.845C98.9954 292.438 99.5838 293.284 100.443 292.884C101.029 292.61 102.44 287.703 102.82 286.099C103.201 284.495 104.166 280.077 105.462 282.642C106.758 285.207 108.72 286.69 109.53 286.722C110.34 286.754 110.68 285.638 109.981 285.083C109.417 284.635 108.708 283.595 108.207 282.791C107.794 282.13 107.491 281.403 107.324 280.642C106.678 277.704 106.684 275.996 106.684 275.996L106.534 275.052C108.589 264.868 114.515 234.992 123.027 215.905L126.532 223.118L128.053 228.457L118.712 251.535L158.565 251.009L152.624 228.115L159.842 204.243H159.841C167.654 204.417 187.718 204.708 191.09 203.201C195.294 201.323 217.05 173.898 217.05 173.898H217.049C218.518 172.728 220.013 171.469 221.115 170.37C221.117 170.369 222.414 169.319 221.618 168.501Z" fill="#FFBE9D"/>
<path d="M116.978 234.543C118.132 230.597 124.073 211.082 124.073 211.082C124.073 211.082 126.989 226.992 126.222 228.908C125.339 231.115 123.716 233.642 123.716 233.642C116.978 243.904 117.862 249.033 117.862 249.033L158.566 247.792C158.666 242.099 155.296 228.865 154.591 226.756C153.886 224.647 156.224 217.726 156.224 217.726C156.224 217.726 160.824 213.055 160.646 210.65C160.287 205.807 159.843 204.243 159.843 204.243L184.611 205.154L183.833 188.349L148.23 184.786C146.998 188.292 135.786 186.574 135.786 186.574C123.682 186.972 122.95 189.198 117.902 193.106C112.854 197.014 104.542 230.577 104.542 230.577L116.978 234.543Z" fill="#E8505B"/>
<path d="M141.051 230.574C141.05 230.637 140.231 230.691 138.906 230.682C137.581 230.674 135.749 230.591 133.737 230.39C131.724 230.186 129.914 229.903 128.613 229.647C127.313 229.391 126.521 229.176 126.533 229.113C126.546 229.046 127.358 229.145 128.667 229.313C129.976 229.483 131.783 229.713 133.785 229.914C135.786 230.115 137.602 230.25 138.918 230.344C140.236 230.44 141.052 230.505 141.051 230.574Z" fill="#263238"/>
<path d="M143.837 227.112C143.854 227.171 143.015 227.489 141.615 227.869C140.216 228.249 138.25 228.668 136.051 228.931C133.85 229.19 131.841 229.245 130.391 229.202C128.941 229.161 128.05 229.046 128.054 228.987C128.057 228.916 128.951 228.91 130.39 228.865C131.83 228.82 133.814 228.714 135.994 228.456C138.171 228.196 140.126 227.834 141.537 227.541C142.947 227.247 143.818 227.043 143.837 227.112Z" fill="#263238"/>
<path d="M157.529 211.67C157.592 211.684 157.488 212.477 157.251 213.747C157.014 215.016 156.642 216.761 156.173 218.674C155.703 220.588 155.227 222.307 154.849 223.542C154.472 224.778 154.199 225.529 154.135 225.512C154.071 225.494 154.23 224.711 154.523 223.455C154.87 222.022 155.269 220.377 155.709 218.561C156.158 216.748 156.566 215.106 156.921 213.674C157.242 212.424 157.464 211.657 157.529 211.67Z" fill="#263238"/>
<path d="M117.405 232.205C117.37 232.333 114.563 231.678 111.135 230.743C107.706 229.806 104.956 228.946 104.991 228.818C105.026 228.69 107.832 229.346 111.261 230.281C114.689 231.216 117.44 232.078 117.405 232.205Z" fill="#263238"/>
<path d="M160.292 204.027C160.292 204.049 159.915 204.089 159.238 204.022C158.565 203.953 157.58 203.796 156.439 203.354C155.297 202.926 153.999 202.211 152.787 201.13C151.574 200.053 150.49 198.571 149.799 196.828C149.096 195.086 148.866 193.27 148.976 191.653C149.082 190.04 149.51 188.581 150.233 187.559C150.948 186.524 151.896 186.022 152.556 185.849C152.89 185.76 153.16 185.739 153.34 185.743C153.521 185.748 153.614 185.768 153.614 185.783C153.616 185.828 153.233 185.807 152.612 186.026C152.003 186.245 151.145 186.76 150.514 187.748C149.264 189.713 148.915 193.299 150.244 196.652C150.909 198.328 151.933 199.751 153.084 200.805C154.234 201.863 155.472 202.586 156.566 203.041C158.771 203.955 160.309 203.925 160.292 204.027Z" fill="#263238"/>
<path d="M181.69 204.818C181.559 204.818 181.459 201.031 181.468 196.359C181.477 191.686 181.592 187.9 181.723 187.9C181.855 187.901 181.954 191.687 181.945 196.36C181.937 201.032 181.822 204.819 181.69 204.818Z" fill="#263238"/>
<path d="M148.012 185.809C148.112 183.76 148.327 181.446 148.327 181.446C148.327 181.446 153.393 180.888 153.7 175.654C154.008 170.421 153.7 158.354 153.7 158.354L144.473 153.656L134.324 161.665L135.861 187.829L145.2 188.423C146.673 188.517 147.937 187.343 148.012 185.809Z" fill="#FFBE9D"/>
<path d="M148.925 171.515C148.939 171.519 148.94 171.613 148.845 171.74C148.751 171.863 148.546 172.003 148.262 171.997C147.673 171.969 147.108 171.319 146.899 170.526C146.795 170.123 146.796 169.714 146.875 169.363C146.937 169.016 147.137 168.669 147.426 168.574C147.563 168.523 147.706 168.528 147.816 168.583C147.923 168.637 147.989 168.719 148.023 168.794C148.092 168.95 148.039 169.045 148.025 169.038C148.004 169.037 148.009 168.95 147.932 168.852C147.86 168.752 147.687 168.661 147.496 168.76C147.302 168.848 147.168 169.097 147.119 169.416C147.061 169.732 147.068 170.094 147.161 170.453C147.345 171.164 147.838 171.746 148.276 171.798C148.492 171.826 148.672 171.742 148.769 171.663C148.87 171.58 148.905 171.506 148.925 171.515Z" fill="#EB996E"/>
<path d="M156.846 155.529C156.141 153.12 153.58 151.923 151.246 151.262C147.696 150.256 143.851 149.811 140.383 151.088C136.914 152.365 132.743 154.611 132.744 158.443C130.697 158.274 129.527 160.068 128.715 162.29C128.235 163.603 127.919 165.064 127.845 166.512L127.811 166.501C127.547 171.516 126.15 178.426 122.898 182.136C121.103 184.184 118.518 185.598 117.471 188.149C116.561 190.366 117.032 192.986 116.172 195.224C115.413 197.2 113.732 198.603 112.527 200.321C109.902 204.065 109.723 209.353 111.652 213.531C113.581 217.709 117.402 220.766 121.644 222.167C125.886 223.568 130.508 223.413 134.825 222.29C138.012 221.46 141.113 220.087 143.653 217.916C146.194 215.744 148.142 212.727 148.724 209.358C149.37 205.608 148.321 201.8 147.549 198.076C145.107 186.293 145.804 185.681 148.886 174.751C148.956 174.558 148.999 174.357 149.052 174.159C149.093 174.014 149.132 173.875 149.173 173.727L149.167 173.725C149.253 173.297 149.309 172.862 149.311 172.418C148.419 172.769 147.341 172.535 146.656 171.843C145.972 171.151 145.717 170.034 146.028 169.095C146.386 168.015 147.378 167.293 148.396 166.865C149.414 166.436 150.509 166.224 151.509 165.749C153.628 164.74 155.098 162.647 156.098 160.454C156.8 158.917 157.322 157.156 156.846 155.529Z" fill="#263238"/>
<path d="M149.287 171.738C149.319 171.725 149.497 172.066 149.77 172.645C150.043 173.225 150.408 174.042 150.815 174.982L150.891 175.161L150.696 175.177C150.391 175.204 150.081 175.23 149.762 175.258C149.121 175.299 148.587 175.376 147.966 175.37C147.868 175.352 147.759 175.262 147.729 175.162C147.696 175.062 147.705 174.979 147.716 174.906C147.742 174.762 147.774 174.656 147.802 174.534L147.964 173.884C148.167 173.091 148.312 172.604 148.351 172.613C148.389 172.622 148.314 173.124 148.162 173.928L148.034 174.584C147.987 174.806 147.907 175.138 148.026 175.112C148.483 175.093 149.134 175.016 149.738 174.971C150.057 174.946 150.367 174.922 150.672 174.897L150.555 175.092C150.162 174.147 149.829 173.314 149.601 172.716C149.376 172.118 149.255 171.752 149.287 171.738Z" fill="#E8505B"/>
<path d="M117.862 249.033L158.566 247.792L176.27 316.953L173.009 396.286H151.465L154.134 318.642L138.389 270.497L140.815 399.362L119.064 399.683L116.773 278.555C116.677 275.189 115.569 267.593 115.981 264.253L117.862 249.033Z" fill="#263238"/>
<path d="M143.81 271.474C143.802 271.538 143.038 271.5 141.814 271.356C140.589 271.212 138.905 270.953 137.059 270.583C135.214 270.211 133.561 269.798 132.376 269.457C131.191 269.115 130.472 268.857 130.488 268.794C130.525 268.661 133.48 269.378 137.154 270.114C140.825 270.857 143.828 271.338 143.81 271.474Z" fill="#455A64"/>
<path d="M172.814 391.934C172.814 392.067 167.936 392.174 161.921 392.174C155.903 392.174 151.027 392.067 151.027 391.934C151.027 391.803 155.903 391.696 161.921 391.696C167.936 391.697 172.814 391.803 172.814 391.934Z" fill="#455A64"/>
<path d="M140.62 396.014C140.62 396.147 135.889 396.254 130.052 396.254C124.215 396.254 119.483 396.147 119.483 396.014C119.483 395.882 124.215 395.775 130.052 395.775C135.889 395.775 140.62 395.882 140.62 396.014Z" fill="#455A64"/>
<path d="M137.819 395.683C137.686 395.685 137.114 367.527 136.541 332.798C135.967 298.056 135.609 269.899 135.741 269.897C135.873 269.895 136.445 298.048 137.019 332.789C137.593 367.519 137.951 395.681 137.819 395.683Z" fill="#455A64"/>
<path d="M169.92 391.934C169.912 391.934 169.909 391.807 169.91 391.56C169.915 391.289 169.922 390.925 169.93 390.46C169.959 389.468 170 388.048 170.052 386.234C170.181 382.539 170.365 377.234 170.592 370.691C171.094 357.548 171.787 339.431 172.553 319.421C172.56 319.236 172.568 319.052 172.574 318.881L172.582 318.949C167.757 299.631 163.397 282.171 160.235 269.512C158.684 263.206 157.427 258.096 156.551 254.536C156.131 252.787 155.803 251.418 155.574 250.461C155.471 250.012 155.391 249.661 155.331 249.399C155.279 249.159 155.256 249.036 155.264 249.034C155.272 249.032 155.31 249.152 155.378 249.388C155.449 249.646 155.544 249.995 155.666 250.439C155.917 251.391 156.274 252.753 156.731 254.493C157.642 258.043 158.948 263.14 160.561 269.431C163.758 282.081 168.167 299.529 173.044 318.833L173.052 318.866L173.052 318.901C173.045 319.071 173.037 319.255 173.03 319.441C172.211 339.449 171.468 357.562 170.929 370.705C170.638 377.245 170.402 382.546 170.238 386.241C170.146 388.055 170.075 389.472 170.026 390.465C169.997 390.929 169.975 391.293 169.959 391.563C169.941 391.809 169.928 391.935 169.92 391.934Z" fill="#455A64"/>
<path d="M162.898 317.267C162.92 317.397 160.79 317.871 158.139 318.326C156.159 318.667 154.45 318.9 153.704 318.942L153.703 318.756C153.951 318.824 154.084 318.877 154.078 318.91C154.074 318.943 153.93 318.953 153.673 318.942L153.117 318.918L153.673 318.756C154.39 318.546 156.08 318.196 158.059 317.856C160.708 317.4 162.875 317.136 162.898 317.267Z" fill="#455A64"/>
<path d="M162.486 319.906C162.468 320.039 160.556 319.892 158.201 319.711C155.846 319.525 153.934 319.375 153.937 319.24C153.94 319.109 155.868 319.047 158.239 319.233C160.607 319.416 162.504 319.778 162.486 319.906Z" fill="#455A64"/>
<path opacity="0.2" d="M117.681 250.494C118.665 251.88 120.069 252.365 121.7 252.632C123.331 252.9 124.995 252.721 126.636 252.539C137.143 251.373 148.277 250.298 158.566 247.791C145.247 248.537 131.181 248.286 117.862 249.032C117.862 249.032 117.748 249.948 117.722 250.169" fill="black"/>
<g opacity="0.2">
<path d="M131.411 269.268L138.915 298.399L138.39 270.496L131.411 269.268Z" fill="black"/>
</g>
</svg>
