<svg width="69" height="69" viewBox="0 0 69 69" fill="none" xmlns="http://www.w3.org/2000/svg">
<path d="M34.5 68C44.01 68 52.5961 64.036 58.6925 57.6723C64.4567 51.6562 68 43.4908 68 34.5C68 15.9987 53.0013 1 34.5 1C15.9987 1 1 15.9987 1 34.5C1 43.4908 4.54333 51.6561 10.3075 57.6723C16.4039 64.036 24.99 68 34.5 68Z" fill="#666666" stroke="white" stroke-width="2"/>
<path d="M34.5 36.2441C41.8327 36.2441 47.7771 30.2998 47.7771 22.967C47.7771 15.6343 41.8327 9.68994 34.5 9.68994C27.1673 9.68994 21.2229 15.6343 21.2229 22.967C21.2229 30.2998 27.1673 36.2441 34.5 36.2441Z" fill="#B0B6B7"/>
<path d="M56.8692 54.2935C56.6089 54.5877 56.3426 54.8771 56.0706 55.1609C50.6338 60.836 42.9796 64.3694 34.5 64.3694C26.0204 64.3694 18.3661 60.836 12.9294 55.1609C12.6574 54.8772 12.3911 54.5878 12.1308 54.2935C12.1308 45.0986 17.4634 40.2197 34.5 40.2197C52.1674 40.2198 56.8692 45.9132 56.8692 54.2935Z" fill="#B0B6B7"/>
</svg>
