<svg width="314" height="302" viewBox="0 0 314 302" fill="none" xmlns="http://www.w3.org/2000/svg">
<path d="M181.222 150.176C181.222 150.176 178.843 150.53 178.6 151.686C178.357 152.842 178.108 154.062 179.064 157.216C180.02 160.369 179.913 161.714 181.064 161.918C182.215 162.123 184.459 153.727 181.222 150.176Z" fill="#26264F"/>
<path d="M181.047 146.842C181.026 147.071 180.175 149.659 179.686 151.132C179.487 151.733 179.709 152.39 180.23 152.749C180.993 153.275 182.031 153.112 182.596 152.378C183.548 151.143 184.923 149.291 185.628 148.024L181.047 146.842Z" fill="url(#paint0_linear_32_3395)"/>
<path d="M127.422 113.743C125.393 109.708 136.605 100.367 138.096 99.1245C141.033 96.6784 169.348 73.5987 185.831 84.8692C199.706 94.3568 194.959 121.186 194.029 126.441C192.078 137.466 187.61 145.809 184.286 150.946C182.477 149.94 180.668 148.933 178.86 147.927C177.69 142.073 176.978 137.143 176.533 133.524C175.873 128.173 175.278 123.348 175.134 116.974C174.905 106.878 176.075 104.88 174.459 103.634C170.887 100.878 163.469 109.334 147.955 113.52C141.452 115.275 129.274 117.427 127.422 113.743Z" fill="url(#paint1_linear_32_3395)"/>
<path opacity="0.3" d="M138.097 99.1244C138.976 98.3916 142.144 95.8037 146.58 92.845C147.938 94.7309 149.343 95.6169 150.531 96.0233C155.99 97.8913 159.84 91.3701 169.435 91.1807C171.889 91.1322 178.618 90.9995 182.012 95.1674C186.068 100.148 180.878 105.761 184.3 116.906C186.076 122.689 187.911 122.606 188.15 126.912C188.527 133.711 184.087 136.341 184.357 142.298C184.428 143.872 184.863 145.808 186.074 148.007C185.459 149.067 184.853 150.07 184.286 150.946C182.477 149.94 180.669 148.933 178.86 147.927C177.69 142.073 176.979 137.142 176.533 133.524C175.874 128.173 175.279 123.348 175.134 116.974C174.905 106.878 176.076 104.88 174.46 103.633C170.887 100.878 163.469 109.334 147.955 113.52C141.453 115.275 129.274 117.427 127.422 113.743C125.393 109.708 136.605 100.367 138.097 99.1244Z" fill="url(#paint2_linear_32_3395)"/>
<path d="M204.518 195.769C204.518 195.769 229.556 233.57 196.419 283.823C193.332 288.504 186.314 288.031 183.857 282.99L168.204 250.884C165.694 245.737 165.474 239.769 167.598 234.451L178.504 207.147L204.518 195.769Z" fill="url(#paint3_linear_32_3395)"/>
<path d="M145.415 133.441C145.415 133.441 108.995 106.432 57.0549 136.856C52.2166 139.69 52.3166 146.723 57.2192 149.444L88.4498 166.779C93.4568 169.558 99.4044 170.095 104.828 168.256L132.672 158.815L145.415 133.441Z" fill="url(#paint4_linear_32_3395)"/>
<path d="M207.998 192.469C207.998 192.469 233.036 230.271 199.898 280.523C196.812 285.204 189.794 284.731 187.336 279.691L171.683 247.585C169.174 242.437 168.954 236.469 171.078 231.151L181.983 203.848L207.998 192.469Z" fill="url(#paint5_linear_32_3395)"/>
<path d="M148.894 130.141C148.894 130.141 112.474 103.132 60.5344 133.556C55.6961 136.39 55.7961 143.424 60.6986 146.145L91.9293 163.48C96.9362 166.259 102.884 166.795 108.307 164.956L136.151 155.516L148.894 130.141Z" fill="url(#paint6_linear_32_3395)"/>
<path d="M192.131 50.183C240.05 13.8908 307.224 39.0751 307.249 39.1647C307.338 39.1944 328.918 107.614 290.138 153.536C254.961 195.191 186.539 219.32 173.436 223.658C172.027 224.125 169.763 224.716 169.16 223.36C157.418 196.985 139.227 178.776 115.909 167.234C114.618 166.596 115.364 164.409 115.888 163.068C120.842 150.388 148.59 83.1593 192.131 50.183Z" fill="url(#paint7_linear_32_3395)"/>
<g opacity="0.3">
<path d="M209.966 117.979C236.753 97.8631 257.352 110.628 282.907 93.4168C292.238 87.1322 303.008 76.3268 311.08 56.1494C314.914 79.3888 316.917 121.826 290.138 153.536C254.961 195.191 186.539 219.32 173.437 223.658C172.027 224.125 169.764 224.716 169.16 223.36C163.228 210.036 155.648 198.799 146.595 189.449C156.154 185.477 163.318 180.53 168.794 175.607C190.879 155.751 185.559 136.307 209.966 117.979Z" fill="url(#paint8_linear_32_3395)"/>
</g>
<path d="M274.63 70.0975C260.328 55.0157 242.123 40.6083 224.877 34.4347C260.464 24.9971 296.359 35.4694 305.193 38.4313C306.501 38.87 307.505 39.928 307.873 41.2576C310.362 50.2364 318.913 86.6372 307.602 121.672C303.347 106.043 288.931 85.1792 274.63 70.0975Z" fill="url(#paint9_linear_32_3395)"/>
<path opacity="0.3" d="M311.08 56.1508C311.098 56.2594 311.115 56.3681 311.133 56.4774C311.163 56.6628 311.194 56.8488 311.224 57.0366C311.253 57.2237 311.283 57.4127 311.313 57.6021C311.341 57.782 311.369 57.9622 311.396 58.1443C311.427 58.3452 311.458 58.5479 311.488 58.7512C311.514 58.9255 311.54 59.1 311.565 59.2762C311.597 59.491 311.628 59.7077 311.659 59.9252C311.683 60.0944 311.707 60.264 311.73 60.4349C311.762 60.6631 311.793 60.8931 311.824 61.1242C311.847 61.2879 311.869 61.4521 311.89 61.6172C311.922 61.8591 311.954 62.1027 311.985 62.3475C312.005 62.5055 312.025 62.664 312.045 62.823C312.076 63.0773 312.108 63.3335 312.138 63.5909C312.157 63.7459 312.176 63.9013 312.194 64.0574C312.225 64.3219 312.255 64.5881 312.285 64.8556C312.302 65.0069 312.319 65.1585 312.336 65.3107C312.366 65.5876 312.396 65.8663 312.425 66.1466C312.441 66.2928 312.456 66.4394 312.471 66.5864C312.5 66.8746 312.529 67.1645 312.557 67.4558C312.571 67.5983 312.585 67.7412 312.598 67.8845C312.626 68.184 312.654 68.4853 312.68 68.7881C312.693 68.9258 312.705 69.0639 312.717 69.2023C312.743 69.5124 312.769 69.8242 312.794 70.1376C312.805 70.2723 312.816 70.4074 312.826 70.5426C312.851 70.8625 312.875 71.184 312.899 71.5072C312.908 71.6385 312.917 71.7704 312.927 71.9023C312.95 72.2312 312.972 72.5616 312.993 72.8938C313.001 73.0224 313.009 73.1516 313.017 73.2809C313.037 73.6195 313.057 73.9597 313.076 74.3017C313.083 74.4261 313.09 74.551 313.096 74.676C313.114 75.0245 313.132 75.3744 313.148 75.7262C313.153 75.8468 313.159 75.9681 313.164 76.0892C313.18 76.4467 313.194 76.8056 313.208 77.1664C313.212 77.2838 313.216 77.4018 313.22 77.5195C313.233 77.8869 313.244 78.2558 313.255 78.6263C313.258 78.738 313.261 78.8501 313.263 78.962C313.273 79.3396 313.282 79.7187 313.289 80.0995C313.291 80.2072 313.292 80.3153 313.294 80.4233C313.3 80.8095 313.305 81.197 313.309 81.5863C313.31 81.6913 313.31 81.7967 313.311 81.902C313.313 82.2952 313.315 82.6896 313.314 83.0856C313.314 83.1887 313.314 83.292 313.314 83.3951C313.312 83.7963 313.31 84.1985 313.305 84.6025C313.304 84.7005 313.303 84.7991 313.301 84.8974C313.296 85.3068 313.289 85.7176 313.28 86.1301C313.278 86.2249 313.276 86.3203 313.274 86.4154C313.264 86.8328 313.253 87.2516 313.239 87.6718C313.236 87.7616 313.233 87.8518 313.23 87.9417C313.216 88.3677 313.2 88.7948 313.182 89.2235C313.178 89.3097 313.174 89.3964 313.17 89.4829C313.15 89.9167 313.13 90.3514 313.106 90.7878C313.102 90.8688 313.097 90.9503 313.092 91.0313C313.068 91.4733 313.042 91.9165 313.013 92.3609C313.008 92.4379 313.003 92.515 312.997 92.5919C312.967 93.0417 312.936 93.4924 312.901 93.9446C312.896 94.0165 312.89 94.0886 312.884 94.1605C312.849 94.6178 312.811 95.0759 312.771 95.5353C312.765 95.6042 312.758 95.6731 312.752 95.7419C312.71 96.206 312.667 96.671 312.62 97.1372C312.614 97.1991 312.607 97.2614 312.601 97.3233C312.553 97.7966 312.502 98.2709 312.449 98.7463C312.443 98.802 312.436 98.858 312.43 98.9137C312.375 99.3953 312.318 99.8778 312.257 100.361C312.251 100.411 312.244 100.462 312.238 100.512C312.176 101.002 312.112 101.493 312.044 101.984C312.038 102.026 312.032 102.068 312.026 102.109C311.957 102.61 311.884 103.111 311.808 103.613C311.803 103.646 311.798 103.679 311.793 103.712C311.715 104.223 311.635 104.734 311.55 105.246C311.546 105.27 311.542 105.294 311.538 105.319C311.451 105.84 311.362 106.362 311.269 106.884C311.266 106.897 311.264 106.909 311.262 106.922C310.385 111.812 309.189 116.755 307.602 121.672C304.882 111.683 298.01 99.5574 289.673 88.1682C297.152 81.5304 304.905 71.5845 311.08 56.1508Z" fill="url(#paint10_linear_32_3395)"/>
<path d="M194.013 79.7507C176.52 96.338 177.271 125.53 195.69 144.954C214.108 164.377 243.219 166.676 260.712 150.088C278.204 133.501 277.453 104.309 259.035 84.8855C240.616 65.4622 211.505 63.1633 194.013 79.7507Z" fill="url(#paint11_linear_32_3395)"/>
<path d="M209.966 117.979C231.825 101.564 249.564 107.042 269.237 100.261C276.758 117.604 274.003 137.485 260.711 150.088C243.219 166.676 214.108 164.377 195.689 144.954C194.183 143.365 192.797 141.71 191.527 140.003C195.4 132.518 200.399 125.163 209.966 117.979Z" fill="url(#paint12_linear_32_3395)"/>
<path d="M196.793 82.683C180.76 97.8873 181.448 124.646 198.33 142.449C215.213 160.253 241.897 162.36 257.931 147.156C273.965 131.952 273.276 105.193 256.394 87.3896C239.511 69.5859 212.827 67.4787 196.793 82.683Z" fill="url(#paint13_linear_32_3395)"/>
<path d="M200.733 86.8382C186.766 100.083 187.366 123.392 202.072 138.901C216.779 154.41 240.024 156.245 253.991 143.001C267.958 129.756 267.358 106.447 252.652 90.9382C237.945 75.4294 214.701 73.5937 200.733 86.8382Z" fill="url(#paint14_linear_32_3395)"/>
<path d="M114.621 166.057C109.848 170.583 118.397 187.348 133.715 203.501C149.034 219.655 165.32 229.082 170.093 224.556C174.866 220.03 166.317 203.266 150.999 187.112C135.681 170.958 119.394 161.532 114.621 166.057Z" fill="url(#paint15_linear_32_3395)"/>
<path d="M140.746 185.134L152.65 197.687C158.983 204.367 160.635 214.219 156.827 222.598L153.213 230.55C151.883 233.477 148.013 234.126 145.801 231.793L106.325 190.163C104.113 187.831 104.966 184 107.959 182.828L116.092 179.641C124.662 176.283 134.412 178.455 140.746 185.134Z" fill="url(#paint16_linear_32_3395)"/>
<path d="M104.834 185.25C100.331 189.521 106.928 203.79 119.569 217.122C132.211 230.453 146.111 237.798 150.614 233.527C155.118 229.257 148.521 214.987 135.879 201.656C123.238 188.324 109.338 180.979 104.834 185.25Z" fill="url(#paint17_linear_32_3395)"/>
<path d="M110.328 191.043C106.905 194.289 111.919 205.134 121.527 215.266C131.134 225.398 141.698 230.98 145.121 227.734C148.544 224.488 143.53 213.644 133.922 203.512C124.315 193.38 113.751 187.798 110.328 191.043Z" fill="url(#paint18_linear_32_3395)"/>
<g opacity="0.3">
<path d="M209.966 117.979C228.557 104.018 244.167 105.893 260.523 102.595C266.867 116.587 264.762 132.786 253.991 143.001C240.023 156.245 216.779 154.41 202.072 138.901C199.923 136.634 198.077 134.2 196.532 131.656C199.784 127.036 203.98 122.474 209.966 117.979Z" fill="url(#paint19_linear_32_3395)"/>
</g>
<path d="M122.542 205.637C124.756 210.109 99.9542 227.829 77.9054 239.357C74.0617 241.366 63.8673 246.548 49.6186 251.481C26.1516 259.605 12.1172 265.322 6.76063 259.536C3.25985 255.755 4.21506 248.017 7.10498 243.041C12.9905 232.906 24.7558 237.919 37.3163 227.192C47.4722 218.519 44.5969 211.128 53.4614 206.906C61.9452 202.866 67.6642 208.165 82.987 209.736C106.763 212.174 120.876 202.272 122.542 205.637Z" fill="url(#paint20_linear_32_3395)"/>
<path d="M133.501 216.778C113.225 223.753 102.031 233.601 95.5343 241.398C87.823 250.652 87.1547 256.506 77.467 263.175C67.9186 269.749 60.7655 269.434 54.4849 277.754C53.0843 279.61 46.9428 287.746 49.5195 293.489C53.8817 303.21 82.3713 304.159 102.676 292.627C106.666 290.361 122.111 281.589 124.602 266.805C125.82 259.574 122.977 256.616 122.77 247.871C122.555 238.779 125.305 228.373 133.501 216.778Z" fill="url(#paint21_linear_32_3395)"/>
<path d="M120.728 63.0502C122.101 60.7325 124.488 56.5743 123.219 52.2538C121.998 48.0966 117.756 44.9299 113.451 44.3081C112.397 44.1556 109.027 43.8218 103.617 47.0496C95.8723 51.6713 97.0419 58.5444 91.0196 60.4989C87.49 61.6445 86.4907 59.5732 80.7269 60.7954C76.345 61.7246 75.7276 63.1752 72.2936 64.2673C64.468 66.7561 61.5884 61.1572 53.0311 62.5023C46.8941 63.4669 40.2003 67.6317 39.1561 72.8139C38.5436 75.8535 40.4287 76.4944 40.6113 81.3892C40.8236 87.082 38.3778 89.0081 37.5474 94.2206C36.7281 99.3623 37.8516 105.374 40.6319 109.619C47.5543 120.186 64.123 118.84 65.924 118.668C74.7109 117.833 80.5054 113.697 88.1393 108.099C98.5543 100.461 105.945 87.9907 120.728 63.0502Z" fill="#26264F"/>
<path d="M177.633 33.771L181.008 30.5122C181.883 29.6919 182.814 28.8587 183.803 28.0202C185.247 26.7965 186.663 25.6907 188.029 24.6921C188.029 24.6921 188.313 25.2728 187.541 26.1142C186.77 26.9558 185.242 28.2177 184.867 28.5384C184.492 28.859 185.832 30.0714 185.04 31.5174C184.249 32.9632 182.334 33.0611 181.646 32.3959L179.166 34.8027L177.633 33.771Z" fill="url(#paint22_linear_32_3395)"/>
<path d="M179.098 31.9667C180.099 33.0024 181.1 34.0378 182.101 35.0735C181.874 36.8327 181.302 39.5878 179.605 42.3889C175.63 48.9489 169.851 48.5563 161.037 55.2671C157.086 58.2754 158.624 58.0679 149.95 66.1455C142.742 72.8579 139.08 76.2207 136.228 76.5378C127.131 77.5499 118.881 62.7741 117.454 60.1517C126.515 55.4398 134.239 52.2628 139.762 50.1935C152.216 45.5272 162.532 43.1027 175.449 34.5143C177.006 33.4787 178.262 32.579 179.098 31.9667Z" fill="url(#paint23_linear_32_3395)"/>
<path d="M159.663 173.467C159.622 173.479 159.53 173.486 159.4 173.498C158.82 173.552 157.488 173.713 156.681 174.963C155.693 176.491 156.034 179.812 156.588 183.775C157.143 187.738 159.078 184.135 159.258 183.523C159.439 182.911 161.352 174.592 161.352 174.592L159.663 173.467Z" fill="#26264F"/>
<path d="M162.889 172.799L159.693 176.212C159.693 176.212 158.602 176.126 158.778 174.659L159.221 170.976L162.889 172.799Z" fill="url(#paint24_linear_32_3395)"/>
<path opacity="0.3" d="M141.791 62.3427C142.539 60.9504 144.308 56.8594 148.453 55.0072C151.751 53.5335 153.248 54.9544 156.686 53.6275C160.919 51.9942 160.566 49.0999 165.347 44.958C170.859 40.1822 174.05 41.6721 177.022 37.8601C178.003 36.6011 178.922 34.8013 179.292 32.1671C180.229 33.1359 181.165 34.1045 182.101 35.0734C181.874 36.8326 181.302 39.5877 179.605 42.3888C175.63 48.9488 169.851 48.5561 161.037 55.267C157.086 58.2753 158.624 58.0677 149.95 66.1454C142.742 72.8578 139.08 76.2206 136.228 76.5377C132.509 76.9515 128.933 74.7261 125.906 71.7721C135.9 69.0493 140.078 65.527 141.791 62.3427Z" fill="url(#paint25_linear_32_3395)"/>
<path d="M122.947 103.658C128.574 102.274 148.436 98.1212 165.027 109.861C166.917 111.199 170.582 113.836 173.331 117.943C182.234 131.244 177.226 153.526 162.838 174.336C161.194 173.413 159.551 172.491 157.908 171.569C156.701 167.381 155.471 161.116 156.391 153.75C157.629 143.834 161.801 139.623 159.619 133.869C157.105 127.245 148.525 124.791 146.912 124.367C134.937 121.216 128.124 130.291 117.464 127.17C111.94 125.553 108.154 121.473 105.701 117.97C111.45 113.199 117.199 108.429 122.947 103.658Z" fill="url(#paint26_linear_32_3395)"/>
<path d="M57.2979 75.663C58.6407 77.4733 61.3189 80.4925 65.5254 81.7263C72.1058 83.6561 78.3009 80.006 83.2171 77.013C90.3426 72.6746 88.8427 70.9748 95.6795 66.3655C103.655 60.9883 116.977 58.4827 118.6 58.1982C123.297 57.3754 125.68 56.9745 127.395 57.4818C133.789 59.3734 138.635 67.3283 138.683 74.4329C138.697 76.4343 137.928 80.2532 136.389 87.8909C135.581 91.9039 135.004 94.2607 136.194 95.2291C138.301 96.9432 143.814 92.5717 145.063 93.9963C145.832 94.872 144.406 97.2782 144.147 97.7165C139.979 104.774 132.927 105.684 125.971 110.438C115.072 117.886 118.585 125.084 108.612 129.507C102.323 132.296 98.8066 130.374 94.2088 134.529C89.6442 138.654 90.8967 142.548 86.8387 144.955C80.5872 148.663 69.882 144.008 69.8535 141.001C69.8328 138.821 75.4432 139.367 79.8634 134.114C83.7055 129.548 81.5011 126.719 85.5262 120.643C88.3995 116.306 89.7727 117.372 94.3571 111.688C97.3249 108.008 100.193 104.452 100.751 99.3333C101.238 94.8704 99.7545 91.1916 98.7375 89.1862C97.6563 90.6641 88.7874 102.388 74.5715 102.221C71.7966 102.188 61.596 102.068 55.7811 93.8314C50.7844 86.7537 52.4907 78.5909 52.8465 77.0349C54.3303 76.5778 55.814 76.1203 57.2979 75.663Z" fill="url(#paint27_linear_32_3395)"/>
<path d="M114.678 52.7534C114.678 52.7534 114.07 57.7555 112.228 58.9069C110.387 60.0583 107.409 61.5649 107.082 61.9718C106.754 62.3789 118.519 63.6035 124.337 60.6433C124.337 60.6433 124.525 59.6905 122.119 59.3508C121.479 59.2603 120.014 59.0866 119.42 59.135C117.952 59.2548 116.692 58.1078 116.698 56.6343L116.711 53.8659L114.678 52.7534Z" fill="url(#paint28_linear_32_3395)"/>
<path opacity="0.3" d="M83.3575 142.329C84.3767 140.461 83.7368 138.752 85.696 135.711C87.858 132.356 90.1441 132.098 93.5706 128.327C95.9957 125.659 95.5654 125.002 97.599 122.46C103.091 115.598 108.178 117.954 112.316 112.292C115.943 107.33 113.612 103.362 117.496 100.757C121.082 98.3532 124.817 100.564 126.475 98.2115C128.252 95.6907 124.339 92.6146 125.302 88.1744C126.458 82.842 133.093 82.7042 136.226 77.4966C137.419 75.5137 138.251 72.5244 137.381 67.8721C138.201 70.007 138.669 72.259 138.683 74.4328C138.697 76.4343 137.928 80.2532 136.389 87.8909C135.581 91.9039 135.004 94.2606 136.195 95.229C138.301 96.9432 143.814 92.5717 145.063 93.9962C145.832 94.8719 144.406 97.2782 144.147 97.7164C139.979 104.774 132.927 105.684 125.971 110.438C115.073 117.886 118.585 125.084 108.612 129.507C102.323 132.296 98.8068 130.374 94.2089 134.529C89.6444 138.654 90.8968 142.548 86.8388 144.955C84.0953 146.583 80.4945 146.598 77.3142 145.85C80.8364 145.136 82.5594 143.79 83.3575 142.329Z" fill="url(#paint29_linear_32_3395)"/>
<path d="M114.404 54.5252C114.404 54.5252 115.612 56.1726 117.497 55.4781C119.184 54.8563 118.161 50.4962 116.82 50.003C116.372 49.8384 115.552 49.9146 115.004 50.2587C114.619 50.5008 113.593 51.7844 114.188 53.217C113.761 53.0947 113.386 53.2082 113.292 53.4199C113.174 53.6883 113.536 54.0523 113.619 54.1348C113.903 54.4204 114.246 54.4996 114.404 54.5252Z" fill="url(#paint30_linear_32_3395)"/>
<path d="M56.8324 5.10849C46.1206 -0.203127 35.9057 1.22918 30.8054 3.48614C24.776 6.15427 22.776 8.15625 17.4385 9.16396C12.6943 10.0596 7.76922 4.24042 4.07162 8.35284C3.82264 8.62969 3.51615 8.97436 3.17182 9.56946C0.52278 14.1482 3.65202 19.6783 2.78629 29.3404C2.34316 34.2839 1.2714 35.656 0.2799 45.157C-0.0970742 48.7699 -0.0182603 49.3022 0.0870839 49.7195C1.70732 56.1306 14.5611 54.9192 23.6078 52.1529C36.0801 48.3392 40.0956 41.9432 48.2853 44.853C52.0632 46.1952 54.934 48.8797 56.7681 50.9363C55.9327 35.728 57.668 20.3168 56.8324 5.10849Z" fill="url(#paint31_linear_32_3395)"/>
<path d="M56.7987 92.2754C57.2858 92.2754 57.6804 91.8807 57.6804 91.3937V0.920992C57.6804 0.4339 57.2857 0.0392761 56.7987 0.0392761C56.3116 0.0392761 55.917 0.4339 55.917 0.920992V91.3936C55.917 91.8807 56.3116 92.2754 56.7987 92.2754Z" fill="#A2A7AE"/>
<path d="M53.9448 76.6966C53.9448 76.6966 53.1923 73.6356 53.1923 72.1212C53.1923 70.6067 57.3571 70.6067 58.1142 70.6067C58.8714 70.6067 58.4929 73.257 56.9784 73.4463C55.8844 73.5831 55.7782 75.0272 55.8037 75.8185C55.8132 76.117 55.6054 76.3761 55.3121 76.4327L53.9448 76.6966Z" fill="url(#paint32_linear_32_3395)"/>
<defs>
<linearGradient id="paint0_linear_32_3395" x1="179.733" y1="144.074" x2="184.199" y2="153.185" gradientUnits="userSpaceOnUse">
<stop stop-color="#311944"/>
<stop offset="1" stop-color="#A03976"/>
</linearGradient>
<linearGradient id="paint1_linear_32_3395" x1="179.505" y1="71.962" x2="163.698" y2="112.838" gradientUnits="userSpaceOnUse">
<stop stop-color="#444B8C"/>
<stop offset="0.9964" stop-color="#3E4177"/>
</linearGradient>
<linearGradient id="paint2_linear_32_3395" x1="179.111" y1="71.8094" x2="163.304" y2="112.685" gradientUnits="userSpaceOnUse">
<stop stop-color="#444B8C"/>
<stop offset="0.9964" stop-color="#3E4177"/>
</linearGradient>
<linearGradient id="paint3_linear_32_3395" x1="217.444" y1="264.153" x2="170.543" y2="214.696" gradientUnits="userSpaceOnUse">
<stop stop-color="#444B8C"/>
<stop offset="0.9964" stop-color="#26264F"/>
</linearGradient>
<linearGradient id="paint4_linear_32_3395" x1="124.712" y1="166.363" x2="77.8099" y2="116.905" gradientUnits="userSpaceOnUse">
<stop stop-color="#444B8C"/>
<stop offset="0.9964" stop-color="#26264F"/>
</linearGradient>
<linearGradient id="paint5_linear_32_3395" x1="220.923" y1="260.854" x2="174.022" y2="211.397" gradientUnits="userSpaceOnUse">
<stop stop-color="#AA80F9"/>
<stop offset="0.9964" stop-color="#6165D7"/>
</linearGradient>
<linearGradient id="paint6_linear_32_3395" x1="81.0875" y1="147.296" x2="211.995" y2="118.004" gradientUnits="userSpaceOnUse">
<stop stop-color="#AA80F9"/>
<stop offset="0.9964" stop-color="#6165D7"/>
</linearGradient>
<linearGradient id="paint7_linear_32_3395" x1="211.191" y1="185.044" x2="222.197" y2="-26.1106" gradientUnits="userSpaceOnUse">
<stop stop-color="#FFC444"/>
<stop offset="0.9964" stop-color="#F36F56"/>
</linearGradient>
<linearGradient id="paint8_linear_32_3395" x1="227.465" y1="185.893" x2="238.472" y2="-25.2616" gradientUnits="userSpaceOnUse">
<stop stop-color="#FFC444"/>
<stop offset="0.9964" stop-color="#F36F56"/>
</linearGradient>
<linearGradient id="paint9_linear_32_3395" x1="327.925" y1="102.399" x2="245.198" y2="15.1641" gradientUnits="userSpaceOnUse">
<stop stop-color="#AA80F9"/>
<stop offset="0.9964" stop-color="#6165D7"/>
</linearGradient>
<linearGradient id="paint10_linear_32_3395" x1="300.536" y1="105.844" x2="304.66" y2="26.7325" gradientUnits="userSpaceOnUse">
<stop stop-color="#AA80F9"/>
<stop offset="0.9964" stop-color="#6165D7"/>
</linearGradient>
<linearGradient id="paint11_linear_32_3395" x1="260.713" y1="150.088" x2="194.012" y2="79.7516" gradientUnits="userSpaceOnUse">
<stop offset="0.0036" stop-color="#EBEFF2"/>
<stop offset="1" stop-color="white"/>
</linearGradient>
<linearGradient id="paint12_linear_32_3395" x1="259.56" y1="151.181" x2="192.858" y2="80.8439" gradientUnits="userSpaceOnUse">
<stop offset="0.0036" stop-color="#EBEFF2"/>
<stop offset="1" stop-color="white"/>
</linearGradient>
<linearGradient id="paint13_linear_32_3395" x1="239.476" y1="82.6709" x2="220.317" y2="133.674" gradientUnits="userSpaceOnUse">
<stop offset="0.0036" stop-color="#EBEFF2"/>
<stop offset="1" stop-color="white"/>
</linearGradient>
<linearGradient id="paint14_linear_32_3395" x1="211.708" y1="187.949" x2="238.468" y2="63.1063" gradientUnits="userSpaceOnUse">
<stop stop-color="#444B8C"/>
<stop offset="0.9964" stop-color="#26264F"/>
</linearGradient>
<linearGradient id="paint15_linear_32_3395" x1="117.967" y1="222.265" x2="144.284" y2="193.177" gradientUnits="userSpaceOnUse">
<stop stop-color="#FFC444"/>
<stop offset="0.9964" stop-color="#F36F56"/>
</linearGradient>
<linearGradient id="paint16_linear_32_3395" x1="159.239" y1="225.3" x2="113.521" y2="177.09" gradientUnits="userSpaceOnUse">
<stop stop-color="#AA80F9"/>
<stop offset="0.9964" stop-color="#6165D7"/>
</linearGradient>
<linearGradient id="paint17_linear_32_3395" x1="134.313" y1="197.068" x2="109.888" y2="242.741" gradientUnits="userSpaceOnUse">
<stop stop-color="#AA80F9"/>
<stop offset="0.9964" stop-color="#6165D7"/>
</linearGradient>
<linearGradient id="paint18_linear_32_3395" x1="132.732" y1="200.025" x2="114.169" y2="234.737" gradientUnits="userSpaceOnUse">
<stop stop-color="#444B8C"/>
<stop offset="0.9964" stop-color="#26264F"/>
</linearGradient>
<linearGradient id="paint19_linear_32_3395" x1="217.027" y1="189.089" x2="243.787" y2="64.2481" gradientUnits="userSpaceOnUse">
<stop stop-color="#444B8C"/>
<stop offset="0.9964" stop-color="#26264F"/>
</linearGradient>
<linearGradient id="paint20_linear_32_3395" x1="91.839" y1="194.825" x2="-13.4945" y2="313.426" gradientUnits="userSpaceOnUse">
<stop stop-color="#FFC444"/>
<stop offset="0.9964" stop-color="#F36F56"/>
</linearGradient>
<linearGradient id="paint21_linear_32_3395" x1="135.201" y1="242.4" x2="0.79378" y2="326.639" gradientUnits="userSpaceOnUse">
<stop stop-color="#FFC444"/>
<stop offset="0.9964" stop-color="#F36F56"/>
</linearGradient>
<linearGradient id="paint22_linear_32_3395" x1="183.685" y1="22.8909" x2="182.104" y2="35.3298" gradientUnits="userSpaceOnUse">
<stop stop-color="#311944"/>
<stop offset="1" stop-color="#A03976"/>
</linearGradient>
<linearGradient id="paint23_linear_32_3395" x1="174.155" y1="26.8522" x2="126.751" y2="72.6677" gradientUnits="userSpaceOnUse">
<stop stop-color="#FFC444"/>
<stop offset="0.9964" stop-color="#F36F56"/>
</linearGradient>
<linearGradient id="paint24_linear_32_3395" x1="145.996" y1="158.112" x2="157.034" y2="170.071" gradientUnits="userSpaceOnUse">
<stop stop-color="#311944"/>
<stop offset="1" stop-color="#A03976"/>
</linearGradient>
<linearGradient id="paint25_linear_32_3395" x1="179.1" y1="31.9679" x2="131.706" y2="77.7735" gradientUnits="userSpaceOnUse">
<stop stop-color="#FFC444"/>
<stop offset="0.9964" stop-color="#F36F56"/>
</linearGradient>
<linearGradient id="paint26_linear_32_3395" x1="174.728" y1="120.239" x2="124.482" y2="149.845" gradientUnits="userSpaceOnUse">
<stop stop-color="#444B8C"/>
<stop offset="0.9964" stop-color="#3E4177"/>
</linearGradient>
<linearGradient id="paint27_linear_32_3395" x1="139.089" y1="70.1951" x2="56.5475" y2="118.829" gradientUnits="userSpaceOnUse">
<stop stop-color="#FFC444"/>
<stop offset="0.9964" stop-color="#F36F56"/>
</linearGradient>
<linearGradient id="paint28_linear_32_3395" x1="109.386" y1="55.91" x2="114.386" y2="59.9499" gradientUnits="userSpaceOnUse">
<stop stop-color="#311944"/>
<stop offset="1" stop-color="#A03976"/>
</linearGradient>
<linearGradient id="paint29_linear_32_3395" x1="147.977" y1="85.2805" x2="65.4361" y2="133.914" gradientUnits="userSpaceOnUse">
<stop stop-color="#FFC444"/>
<stop offset="0.9964" stop-color="#F36F56"/>
</linearGradient>
<linearGradient id="paint30_linear_32_3395" x1="106.181" y1="48.9567" x2="117.557" y2="53.2318" gradientUnits="userSpaceOnUse">
<stop stop-color="#311944"/>
<stop offset="1" stop-color="#A03976"/>
</linearGradient>
<linearGradient id="paint31_linear_32_3395" x1="-24.3435" y1="-30.6583" x2="80.9888" y2="86.0177" gradientUnits="userSpaceOnUse">
<stop stop-color="#FF9085"/>
<stop offset="1" stop-color="#FB6FBB"/>
</linearGradient>
<linearGradient id="paint32_linear_32_3395" x1="54.0352" y1="81.3451" x2="55.0435" y2="76.0068" gradientUnits="userSpaceOnUse">
<stop stop-color="#311944"/>
<stop offset="1" stop-color="#A03976"/>
</linearGradient>
</defs>
</svg>
