<svg width="98" height="32" viewBox="0 0 98 32" fill="none" xmlns="http://www.w3.org/2000/svg">
<path d="M0.5 16C0.5 24.8366 7.66344 32 16.5 32C25.3366 32 32.5 24.8366 32.5 16C32.5 7.16344 25.3366 0 16.5 0C7.66344 0 0.5 7.16344 0.5 16Z" fill="#2867B2"/>
<path d="M12.1 24H8.7V13.3H12.1V24ZM10.4 11.8C9.3 11.8 8.5 11 8.5 9.9C8.5 8.8 9.4 8 10.4 8C11.5 8 12.3 8.8 12.3 9.9C12.3 11 11.5 11.8 10.4 11.8ZM24.5 24H21.1V18.2C21.1 16.5 20.4 16 19.4 16C18.4 16 17.4 16.8 17.4 18.3V24H14V13.3H17.2V14.8C17.5 14.1 18.7 13 20.4 13C22.3 13 24.3 14.1 24.3 17.4V24H24.5Z" fill="white"/>
<path d="M41.6186 21V10.8182H43.1548V19.6776H47.7685V21H41.6186ZM49.4016 21V13.3636H50.8881V21H49.4016ZM50.1523 12.1854C49.8938 12.1854 49.6718 12.0992 49.4862 11.9268C49.3039 11.7512 49.2127 11.5424 49.2127 11.3004C49.2127 11.0552 49.3039 10.8464 49.4862 10.674C49.6718 10.4983 49.8938 10.4105 50.1523 10.4105C50.4109 10.4105 50.6313 10.4983 50.8136 10.674C50.9992 10.8464 51.092 11.0552 51.092 11.3004C51.092 11.5424 50.9992 11.7512 50.8136 11.9268C50.6313 12.0992 50.4109 12.1854 50.1523 12.1854ZM54.3745 16.4659V21H52.888V13.3636H54.3148V14.6065H54.4093C54.5849 14.2022 54.86 13.8774 55.2346 13.6321C55.6124 13.3868 56.088 13.2642 56.6614 13.2642C57.1818 13.2642 57.6375 13.3736 58.0286 13.5923C58.4197 13.8078 58.723 14.1293 58.9384 14.5568C59.1538 14.9844 59.2615 15.513 59.2615 16.1428V21H57.775V16.3217C57.775 15.7682 57.6309 15.3357 57.3425 15.0241C57.0542 14.7093 56.6581 14.5518 56.1543 14.5518C55.8096 14.5518 55.503 14.6264 55.2346 14.7756C54.9694 14.9247 54.7589 15.1435 54.6032 15.4318C54.4507 15.7169 54.3745 16.0616 54.3745 16.4659ZM62.6223 18.4098L62.6124 16.5952H62.8709L65.9135 13.3636H67.6934L64.2232 17.0426H63.9895L62.6223 18.4098ZM61.2551 21V10.8182H62.7417V21H61.2551ZM66.0776 21L63.3432 17.3707L64.3674 16.3317L67.9022 21H66.0776ZM72.0249 21.1541C71.2725 21.1541 70.6245 20.9934 70.081 20.6719C69.5407 20.3471 69.1231 19.8913 68.8281 19.3047C68.5365 18.7147 68.3906 18.0237 68.3906 17.2315C68.3906 16.4493 68.5365 15.7599 68.8281 15.1634C69.1231 14.5668 69.5341 14.1011 70.0611 13.7663C70.5914 13.4316 71.2112 13.2642 71.9205 13.2642C72.3513 13.2642 72.7689 13.3355 73.1733 13.478C73.5777 13.6205 73.9406 13.8442 74.2621 14.1491C74.5836 14.4541 74.8371 14.8501 75.0227 15.3374C75.2083 15.8213 75.3011 16.4096 75.3011 17.1023V17.6293H69.2308V16.5156H73.8445C73.8445 16.1245 73.7649 15.7782 73.6058 15.4766C73.4467 15.1716 73.223 14.9313 72.9347 14.7557C72.6496 14.58 72.3149 14.4922 71.9304 14.4922C71.5128 14.4922 71.1482 14.5949 70.8366 14.8004C70.5284 15.0026 70.2898 15.2678 70.1207 15.5959C69.955 15.9207 69.8722 16.2737 69.8722 16.6548V17.5249C69.8722 18.0353 69.9616 18.4695 70.1406 18.8274C70.3229 19.1854 70.5765 19.4588 70.9013 19.6477C71.2261 19.8333 71.6056 19.9261 72.0398 19.9261C72.3215 19.9261 72.5784 19.8864 72.8104 19.8068C73.0424 19.724 73.2429 19.6013 73.4119 19.4389C73.581 19.2765 73.7102 19.076 73.7997 18.8374L75.2067 19.0909C75.094 19.5052 74.8918 19.8681 74.6001 20.1797C74.3118 20.4879 73.9489 20.7282 73.5114 20.9006C73.0772 21.0696 72.5817 21.1541 72.0249 21.1541ZM79.8091 21.1491C79.1926 21.1491 78.6425 20.9917 78.1586 20.6768C77.678 20.3587 77.3001 19.9062 77.025 19.3196C76.7533 18.7296 76.6174 18.022 76.6174 17.1967C76.6174 16.3714 76.7549 15.6655 77.03 15.0788C77.3084 14.4922 77.6896 14.0431 78.1735 13.7315C78.6574 13.42 79.2059 13.2642 79.8191 13.2642C80.293 13.2642 80.6742 13.3438 80.9625 13.5028C81.2542 13.6586 81.4796 13.8409 81.6387 14.0497C81.8011 14.2585 81.927 14.4425 82.0165 14.6016H82.106V10.8182H83.5925V21H82.1408V19.8118H82.0165C81.927 19.9742 81.7978 20.1598 81.6287 20.3686C81.463 20.5774 81.2343 20.7597 80.9426 20.9155C80.651 21.0713 80.2731 21.1491 79.8091 21.1491ZM80.1373 19.8814C80.5648 19.8814 80.9261 19.7687 81.2211 19.5433C81.5194 19.3146 81.7447 18.9981 81.8972 18.5938C82.053 18.1894 82.1309 17.7187 82.1309 17.1818C82.1309 16.6515 82.0546 16.1875 81.9022 15.7898C81.7497 15.392 81.526 15.0821 81.231 14.8601C80.936 14.638 80.5714 14.527 80.1373 14.527C79.6898 14.527 79.3169 14.643 79.0186 14.875C78.7203 15.107 78.495 15.4235 78.3425 15.8246C78.1934 16.2256 78.1188 16.678 78.1188 17.1818C78.1188 17.6922 78.195 18.1513 78.3475 18.5589C78.4999 18.9666 78.7253 19.2898 79.0236 19.5284C79.3252 19.7637 79.6964 19.8814 80.1373 19.8814ZM87.3697 10.8182V21H85.8335V10.8182H87.3697ZM90.9741 16.4659V21H89.4876V13.3636H90.9144V14.6065H91.0089C91.1845 14.2022 91.4596 13.8774 91.8342 13.6321C92.212 13.3868 92.6876 13.2642 93.261 13.2642C93.7814 13.2642 94.2371 13.3736 94.6282 13.5923C95.0193 13.8078 95.3226 14.1293 95.538 14.5568C95.7534 14.9844 95.8612 15.513 95.8612 16.1428V21H94.3746V16.3217C94.3746 15.7682 94.2305 15.3357 93.9421 15.0241C93.6538 14.7093 93.2577 14.5518 92.7539 14.5518C92.4092 14.5518 92.1026 14.6264 91.8342 14.7756C91.569 14.9247 91.3585 15.1435 91.2028 15.4318C91.0503 15.7169 90.9741 16.0616 90.9741 16.4659Z" fill="black"/>
</svg>
