<svg width="77" height="21" viewBox="0 0 77 21" fill="none" xmlns="http://www.w3.org/2000/svg">
<g clip-path="url(#clip0_3_128)">
<path d="M20.4894 10.6871C20.4894 9.8677 20.4214 9.26977 20.2741 8.64969H10.6992V12.348H16.3195C16.2062 13.2671 15.5943 14.6512 14.2345 15.5813L14.2155 15.7051L17.2429 17.9969L17.4526 18.0174C19.3789 16.2789 20.4894 13.7211 20.4894 10.6871Z" fill="#4285F4"/>
<path d="M10.6991 20.4314C13.4526 20.4314 15.7642 19.5455 17.4526 18.0175L14.2345 15.5814C13.3733 16.1682 12.2175 16.5779 10.6991 16.5779C8.0023 16.5779 5.7134 14.8395 4.89747 12.4367L4.77787 12.4466L1.62991 14.8273L1.58875 14.9392C3.26576 18.1946 6.71048 20.4314 10.6991 20.4314Z" fill="#34A853"/>
<path d="M4.8976 12.4367C4.68231 11.8167 4.55771 11.1522 4.55771 10.4657C4.55771 9.77918 4.68231 9.11483 4.88627 8.49475L4.88057 8.36269L1.69316 5.94376L1.58888 5.99223C0.897698 7.34315 0.501099 8.86017 0.501099 10.4657C0.501099 12.0713 0.897698 13.5883 1.58888 14.9392L4.8976 12.4367Z" fill="#FBBC05"/>
<path d="M10.6991 4.35336C12.6141 4.35336 13.9058 5.16168 14.6424 5.83718L17.5206 3.09107C15.7529 1.4855 13.4526 0.5 10.6991 0.5C6.7105 0.5 3.26577 2.73672 1.58876 5.99214L4.88615 8.49466C5.71341 6.09183 8.00232 4.35336 10.6991 4.35336Z" fill="#EB4335"/>
</g>
<path d="M36.5092 8.5348C36.4131 8.23319 36.2839 7.96307 36.1214 7.72443C35.9624 7.48248 35.7718 7.27699 35.5497 7.10795C35.3277 6.93561 35.0741 6.80469 34.7891 6.7152C34.5073 6.62571 34.1974 6.58097 33.8594 6.58097C33.286 6.58097 32.7689 6.72846 32.3082 7.02344C31.8475 7.31842 31.483 7.75095 31.2145 8.32102C30.9493 8.88778 30.8168 9.58215 30.8168 10.4041C30.8168 11.2294 30.951 11.9271 31.2195 12.4972C31.4879 13.0672 31.8558 13.4998 32.3232 13.7947C32.7905 14.0897 33.3224 14.2372 33.919 14.2372C34.4725 14.2372 34.9548 14.1245 35.3658 13.8991C35.7801 13.6738 36.0999 13.3556 36.3253 12.9446C36.554 12.5303 36.6683 12.0431 36.6683 11.483L37.0661 11.5575H34.1527V10.2898H38.1548V11.4482C38.1548 12.3033 37.9725 13.0457 37.608 13.6754C37.2467 14.3018 36.7462 14.7857 36.1065 15.1271C35.4702 15.4685 34.741 15.6392 33.919 15.6392C32.9976 15.6392 32.1889 15.4271 31.4929 15.0028C30.8002 14.5786 30.2599 13.977 29.8722 13.1982C29.4844 12.416 29.2905 11.4879 29.2905 10.4141C29.2905 9.60204 29.4032 8.87287 29.6286 8.22656C29.8539 7.58026 30.1705 7.03172 30.5781 6.58097C30.9891 6.12689 31.4714 5.78054 32.0249 5.5419C32.5817 5.29995 33.1899 5.17898 33.8494 5.17898C34.3996 5.17898 34.9117 5.26018 35.3857 5.42258C35.8629 5.58499 36.2872 5.81534 36.6584 6.11364C37.0329 6.41193 37.3428 6.76657 37.5881 7.17756C37.8333 7.58523 37.9991 8.03764 38.0852 8.5348H36.5092ZM43.2022 15.6541C42.4863 15.6541 41.8616 15.4901 41.3279 15.1619C40.7943 14.8338 40.38 14.3748 40.085 13.7848C39.7901 13.1948 39.6426 12.5054 39.6426 11.7166C39.6426 10.9245 39.7901 10.2318 40.085 9.63849C40.38 9.04522 40.7943 8.58452 41.3279 8.25639C41.8616 7.92827 42.4863 7.7642 43.2022 7.7642C43.9181 7.7642 44.5429 7.92827 45.0765 8.25639C45.6101 8.58452 46.0244 9.04522 46.3194 9.63849C46.6144 10.2318 46.7619 10.9245 46.7619 11.7166C46.7619 12.5054 46.6144 13.1948 46.3194 13.7848C46.0244 14.3748 45.6101 14.8338 45.0765 15.1619C44.5429 15.4901 43.9181 15.6541 43.2022 15.6541ZM43.2072 14.4062C43.6712 14.4062 44.0557 14.2836 44.3606 14.0384C44.6655 13.7931 44.8909 13.4666 45.0368 13.0589C45.1859 12.6513 45.2605 12.2022 45.2605 11.7116C45.2605 11.2244 45.1859 10.777 45.0368 10.3693C44.8909 9.95833 44.6655 9.62855 44.3606 9.37997C44.0557 9.13139 43.6712 9.0071 43.2072 9.0071C42.7399 9.0071 42.3521 9.13139 42.0439 9.37997C41.7389 9.62855 41.5119 9.95833 41.3627 10.3693C41.2169 10.777 41.144 11.2244 41.144 11.7116C41.144 12.2022 41.2169 12.6513 41.3627 13.0589C41.5119 13.4666 41.7389 13.7931 42.0439 14.0384C42.3521 14.2836 42.7399 14.4062 43.2072 14.4062ZM51.6378 15.6541C50.9219 15.6541 50.2971 15.4901 49.7635 15.1619C49.2299 14.8338 48.8156 14.3748 48.5206 13.7848C48.2256 13.1948 48.0781 12.5054 48.0781 11.7166C48.0781 10.9245 48.2256 10.2318 48.5206 9.63849C48.8156 9.04522 49.2299 8.58452 49.7635 8.25639C50.2971 7.92827 50.9219 7.7642 51.6378 7.7642C52.3537 7.7642 52.9785 7.92827 53.5121 8.25639C54.0457 8.58452 54.46 9.04522 54.755 9.63849C55.05 10.2318 55.1974 10.9245 55.1974 11.7166C55.1974 12.5054 55.05 13.1948 54.755 13.7848C54.46 14.3748 54.0457 14.8338 53.5121 15.1619C52.9785 15.4901 52.3537 15.6541 51.6378 15.6541ZM51.6428 14.4062C52.1068 14.4062 52.4912 14.2836 52.7962 14.0384C53.1011 13.7931 53.3265 13.4666 53.4723 13.0589C53.6214 12.6513 53.696 12.2022 53.696 11.7116C53.696 11.2244 53.6214 10.777 53.4723 10.3693C53.3265 9.95833 53.1011 9.62855 52.7962 9.37997C52.4912 9.13139 52.1068 9.0071 51.6428 9.0071C51.1754 9.0071 50.7876 9.13139 50.4794 9.37997C50.1745 9.62855 49.9474 9.95833 49.7983 10.3693C49.6525 10.777 49.5795 11.2244 49.5795 11.7116C49.5795 12.2022 49.6525 12.6513 49.7983 13.0589C49.9474 13.4666 50.1745 13.7931 50.4794 14.0384C50.7876 14.2836 51.1754 14.4062 51.6428 14.4062ZM60.0584 18.5227C59.4519 18.5227 58.9299 18.4432 58.4924 18.2841C58.0582 18.125 57.7035 17.9145 57.4284 17.6527C57.1533 17.3909 56.9479 17.1042 56.812 16.7926L58.0897 16.2656C58.1792 16.4115 58.2985 16.5656 58.4476 16.728C58.6001 16.8937 58.8056 17.0346 59.0641 17.1506C59.3259 17.2666 59.6623 17.3246 60.0733 17.3246C60.6368 17.3246 61.1025 17.187 61.4703 16.9119C61.8382 16.6402 62.0222 16.206 62.0222 15.6094V14.108H61.9277C61.8382 14.2704 61.709 14.451 61.54 14.6499C61.3742 14.8487 61.1455 15.0211 60.8539 15.1669C60.5622 15.3127 60.1827 15.3857 59.7154 15.3857C59.1122 15.3857 58.5686 15.2448 58.0847 14.9631C57.6041 14.678 57.223 14.2588 56.9412 13.7053C56.6628 13.1484 56.5236 12.464 56.5236 11.652C56.5236 10.84 56.6612 10.1439 56.9363 9.56392C57.2147 8.9839 57.5958 8.53977 58.0797 8.23153C58.5636 7.91998 59.1122 7.7642 59.7253 7.7642C60.1993 7.7642 60.5821 7.84375 60.8738 8.00284C61.1654 8.15862 61.3925 8.34091 61.5549 8.54972C61.7206 8.75852 61.8482 8.94247 61.9377 9.10156H62.0471V7.86364H63.5037V15.669C63.5037 16.3253 63.3513 16.8639 63.0463 17.2848C62.7414 17.7057 62.3288 18.0173 61.8084 18.2195C61.2914 18.4216 60.708 18.5227 60.0584 18.5227ZM60.0435 14.1527C60.4711 14.1527 60.8323 14.0533 61.1273 13.8544C61.4256 13.6522 61.651 13.3639 61.8034 12.9893C61.9592 12.6115 62.0371 12.1591 62.0371 11.6321C62.0371 11.1184 61.9609 10.666 61.8084 10.2749C61.656 9.88376 61.4322 9.57884 61.1373 9.36009C60.8423 9.13802 60.4777 9.02699 60.0435 9.02699C59.5961 9.02699 59.2232 9.14299 58.9249 9.375C58.6266 9.60369 58.4012 9.91525 58.2488 10.3097C58.0996 10.7041 58.025 11.1449 58.025 11.6321C58.025 12.1326 58.1013 12.5717 58.2537 12.9496C58.4062 13.3274 58.6316 13.6224 58.9299 13.8345C59.2315 14.0466 59.6027 14.1527 60.0435 14.1527ZM66.9838 5.31818V15.5H65.4973V5.31818H66.9838ZM72.2749 15.6541C71.5225 15.6541 70.8745 15.4934 70.331 15.1719C69.7907 14.8471 69.3731 14.3913 69.0781 13.8047C68.7865 13.2147 68.6406 12.5237 68.6406 11.7315C68.6406 10.9493 68.7865 10.2599 69.0781 9.66335C69.3731 9.06676 69.7841 8.60109 70.3111 8.26633C70.8414 7.93158 71.4612 7.7642 72.1705 7.7642C72.6013 7.7642 73.0189 7.83546 73.4233 7.97798C73.8277 8.1205 74.1906 8.34422 74.5121 8.64915C74.8336 8.95407 75.0871 9.35014 75.2727 9.83736C75.4583 10.3213 75.5511 10.9096 75.5511 11.6023V12.1293H69.4808V11.0156H74.0945C74.0945 10.6245 74.0149 10.2782 73.8558 9.97656C73.6967 9.67164 73.473 9.43134 73.1847 9.25568C72.8996 9.08002 72.5649 8.99219 72.1804 8.99219C71.7628 8.99219 71.3982 9.09493 71.0866 9.30043C70.7784 9.5026 70.5398 9.76776 70.3707 10.0959C70.205 10.4207 70.1222 10.7737 70.1222 11.1548V12.0249C70.1222 12.5353 70.2116 12.9695 70.3906 13.3274C70.5729 13.6854 70.8265 13.9588 71.1513 14.1477C71.4761 14.3333 71.8556 14.4261 72.2898 14.4261C72.5715 14.4261 72.8284 14.3864 73.0604 14.3068C73.2924 14.224 73.4929 14.1013 73.6619 13.9389C73.831 13.7765 73.9602 13.576 74.0497 13.3374L75.4567 13.5909C75.344 14.0052 75.1418 14.3681 74.8501 14.6797C74.5618 14.9879 74.1989 15.2282 73.7614 15.4006C73.3272 15.5696 72.8317 15.6541 72.2749 15.6541Z" fill="black"/>
<defs>
<clipPath id="clip0_3_128">
<rect width="20" height="20" fill="white" transform="translate(0.5 0.5)"/>
</clipPath>
</defs>
</svg>
